<ttFont>
    <TTGlyph name="A" xMin="5" yMin="-14" xMax="787" yMax="748">
      <contour>
        <pt x="784" y="303" on="1"/>
        <pt x="787" y="297" on="0"/>
        <pt x="787" y="291" on="1"/>
        <pt x="787" y="286" on="0"/>
        <pt x="785" y="281" on="1"/>
        <pt x="780" y="269" on="0"/>
        <pt x="771" y="260" on="1"/>
        <pt x="764" y="259" on="0"/>
        <pt x="759" y="259" on="1"/>
        <pt x="751" y="259" on="0"/>
        <pt x="746" y="261" on="1"/>
        <pt x="735" y="263" on="0"/>
        <pt x="718" y="271" on="0"/>
        <pt x="700" y="279" on="0"/>
        <pt x="688" y="280" on="1"/>
        <pt x="680" y="239" on="0"/>
        <pt x="669" y="162" on="0"/>
        <pt x="656" y="89" on="0"/>
        <pt x="635" y="19" on="0"/>
        <pt x="617" y="-14" on="1"/>
        <pt x="612" y="-11" on="0"/>
        <pt x="607" y="-11" on="1"/>
        <pt x="603" y="-11" on="0"/>
        <pt x="600" y="-12" on="1"/>
        <pt x="596" y="-14" on="0"/>
        <pt x="592" y="-14" on="1"/>
        <pt x="587" y="-14" on="0"/>
        <pt x="581" y="-11" on="1"/>
        <pt x="571" y="0" on="0"/>
        <pt x="571" y="12" on="1"/>
        <pt x="571" y="15" on="1"/>
        <pt x="572" y="28" on="0"/>
        <pt x="584" y="57" on="0"/>
        <pt x="601" y="88" on="0"/>
        <pt x="604" y="103" on="1"/>
        <pt x="614" y="148" on="0"/>
        <pt x="621" y="240" on="0"/>
        <pt x="627" y="280" on="1"/>
        <pt x="587" y="285" on="0"/>
        <pt x="545" y="285" on="1"/>
        <pt x="531" y="285" on="0"/>
        <pt x="516" y="284" on="1"/>
        <pt x="458" y="282" on="0"/>
        <pt x="340" y="267" on="0"/>
        <pt x="225" y="242" on="0"/>
        <pt x="173" y="227" on="1"/>
        <pt x="177" y="188" on="0"/>
        <pt x="188" y="121" on="0"/>
        <pt x="199" y="83" on="1"/>
        <pt x="203" y="69" on="0"/>
        <pt x="218" y="37" on="0"/>
        <pt x="222" y="24" on="1"/>
        <pt x="223" y="18" on="0"/>
        <pt x="223" y="13" on="1"/>
        <pt x="223" y="6" on="0"/>
        <pt x="220" y="0" on="1"/>
        <pt x="215" y="-10" on="0"/>
        <pt x="196" y="-11" on="1"/>
        <pt x="193" y="-11" on="1"/>
        <pt x="184" y="-11" on="0"/>
        <pt x="177" y="-5" on="1"/>
        <pt x="169" y="2" on="0"/>
        <pt x="159" y="23" on="0"/>
        <pt x="157" y="36" on="1"/>
        <pt x="156" y="44" on="0"/>
        <pt x="156" y="51" on="1"/>
        <pt x="156" y="59" on="1"/>
        <pt x="147" y="74" on="0"/>
        <pt x="134" y="111" on="0"/>
        <pt x="125" y="151" on="0"/>
        <pt x="120" y="192" on="0"/>
        <pt x="119" y="210" on="1"/>
        <pt x="95" y="202" on="0"/>
        <pt x="51" y="184" on="0"/>
        <pt x="32" y="170" on="1"/>
        <pt x="11" y="179" on="0"/>
        <pt x="7" y="189" on="1"/>
        <pt x="5" y="192" on="0"/>
        <pt x="5" y="196" on="1"/>
        <pt x="5" y="202" on="0"/>
        <pt x="9" y="208" on="1"/>
        <pt x="15" y="217" on="0"/>
        <pt x="43" y="234" on="0"/>
        <pt x="75" y="249" on="0"/>
        <pt x="105" y="262" on="0"/>
        <pt x="113" y="267" on="1"/>
        <pt x="111" y="288" on="0"/>
        <pt x="111" y="308" on="1"/>
        <pt x="111" y="348" on="0"/>
        <pt x="118" y="387" on="1"/>
        <pt x="128" y="445" on="0"/>
        <pt x="171" y="549" on="0"/>
        <pt x="233" y="640" on="0"/>
        <pt x="270" y="678" on="1"/>
        <pt x="294" y="702" on="0"/>
        <pt x="349" y="731" on="0"/>
        <pt x="413" y="746" on="0"/>
        <pt x="450" y="748" on="1"/>
        <pt x="530" y="748" on="1"/>
        <pt x="572" y="716" on="0"/>
        <pt x="627" y="627" on="0"/>
        <pt x="661" y="522" on="0"/>
        <pt x="679" y="405" on="0"/>
        <pt x="684" y="344" on="1"/>
        <pt x="694" y="336" on="0"/>
        <pt x="723" y="330" on="0"/>
        <pt x="752" y="324" on="0"/>
        <pt x="778" y="314" on="0"/>
      </contour>
      <contour>
        <pt x="621" y="337" on="1"/>
        <pt x="625" y="352" on="0"/>
        <pt x="625" y="367" on="1"/>
        <pt x="625" y="374" on="1"/>
        <pt x="624" y="392" on="0"/>
        <pt x="617" y="429" on="0"/>
        <pt x="607" y="466" on="0"/>
        <pt x="604" y="484" on="1"/>
        <pt x="603" y="489" on="0"/>
        <pt x="603" y="494" on="1"/>
        <pt x="603" y="499" on="0"/>
        <pt x="604" y="504" on="1"/>
        <pt x="605" y="509" on="0"/>
        <pt x="605" y="514" on="1"/>
        <pt x="605" y="519" on="0"/>
        <pt x="604" y="524" on="1"/>
        <pt x="597" y="556" on="0"/>
        <pt x="572" y="619" on="0"/>
        <pt x="534" y="669" on="0"/>
        <pt x="508" y="684" on="1"/>
        <pt x="483" y="698" on="0"/>
        <pt x="451" y="698" on="1"/>
        <pt x="447" y="698" on="1"/>
        <pt x="390" y="696" on="0"/>
        <pt x="297" y="636" on="0"/>
        <pt x="263" y="598" on="1"/>
        <pt x="244" y="566" on="0"/>
        <pt x="206" y="499" on="0"/>
        <pt x="178" y="422" on="0"/>
        <pt x="171" y="378" on="1"/>
        <pt x="167" y="352" on="0"/>
        <pt x="167" y="324" on="1"/>
        <pt x="167" y="304" on="0"/>
        <pt x="169" y="283" on="1"/>
        <pt x="229" y="296" on="0"/>
        <pt x="339" y="317" on="0"/>
        <pt x="448" y="331" on="0"/>
        <pt x="504" y="335" on="1"/>
        <pt x="548" y="337" on="0"/>
        <pt x="594" y="337" on="1"/>
      </contour>
    </TTGlyph>
    <TTGlyph name="AE" xMin="5" yMin="-91" xMax="1286" yMax="703">
      <contour>
        <pt x="1285" y="352" on="1"/>
        <pt x="1286" y="347" on="0"/>
        <pt x="1286" y="342" on="1"/>
        <pt x="1286" y="329" on="0"/>
        <pt x="1276" y="319" on="1"/>
        <pt x="1261" y="305" on="0"/>
        <pt x="1216" y="286" on="0"/>
        <pt x="1168" y="271" on="0"/>
        <pt x="1155" y="262" on="1"/>
        <pt x="1066" y="251" on="0"/>
        <pt x="974" y="245" on="1"/>
        <pt x="912" y="241" on="0"/>
        <pt x="849" y="241" on="1"/>
        <pt x="818" y="241" on="0"/>
        <pt x="787" y="242" on="1"/>
        <pt x="787" y="209" on="0"/>
        <pt x="783" y="152" on="0"/>
        <pt x="778" y="98" on="0"/>
        <pt x="777" y="71" on="1"/>
        <pt x="776" y="59" on="0"/>
        <pt x="776" y="47" on="1"/>
        <pt x="776" y="32" on="0"/>
        <pt x="777" y="15" on="1"/>
        <pt x="802" y="14" on="0"/>
        <pt x="823" y="14" on="1"/>
        <pt x="845" y="14" on="1"/>
        <pt x="875" y="15" on="0"/>
        <pt x="932" y="19" on="0"/>
        <pt x="988" y="25" on="0"/>
        <pt x="1018" y="28" on="1"/>
        <pt x="1035" y="32" on="0"/>
        <pt x="1065" y="45" on="0"/>
        <pt x="1095" y="57" on="0"/>
        <pt x="1128" y="66" on="0"/>
        <pt x="1148" y="68" on="1"/>
        <pt x="1157" y="59" on="0"/>
        <pt x="1158" y="49" on="1"/>
        <pt x="1158" y="44" on="1"/>
        <pt x="1158" y="36" on="0"/>
        <pt x="1155" y="28" on="1"/>
        <pt x="1151" y="18" on="0"/>
        <pt x="1136" y="2" on="0"/>
        <pt x="1128" y="-2" on="1"/>
        <pt x="1040" y="-22" on="0"/>
        <pt x="939" y="-36" on="1"/>
        <pt x="868" y="-47" on="0"/>
        <pt x="788" y="-47" on="1"/>
        <pt x="755" y="-47" on="0"/>
        <pt x="720" y="-45" on="1"/>
        <pt x="708" y="-38" on="0"/>
        <pt x="705" y="-29" on="1"/>
        <pt x="703" y="-24" on="0"/>
        <pt x="703" y="-18" on="1"/>
        <pt x="703" y="-14" on="0"/>
        <pt x="704" y="-9" on="1"/>
        <pt x="706" y="1" on="0"/>
        <pt x="715" y="25" on="0"/>
        <pt x="717" y="38" on="1"/>
        <pt x="724" y="76" on="0"/>
        <pt x="724" y="119" on="1"/>
        <pt x="724" y="135" on="1"/>
        <pt x="723" y="157" on="0"/>
        <pt x="723" y="179" on="1"/>
        <pt x="723" y="209" on="0"/>
        <pt x="724" y="239" on="1"/>
        <pt x="649" y="234" on="0"/>
        <pt x="499" y="221" on="0"/>
        <pt x="355" y="197" on="0"/>
        <pt x="223" y="159" on="0"/>
        <pt x="166" y="128" on="1"/>
        <pt x="171" y="77" on="0"/>
        <pt x="186" y="-19" on="0"/>
        <pt x="206" y="-62" on="1"/>
        <pt x="205" y="-73" on="0"/>
        <pt x="190" y="-87" on="0"/>
        <pt x="181" y="-89" on="1"/>
        <pt x="177" y="-91" on="0"/>
        <pt x="174" y="-91" on="1"/>
        <pt x="168" y="-91" on="0"/>
        <pt x="163" y="-88" on="1"/>
        <pt x="154" y="-85" on="0"/>
        <pt x="149" y="-75" on="1"/>
        <pt x="146" y="-72" on="0"/>
        <pt x="146" y="-68" on="1"/>
        <pt x="146" y="-65" on="0"/>
        <pt x="147" y="-62" on="1"/>
        <pt x="150" y="-54" on="0"/>
        <pt x="152" y="-49" on="1"/>
        <pt x="141" y="-36" on="0"/>
        <pt x="132" y="1" on="0"/>
        <pt x="127" y="40" on="0"/>
        <pt x="121" y="76" on="0"/>
        <pt x="112" y="88" on="1"/>
        <pt x="98" y="87" on="0"/>
        <pt x="71" y="65" on="0"/>
        <pt x="44" y="47" on="0"/>
        <pt x="31" y="46" on="1"/>
        <pt x="30" y="45" on="0"/>
        <pt x="29" y="45" on="1"/>
        <pt x="17" y="45" on="0"/>
        <pt x="5" y="62" on="1"/>
        <pt x="12" y="79" on="0"/>
        <pt x="36" y="103" on="0"/>
        <pt x="65" y="123" on="0"/>
        <pt x="97" y="139" on="0"/>
        <pt x="112" y="148" on="1"/>
        <pt x="112" y="173" on="0"/>
        <pt x="120" y="219" on="0"/>
        <pt x="132" y="263" on="0"/>
        <pt x="146" y="307" on="0"/>
        <pt x="152" y="332" on="1"/>
        <pt x="158" y="355" on="0"/>
        <pt x="161" y="403" on="0"/>
        <pt x="172" y="426" on="1"/>
        <pt x="182" y="445" on="0"/>
        <pt x="197" y="475" on="0"/>
        <pt x="212" y="502" on="0"/>
        <pt x="228" y="526" on="0"/>
        <pt x="239" y="540" on="1"/>
        <pt x="266" y="574" on="0"/>
        <pt x="329" y="651" on="0"/>
        <pt x="366" y="673" on="1"/>
        <pt x="379" y="681" on="0"/>
        <pt x="421" y="693" on="0"/>
        <pt x="469" y="700" on="0"/>
        <pt x="493" y="702" on="1"/>
        <pt x="509" y="703" on="0"/>
        <pt x="523" y="703" on="1"/>
        <pt x="537" y="703" on="1"/>
        <pt x="563" y="702" on="0"/>
        <pt x="618" y="689" on="0"/>
        <pt x="667" y="663" on="0"/>
        <pt x="708" y="625" on="0"/>
        <pt x="720" y="600" on="1"/>
        <pt x="740" y="597" on="0"/>
        <pt x="761" y="597" on="1"/>
        <pt x="777" y="597" on="0"/>
        <pt x="794" y="599" on="1"/>
        <pt x="832" y="603" on="0"/>
        <pt x="910" y="617" on="0"/>
        <pt x="987" y="634" on="0"/>
        <pt x="1025" y="640" on="1"/>
        <pt x="1032" y="648" on="0"/>
        <pt x="1054" y="657" on="0"/>
        <pt x="1077" y="665" on="0"/>
        <pt x="1099" y="673" on="0"/>
        <pt x="1108" y="680" on="1"/>
        <pt x="1139" y="666" on="0"/>
        <pt x="1139" y="653" on="1"/>
        <pt x="1139" y="652" on="1"/>
        <pt x="1137" y="638" on="0"/>
        <pt x="1101" y="615" on="0"/>
        <pt x="1050" y="598" on="0"/>
        <pt x="1035" y="593" on="1"/>
        <pt x="976" y="580" on="0"/>
        <pt x="831" y="553" on="0"/>
        <pt x="757" y="546" on="1"/>
        <pt x="766" y="522" on="0"/>
        <pt x="778" y="462" on="0"/>
        <pt x="786" y="398" on="0"/>
        <pt x="787" y="365" on="1"/>
        <pt x="788" y="349" on="0"/>
        <pt x="788" y="333" on="1"/>
        <pt x="788" y="317" on="0"/>
        <pt x="787" y="302" on="1"/>
        <pt x="846" y="300" on="0"/>
        <pt x="902" y="299" on="1"/>
        <pt x="918" y="298" on="0"/>
        <pt x="935" y="298" on="1"/>
        <pt x="973" y="298" on="0"/>
        <pt x="1011" y="301" on="1"/>
        <pt x="1064" y="304" on="0"/>
        <pt x="1165" y="323" on="0"/>
        <pt x="1215" y="342" on="1"/>
        <pt x="1218" y="353" on="0"/>
        <pt x="1239" y="368" on="0"/>
        <pt x="1251" y="370" on="1"/>
        <pt x="1254" y="371" on="0"/>
        <pt x="1258" y="371" on="1"/>
        <pt x="1265" y="371" on="0"/>
        <pt x="1272" y="368" on="1"/>
        <pt x="1282" y="364" on="0"/>
      </contour>
      <contour>
        <pt x="731" y="299" on="1"/>
        <pt x="731" y="312" on="1"/>
        <pt x="731" y="352" on="0"/>
        <pt x="726" y="397" on="1"/>
        <pt x="720" y="449" on="0"/>
        <pt x="689" y="544" on="0"/>
        <pt x="637" y="620" on="0"/>
        <pt x="600" y="637" on="1"/>
        <pt x="566" y="652" on="0"/>
        <pt x="529" y="654" on="1"/>
        <pt x="517" y="654" on="1"/>
        <pt x="486" y="654" on="0"/>
        <pt x="458" y="648" on="1"/>
        <pt x="423" y="640" on="0"/>
        <pt x="364" y="610" on="0"/>
        <pt x="346" y="593" on="1"/>
        <pt x="310" y="559" on="0"/>
        <pt x="251" y="470" on="0"/>
        <pt x="206" y="367" on="0"/>
        <pt x="177" y="253" on="0"/>
        <pt x="172" y="195" on="1"/>
        <pt x="181" y="196" on="0"/>
        <pt x="207" y="201" on="0"/>
        <pt x="233" y="208" on="0"/>
        <pt x="258" y="219" on="0"/>
        <pt x="266" y="225" on="1"/>
        <pt x="317" y="239" on="0"/>
        <pt x="431" y="261" on="0"/>
        <pt x="550" y="279" on="0"/>
        <pt x="671" y="293" on="0"/>
      </contour>
    </TTGlyph>
    <TTGlyph name="Aacute" xMin="5" yMin="-14" xMax="787" yMax="981">
      <component glyphName="A" x="0" y="0" flags="0x204"/>
      <component glyphName="acute" x="82" y="307" flags="0x4"/>
    </TTGlyph>
    <TTGlyph name="Acircumflex" xMin="5" yMin="-14" xMax="787" yMax="999">
      <component glyphName="A" x="0" y="0" flags="0x204"/>
      <component glyphName="circumflex" x="61" y="317" flags="0x4"/>
    </TTGlyph>
    <TTGlyph name="Adieresis" xMin="5" yMin="-14" xMax="787" yMax="895">
      <component glyphName="A" x="0" y="0" flags="0x204"/>
      <component glyphName="dieresis" x="20" y="266" flags="0x4"/>
    </TTGlyph>
    <TTGlyph name="Agrave" xMin="5" yMin="-14" xMax="787" yMax="983">
      <component glyphName="A" x="0" y="0" flags="0x204"/>
      <component glyphName="grave" x="0" y="317" flags="0x4"/>
    </TTGlyph>
    <TTGlyph name="Aring" xMin="5" yMin="-14" xMax="787" yMax="898">
      <contour>
        <pt x="784" y="303" on="1"/>
        <pt x="787" y="297" on="0"/>
        <pt x="787" y="291" on="1"/>
        <pt x="787" y="286" on="0"/>
        <pt x="785" y="281" on="1"/>
        <pt x="780" y="269" on="0"/>
        <pt x="771" y="260" on="1"/>
        <pt x="764" y="259" on="0"/>
        <pt x="759" y="259" on="1"/>
        <pt x="751" y="259" on="0"/>
        <pt x="746" y="261" on="1"/>
        <pt x="735" y="263" on="0"/>
        <pt x="718" y="271" on="0"/>
        <pt x="700" y="279" on="0"/>
        <pt x="688" y="280" on="1"/>
        <pt x="680" y="239" on="0"/>
        <pt x="669" y="162" on="0"/>
        <pt x="656" y="89" on="0"/>
        <pt x="635" y="19" on="0"/>
        <pt x="617" y="-14" on="1"/>
        <pt x="612" y="-11" on="0"/>
        <pt x="607" y="-11" on="1"/>
        <pt x="603" y="-11" on="0"/>
        <pt x="600" y="-12" on="1"/>
        <pt x="596" y="-14" on="0"/>
        <pt x="592" y="-14" on="1"/>
        <pt x="587" y="-14" on="0"/>
        <pt x="581" y="-11" on="1"/>
        <pt x="571" y="0" on="0"/>
        <pt x="571" y="12" on="1"/>
        <pt x="571" y="15" on="1"/>
        <pt x="572" y="28" on="0"/>
        <pt x="584" y="57" on="0"/>
        <pt x="601" y="88" on="0"/>
        <pt x="604" y="103" on="1"/>
        <pt x="614" y="148" on="0"/>
        <pt x="621" y="240" on="0"/>
        <pt x="627" y="280" on="1"/>
        <pt x="587" y="285" on="0"/>
        <pt x="545" y="285" on="1"/>
        <pt x="531" y="285" on="0"/>
        <pt x="516" y="284" on="1"/>
        <pt x="458" y="282" on="0"/>
        <pt x="340" y="267" on="0"/>
        <pt x="225" y="242" on="0"/>
        <pt x="173" y="227" on="1"/>
        <pt x="177" y="188" on="0"/>
        <pt x="188" y="121" on="0"/>
        <pt x="199" y="83" on="1"/>
        <pt x="203" y="69" on="0"/>
        <pt x="218" y="37" on="0"/>
        <pt x="222" y="24" on="1"/>
        <pt x="223" y="18" on="0"/>
        <pt x="223" y="13" on="1"/>
        <pt x="223" y="6" on="0"/>
        <pt x="220" y="0" on="1"/>
        <pt x="215" y="-10" on="0"/>
        <pt x="196" y="-11" on="1"/>
        <pt x="193" y="-11" on="1"/>
        <pt x="184" y="-11" on="0"/>
        <pt x="177" y="-5" on="1"/>
        <pt x="169" y="2" on="0"/>
        <pt x="159" y="23" on="0"/>
        <pt x="157" y="36" on="1"/>
        <pt x="156" y="44" on="0"/>
        <pt x="156" y="51" on="1"/>
        <pt x="156" y="59" on="1"/>
        <pt x="147" y="74" on="0"/>
        <pt x="134" y="111" on="0"/>
        <pt x="125" y="151" on="0"/>
        <pt x="120" y="192" on="0"/>
        <pt x="119" y="210" on="1"/>
        <pt x="95" y="202" on="0"/>
        <pt x="51" y="184" on="0"/>
        <pt x="32" y="170" on="1"/>
        <pt x="11" y="179" on="0"/>
        <pt x="7" y="189" on="1"/>
        <pt x="5" y="192" on="0"/>
        <pt x="5" y="196" on="1"/>
        <pt x="5" y="202" on="0"/>
        <pt x="9" y="208" on="1"/>
        <pt x="15" y="217" on="0"/>
        <pt x="43" y="234" on="0"/>
        <pt x="75" y="249" on="0"/>
        <pt x="105" y="262" on="0"/>
        <pt x="113" y="267" on="1"/>
        <pt x="111" y="288" on="0"/>
        <pt x="111" y="308" on="1"/>
        <pt x="111" y="348" on="0"/>
        <pt x="118" y="387" on="1"/>
        <pt x="128" y="445" on="0"/>
        <pt x="171" y="549" on="0"/>
        <pt x="233" y="640" on="0"/>
        <pt x="270" y="678" on="1"/>
        <pt x="295" y="704" on="0"/>
        <pt x="352" y="732" on="0"/>
        <pt x="387" y="740" on="1"/>
        <pt x="369" y="748" on="0"/>
        <pt x="339" y="779" on="0"/>
        <pt x="336" y="790" on="1"/>
        <pt x="333" y="801" on="0"/>
        <pt x="333" y="811" on="1"/>
        <pt x="333" y="819" on="0"/>
        <pt x="335" y="827" on="1"/>
        <pt x="339" y="845" on="0"/>
        <pt x="361" y="874" on="0"/>
        <pt x="394" y="894" on="0"/>
        <pt x="413" y="897" on="1"/>
        <pt x="421" y="898" on="0"/>
        <pt x="429" y="898" on="1"/>
        <pt x="441" y="898" on="0"/>
        <pt x="452" y="896" on="1"/>
        <pt x="471" y="891" on="0"/>
        <pt x="501" y="870" on="0"/>
        <pt x="510" y="854" on="1"/>
        <pt x="517" y="840" on="0"/>
        <pt x="517" y="821" on="1"/>
        <pt x="517" y="817" on="1"/>
        <pt x="515" y="795" on="0"/>
        <pt x="481" y="759" on="0"/>
        <pt x="459" y="748" on="1"/>
        <pt x="476" y="749" on="0"/>
        <pt x="493" y="749" on="1"/>
        <pt x="511" y="749" on="0"/>
        <pt x="530" y="748" on="1"/>
        <pt x="572" y="716" on="0"/>
        <pt x="627" y="627" on="0"/>
        <pt x="661" y="522" on="0"/>
        <pt x="679" y="405" on="0"/>
        <pt x="684" y="344" on="1"/>
        <pt x="694" y="336" on="0"/>
        <pt x="723" y="330" on="0"/>
        <pt x="752" y="324" on="0"/>
        <pt x="778" y="314" on="0"/>
      </contour>
      <contour>
        <pt x="470" y="820" on="1"/>
        <pt x="470" y="838" on="0"/>
        <pt x="456" y="847" on="1"/>
        <pt x="443" y="854" on="0"/>
        <pt x="428" y="854" on="1"/>
        <pt x="425" y="854" on="1"/>
        <pt x="407" y="853" on="0"/>
        <pt x="393" y="842" on="1"/>
        <pt x="380" y="832" on="0"/>
        <pt x="380" y="813" on="1"/>
        <pt x="380" y="810" on="1"/>
        <pt x="385" y="793" on="0"/>
        <pt x="400" y="787" on="1"/>
        <pt x="409" y="783" on="0"/>
        <pt x="419" y="783" on="1"/>
        <pt x="424" y="783" on="0"/>
        <pt x="430" y="784" on="1"/>
        <pt x="445" y="787" on="0"/>
        <pt x="470" y="806" on="0"/>
      </contour>
      <contour>
        <pt x="621" y="337" on="1"/>
        <pt x="625" y="352" on="0"/>
        <pt x="625" y="367" on="1"/>
        <pt x="625" y="374" on="1"/>
        <pt x="624" y="392" on="0"/>
        <pt x="617" y="429" on="0"/>
        <pt x="607" y="466" on="0"/>
        <pt x="604" y="484" on="1"/>
        <pt x="603" y="489" on="0"/>
        <pt x="603" y="494" on="1"/>
        <pt x="603" y="499" on="0"/>
        <pt x="604" y="504" on="1"/>
        <pt x="605" y="509" on="0"/>
        <pt x="605" y="514" on="1"/>
        <pt x="605" y="519" on="0"/>
        <pt x="604" y="524" on="1"/>
        <pt x="597" y="556" on="0"/>
        <pt x="572" y="619" on="0"/>
        <pt x="534" y="669" on="0"/>
        <pt x="508" y="684" on="1"/>
        <pt x="483" y="698" on="0"/>
        <pt x="451" y="698" on="1"/>
        <pt x="447" y="698" on="1"/>
        <pt x="390" y="696" on="0"/>
        <pt x="297" y="636" on="0"/>
        <pt x="263" y="598" on="1"/>
        <pt x="244" y="566" on="0"/>
        <pt x="206" y="499" on="0"/>
        <pt x="178" y="422" on="0"/>
        <pt x="171" y="378" on="1"/>
        <pt x="167" y="352" on="0"/>
        <pt x="167" y="324" on="1"/>
        <pt x="167" y="304" on="0"/>
        <pt x="169" y="283" on="1"/>
        <pt x="229" y="296" on="0"/>
        <pt x="339" y="317" on="0"/>
        <pt x="448" y="331" on="0"/>
        <pt x="504" y="335" on="1"/>
        <pt x="548" y="337" on="0"/>
        <pt x="594" y="337" on="1"/>
      </contour>
    </TTGlyph>
    <TTGlyph name="Atilde" xMin="5" yMin="-14" xMax="787" yMax="939">
      <component glyphName="A" x="0" y="0" flags="0x204"/>
      <component glyphName="tilde" x="20" y="276" flags="0x4"/>
    </TTGlyph>
    <TTGlyph name="B" xMin="61" yMin="-89" xMax="723" yMax="728">
      <contour>
        <pt x="718" y="566" on="1"/>
        <pt x="723" y="548" on="0"/>
        <pt x="723" y="526" on="1"/>
        <pt x="723" y="513" on="0"/>
        <pt x="721" y="499" on="1"/>
        <pt x="716" y="462" on="0"/>
        <pt x="708" y="433" on="1"/>
        <pt x="695" y="389" on="0"/>
        <pt x="640" y="313" on="0"/>
        <pt x="621" y="282" on="1"/>
        <pt x="631" y="263" on="0"/>
        <pt x="650" y="225" on="0"/>
        <pt x="665" y="183" on="0"/>
        <pt x="668" y="161" on="1"/>
        <pt x="670" y="149" on="0"/>
        <pt x="670" y="137" on="1"/>
        <pt x="670" y="125" on="0"/>
        <pt x="668" y="112" on="1"/>
        <pt x="664" y="82" on="0"/>
        <pt x="640" y="31" on="0"/>
        <pt x="605" y="-10" on="0"/>
        <pt x="564" y="-43" on="0"/>
        <pt x="544" y="-55" on="1"/>
        <pt x="523" y="-55" on="0"/>
        <pt x="470" y="-54" on="0"/>
        <pt x="419" y="-47" on="0"/>
        <pt x="374" y="-34" on="0"/>
        <pt x="360" y="-22" on="1"/>
        <pt x="351" y="-14" on="0"/>
        <pt x="347" y="-2" on="1"/>
        <pt x="345" y="5" on="0"/>
        <pt x="345" y="11" on="1"/>
        <pt x="345" y="15" on="0"/>
        <pt x="346" y="19" on="1"/>
        <pt x="348" y="29" on="0"/>
        <pt x="357" y="35" on="1"/>
        <pt x="363" y="39" on="0"/>
        <pt x="373" y="39" on="1"/>
        <pt x="378" y="39" on="0"/>
        <pt x="384" y="38" on="1"/>
        <pt x="390" y="37" on="0"/>
        <pt x="405" y="25" on="0"/>
        <pt x="422" y="12" on="0"/>
        <pt x="439" y="-1" on="0"/>
        <pt x="447" y="-2" on="1"/>
        <pt x="494" y="0" on="0"/>
        <pt x="565" y="15" on="0"/>
        <pt x="588" y="48" on="1"/>
        <pt x="598" y="69" on="0"/>
        <pt x="604" y="96" on="1"/>
        <pt x="608" y="119" on="0"/>
        <pt x="608" y="142" on="1"/>
        <pt x="608" y="150" on="1"/>
        <pt x="607" y="177" on="0"/>
        <pt x="590" y="226" on="0"/>
        <pt x="574" y="242" on="1"/>
        <pt x="557" y="236" on="0"/>
        <pt x="513" y="212" on="0"/>
        <pt x="464" y="193" on="0"/>
        <pt x="440" y="191" on="1"/>
        <pt x="436" y="190" on="0"/>
        <pt x="432" y="190" on="1"/>
        <pt x="412" y="190" on="0"/>
        <pt x="394" y="202" on="1"/>
        <pt x="388" y="206" on="0"/>
        <pt x="377" y="222" on="0"/>
        <pt x="369" y="243" on="0"/>
        <pt x="368" y="255" on="1"/>
        <pt x="368" y="260" on="1"/>
        <pt x="368" y="269" on="0"/>
        <pt x="370" y="276" on="1"/>
        <pt x="378" y="299" on="0"/>
        <pt x="420" y="319" on="0"/>
        <pt x="448" y="322" on="1"/>
        <pt x="460" y="323" on="0"/>
        <pt x="472" y="323" on="1"/>
        <pt x="489" y="323" on="0"/>
        <pt x="507" y="321" on="1"/>
        <pt x="537" y="317" on="0"/>
        <pt x="564" y="312" on="1"/>
        <pt x="611" y="347" on="0"/>
        <pt x="659" y="458" on="0"/>
        <pt x="665" y="533" on="1"/>
        <pt x="654" y="562" on="0"/>
        <pt x="620" y="609" on="0"/>
        <pt x="604" y="633" on="1"/>
        <pt x="572" y="660" on="0"/>
        <pt x="528" y="671" on="1"/>
        <pt x="490" y="679" on="0"/>
        <pt x="451" y="679" on="1"/>
        <pt x="437" y="679" on="1"/>
        <pt x="390" y="677" on="0"/>
        <pt x="306" y="647" on="0"/>
        <pt x="280" y="623" on="1"/>
        <pt x="269" y="613" on="0"/>
        <pt x="239" y="577" on="0"/>
        <pt x="237" y="563" on="1"/>
        <pt x="237" y="557" on="1"/>
        <pt x="237" y="543" on="0"/>
        <pt x="244" y="522" on="1"/>
        <pt x="252" y="495" on="0"/>
        <pt x="257" y="469" on="1"/>
        <pt x="267" y="422" on="0"/>
        <pt x="289" y="311" on="0"/>
        <pt x="290" y="249" on="1"/>
        <pt x="291" y="209" on="0"/>
        <pt x="292" y="167" on="1"/>
        <pt x="292" y="157" on="1"/>
        <pt x="292" y="119" on="0"/>
        <pt x="288" y="83" on="1"/>
        <pt x="284" y="41" on="0"/>
        <pt x="264" y="-38" on="0"/>
        <pt x="243" y="-72" on="1"/>
        <pt x="216" y="-89" on="0"/>
        <pt x="195" y="-89" on="1"/>
        <pt x="190" y="-89" on="0"/>
        <pt x="186" y="-88" on="1"/>
        <pt x="161" y="-84" on="0"/>
        <pt x="123" y="-45" on="0"/>
        <pt x="97" y="13" on="0"/>
        <pt x="90" y="42" on="1"/>
        <pt x="82" y="68" on="0"/>
        <pt x="67" y="128" on="0"/>
        <pt x="63" y="155" on="1"/>
        <pt x="61" y="168" on="0"/>
        <pt x="61" y="180" on="1"/>
        <pt x="61" y="187" on="0"/>
        <pt x="62" y="193" on="1"/>
        <pt x="63" y="212" on="0"/>
        <pt x="69" y="249" on="0"/>
        <pt x="75" y="287" on="0"/>
        <pt x="76" y="306" on="1"/>
        <pt x="78" y="334" on="0"/>
        <pt x="92" y="393" on="0"/>
        <pt x="110" y="447" on="0"/>
        <pt x="128" y="495" on="0"/>
        <pt x="136" y="513" on="1"/>
        <pt x="147" y="523" on="0"/>
        <pt x="167" y="542" on="0"/>
        <pt x="173" y="556" on="1"/>
        <pt x="173" y="578" on="0"/>
        <pt x="155" y="605" on="0"/>
        <pt x="134" y="628" on="0"/>
        <pt x="113" y="652" on="0"/>
        <pt x="110" y="670" on="1"/>
        <pt x="122" y="680" on="0"/>
        <pt x="133" y="680" on="1"/>
        <pt x="138" y="680" on="1"/>
        <pt x="151" y="677" on="0"/>
        <pt x="176" y="656" on="0"/>
        <pt x="198" y="629" on="0"/>
        <pt x="207" y="620" on="1"/>
        <pt x="240" y="647" on="0"/>
        <pt x="310" y="699" on="0"/>
        <pt x="350" y="720" on="1"/>
        <pt x="388" y="728" on="0"/>
        <pt x="432" y="728" on="1"/>
        <pt x="445" y="728" on="0"/>
        <pt x="459" y="727" on="1"/>
        <pt x="519" y="724" on="0"/>
        <pt x="574" y="710" on="1"/>
        <pt x="594" y="696" on="0"/>
        <pt x="644" y="673" on="0"/>
        <pt x="661" y="653" on="1"/>
        <pt x="668" y="645" on="0"/>
        <pt x="686" y="623" on="0"/>
        <pt x="703" y="600" on="0"/>
        <pt x="715" y="576" on="0"/>
      </contour>
      <contour>
        <pt x="501" y="272" on="1"/>
        <pt x="476" y="272" on="1"/>
        <pt x="462" y="273" on="0"/>
        <pt x="450" y="273" on="1"/>
        <pt x="438" y="273" on="0"/>
        <pt x="419" y="266" on="0"/>
        <pt x="417" y="256" on="1"/>
        <pt x="424" y="246" on="0"/>
        <pt x="438" y="244" on="1"/>
        <pt x="443" y="243" on="0"/>
        <pt x="448" y="243" on="1"/>
        <pt x="457" y="243" on="0"/>
        <pt x="466" y="246" on="1"/>
        <pt x="480" y="249" on="0"/>
        <pt x="501" y="263" on="0"/>
      </contour>
      <contour>
        <pt x="197" y="-39" on="1"/>
        <pt x="223" y="17" on="0"/>
        <pt x="232" y="87" on="1"/>
        <pt x="238" y="136" on="0"/>
        <pt x="238" y="187" on="1"/>
        <pt x="238" y="208" on="0"/>
        <pt x="237" y="230" on="1"/>
        <pt x="233" y="303" on="0"/>
        <pt x="207" y="446" on="0"/>
        <pt x="190" y="506" on="1"/>
        <pt x="166" y="466" on="0"/>
        <pt x="130" y="360" on="0"/>
        <pt x="122" y="302" on="1"/>
        <pt x="114" y="252" on="0"/>
        <pt x="114" y="201" on="1"/>
        <pt x="114" y="192" on="0"/>
        <pt x="115" y="183" on="1"/>
        <pt x="116" y="122" on="0"/>
        <pt x="130" y="68" on="1"/>
        <pt x="134" y="53" on="0"/>
        <pt x="145" y="21" on="0"/>
        <pt x="161" y="-9" on="0"/>
        <pt x="182" y="-33" on="0"/>
      </contour>
    </TTGlyph>
    <TTGlyph name="C" xMin="36" yMin="-46" xMax="744" yMax="695">
      <contour>
        <pt x="731" y="556" on="1"/>
        <pt x="744" y="527" on="0"/>
        <pt x="744" y="502" on="1"/>
        <pt x="744" y="494" on="0"/>
        <pt x="743" y="486" on="1"/>
        <pt x="737" y="454" on="0"/>
        <pt x="697" y="403" on="0"/>
        <pt x="635" y="366" on="0"/>
        <pt x="601" y="355" on="1"/>
        <pt x="579" y="357" on="0"/>
        <pt x="549" y="370" on="0"/>
        <pt x="527" y="372" on="1"/>
        <pt x="522" y="380" on="0"/>
        <pt x="508" y="390" on="0"/>
        <pt x="493" y="398" on="0"/>
        <pt x="478" y="407" on="0"/>
        <pt x="474" y="415" on="1"/>
        <pt x="472" y="430" on="0"/>
        <pt x="470" y="448" on="1"/>
        <pt x="468" y="459" on="0"/>
        <pt x="468" y="470" on="1"/>
        <pt x="468" y="476" on="0"/>
        <pt x="469" y="482" on="1"/>
        <pt x="470" y="497" on="0"/>
        <pt x="480" y="506" on="1"/>
        <pt x="488" y="513" on="0"/>
        <pt x="503" y="513" on="1"/>
        <pt x="508" y="513" on="0"/>
        <pt x="514" y="512" on="1"/>
        <pt x="525" y="498" on="0"/>
        <pt x="527" y="484" on="1"/>
        <pt x="528" y="477" on="0"/>
        <pt x="528" y="468" on="1"/>
        <pt x="528" y="458" on="0"/>
        <pt x="527" y="446" on="1"/>
        <pt x="541" y="435" on="0"/>
        <pt x="558" y="423" on="1"/>
        <pt x="574" y="412" on="0"/>
        <pt x="591" y="412" on="1"/>
        <pt x="594" y="412" on="1"/>
        <pt x="599" y="412" on="0"/>
        <pt x="628" y="425" on="0"/>
        <pt x="661" y="444" on="0"/>
        <pt x="688" y="467" on="0"/>
        <pt x="691" y="476" on="1"/>
        <pt x="693" y="482" on="0"/>
        <pt x="693" y="489" on="1"/>
        <pt x="693" y="498" on="0"/>
        <pt x="689" y="507" on="1"/>
        <pt x="684" y="518" on="0"/>
        <pt x="684" y="531" on="1"/>
        <pt x="684" y="539" on="1"/>
        <pt x="673" y="544" on="0"/>
        <pt x="654" y="564" on="0"/>
        <pt x="634" y="587" on="0"/>
        <pt x="614" y="607" on="0"/>
        <pt x="601" y="613" on="1"/>
        <pt x="593" y="616" on="0"/>
        <pt x="581" y="616" on="1"/>
        <pt x="568" y="616" on="0"/>
        <pt x="557" y="619" on="1"/>
        <pt x="544" y="624" on="0"/>
        <pt x="521" y="638" on="0"/>
        <pt x="510" y="639" on="1"/>
        <pt x="500" y="641" on="0"/>
        <pt x="490" y="641" on="1"/>
        <pt x="480" y="641" on="0"/>
        <pt x="471" y="639" on="1"/>
        <pt x="451" y="636" on="0"/>
        <pt x="413" y="627" on="0"/>
        <pt x="374" y="619" on="0"/>
        <pt x="353" y="619" on="1"/>
        <pt x="285" y="590" on="0"/>
        <pt x="167" y="506" on="0"/>
        <pt x="129" y="439" on="1"/>
        <pt x="114" y="412" on="0"/>
        <pt x="96" y="344" on="0"/>
        <pt x="93" y="309" on="1"/>
        <pt x="91" y="289" on="0"/>
        <pt x="91" y="271" on="1"/>
        <pt x="91" y="255" on="0"/>
        <pt x="92" y="240" on="1"/>
        <pt x="95" y="206" on="0"/>
        <pt x="106" y="181" on="1"/>
        <pt x="125" y="135" on="0"/>
        <pt x="201" y="50" on="0"/>
        <pt x="256" y="31" on="1"/>
        <pt x="281" y="22" on="0"/>
        <pt x="355" y="11" on="0"/>
        <pt x="397" y="9" on="1"/>
        <pt x="417" y="8" on="0"/>
        <pt x="438" y="8" on="1"/>
        <pt x="459" y="8" on="0"/>
        <pt x="479" y="9" on="1"/>
        <pt x="520" y="11" on="0"/>
        <pt x="554" y="18" on="1"/>
        <pt x="566" y="21" on="0"/>
        <pt x="596" y="27" on="0"/>
        <pt x="626" y="36" on="0"/>
        <pt x="652" y="45" on="0"/>
        <pt x="661" y="51" on="1"/>
        <pt x="667" y="55" on="0"/>
        <pt x="677" y="68" on="0"/>
        <pt x="689" y="80" on="0"/>
        <pt x="697" y="84" on="1"/>
        <pt x="701" y="86" on="0"/>
        <pt x="707" y="86" on="1"/>
        <pt x="710" y="86" on="0"/>
        <pt x="714" y="85" on="1"/>
        <pt x="730" y="80" on="0"/>
        <pt x="733" y="63" on="1"/>
        <pt x="734" y="58" on="0"/>
        <pt x="734" y="54" on="1"/>
        <pt x="734" y="41" on="0"/>
        <pt x="728" y="28" on="1"/>
        <pt x="684" y="2" on="0"/>
        <pt x="570" y="-34" on="0"/>
        <pt x="506" y="-41" on="1"/>
        <pt x="463" y="-46" on="0"/>
        <pt x="420" y="-46" on="1"/>
        <pt x="397" y="-46" on="0"/>
        <pt x="373" y="-45" on="1"/>
        <pt x="305" y="-41" on="0"/>
        <pt x="240" y="-22" on="1"/>
        <pt x="184" y="-1" on="0"/>
        <pt x="97" y="76" on="0"/>
        <pt x="44" y="182" on="0"/>
        <pt x="38" y="249" on="1"/>
        <pt x="36" y="266" on="0"/>
        <pt x="36" y="285" on="1"/>
        <pt x="36" y="335" on="0"/>
        <pt x="49" y="392" on="1"/>
        <pt x="81" y="463" on="0"/>
        <pt x="169" y="587" on="0"/>
        <pt x="240" y="626" on="1"/>
        <pt x="291" y="654" on="0"/>
        <pt x="398" y="681" on="0"/>
        <pt x="467" y="693" on="1"/>
        <pt x="479" y="695" on="0"/>
        <pt x="491" y="695" on="1"/>
        <pt x="502" y="695" on="0"/>
        <pt x="513" y="693" on="1"/>
        <pt x="535" y="689" on="0"/>
        <pt x="578" y="674" on="0"/>
        <pt x="621" y="657" on="0"/>
        <pt x="644" y="653" on="1"/>
        <pt x="654" y="638" on="0"/>
        <pt x="679" y="616" on="0"/>
        <pt x="703" y="595" on="0"/>
        <pt x="724" y="571" on="0"/>
      </contour>
    </TTGlyph>
    <TTGlyph name="Ccedilla" xMin="36" yMin="-273" xMax="744" yMax="727">
      <contour>
        <pt x="744" y="526" on="1"/>
        <pt x="744" y="498" on="0"/>
        <pt x="708" y="443" on="0"/>
        <pt x="688" y="429" on="1"/>
        <pt x="668" y="415" on="0"/>
        <pt x="625" y="403" on="0"/>
        <pt x="601" y="389" on="1"/>
        <pt x="579" y="391" on="0"/>
        <pt x="549" y="404" on="0"/>
        <pt x="527" y="406" on="1"/>
        <pt x="518" y="420" on="0"/>
        <pt x="486" y="435" on="0"/>
        <pt x="474" y="446" on="1"/>
        <pt x="472" y="460" on="0"/>
        <pt x="468" y="488" on="0"/>
        <pt x="468" y="501" on="1"/>
        <pt x="468" y="514" on="0"/>
        <pt x="475" y="537" on="0"/>
        <pt x="484" y="546" on="1"/>
        <pt x="514" y="546" on="1"/>
        <pt x="525" y="532" on="0"/>
        <pt x="527" y="518" on="1"/>
        <pt x="528" y="511" on="0"/>
        <pt x="528" y="501" on="1"/>
        <pt x="528" y="492" on="0"/>
        <pt x="527" y="479" on="1"/>
        <pt x="540" y="469" on="0"/>
        <pt x="571" y="446" on="0"/>
        <pt x="591" y="446" on="1"/>
        <pt x="596" y="446" on="0"/>
        <pt x="626" y="458" on="0"/>
        <pt x="660" y="477" on="0"/>
        <pt x="688" y="500" on="0"/>
        <pt x="691" y="510" on="1"/>
        <pt x="692" y="516" on="0"/>
        <pt x="692" y="521" on="1"/>
        <pt x="692" y="527" on="1"/>
        <pt x="691" y="534" on="0"/>
        <pt x="686" y="548" on="0"/>
        <pt x="685" y="556" on="1"/>
        <pt x="684" y="561" on="0"/>
        <pt x="684" y="566" on="1"/>
        <pt x="684" y="573" on="1"/>
        <pt x="673" y="578" on="0"/>
        <pt x="654" y="598" on="0"/>
        <pt x="635" y="620" on="0"/>
        <pt x="614" y="641" on="0"/>
        <pt x="601" y="647" on="1"/>
        <pt x="593" y="650" on="0"/>
        <pt x="581" y="650" on="1"/>
        <pt x="568" y="650" on="0"/>
        <pt x="557" y="653" on="1"/>
        <pt x="543" y="658" on="0"/>
        <pt x="519" y="672" on="0"/>
        <pt x="507" y="673" on="1"/>
        <pt x="499" y="674" on="0"/>
        <pt x="491" y="674" on="1"/>
        <pt x="479" y="674" on="0"/>
        <pt x="468" y="672" on="1"/>
        <pt x="449" y="669" on="0"/>
        <pt x="412" y="661" on="0"/>
        <pt x="373" y="653" on="0"/>
        <pt x="353" y="653" on="1"/>
        <pt x="335" y="642" on="0"/>
        <pt x="296" y="624" on="0"/>
        <pt x="256" y="605" on="0"/>
        <pt x="217" y="582" on="0"/>
        <pt x="200" y="566" on="1"/>
        <pt x="174" y="544" on="0"/>
        <pt x="134" y="481" on="0"/>
        <pt x="105" y="409" on="0"/>
        <pt x="89" y="334" on="0"/>
        <pt x="89" y="299" on="1"/>
        <pt x="89" y="253" on="0"/>
        <pt x="122" y="190" on="0"/>
        <pt x="143" y="159" on="1"/>
        <pt x="154" y="142" on="0"/>
        <pt x="175" y="114" on="0"/>
        <pt x="201" y="92" on="0"/>
        <pt x="233" y="73" on="0"/>
        <pt x="256" y="65" on="1"/>
        <pt x="302" y="49" on="0"/>
        <pt x="356" y="44" on="1"/>
        <pt x="388" y="41" on="0"/>
        <pt x="420" y="41" on="1"/>
        <pt x="442" y="41" on="0"/>
        <pt x="465" y="43" on="1"/>
        <pt x="519" y="46" on="0"/>
        <pt x="623" y="68" on="0"/>
        <pt x="664" y="85" on="1"/>
        <pt x="672" y="91" on="0"/>
        <pt x="680" y="109" on="0"/>
        <pt x="688" y="115" on="1"/>
        <pt x="696" y="116" on="0"/>
        <pt x="703" y="118" on="1"/>
        <pt x="707" y="119" on="0"/>
        <pt x="711" y="119" on="1"/>
        <pt x="716" y="119" on="0"/>
        <pt x="721" y="118" on="1"/>
        <pt x="731" y="107" on="0"/>
        <pt x="733" y="92" on="1"/>
        <pt x="733" y="85" on="1"/>
        <pt x="733" y="74" on="0"/>
        <pt x="728" y="62" on="1"/>
        <pt x="704" y="48" on="0"/>
        <pt x="644" y="25" on="0"/>
        <pt x="578" y="5" on="0"/>
        <pt x="508" y="-12" on="0"/>
        <pt x="474" y="-19" on="1"/>
        <pt x="453" y="-31" on="0"/>
        <pt x="447" y="-59" on="1"/>
        <pt x="454" y="-61" on="0"/>
        <pt x="460" y="-61" on="1"/>
        <pt x="466" y="-61" on="0"/>
        <pt x="477" y="-60" on="0"/>
        <pt x="483" y="-60" on="1"/>
        <pt x="489" y="-60" on="0"/>
        <pt x="497" y="-62" on="1"/>
        <pt x="534" y="-71" on="0"/>
        <pt x="550" y="-98" on="1"/>
        <pt x="563" y="-122" on="0"/>
        <pt x="563" y="-149" on="1"/>
        <pt x="563" y="-156" on="1"/>
        <pt x="561" y="-188" on="0"/>
        <pt x="526" y="-246" on="0"/>
        <pt x="497" y="-259" on="1"/>
        <pt x="471" y="-262" on="0"/>
        <pt x="426" y="-268" on="0"/>
        <pt x="400" y="-273" on="1"/>
        <pt x="388" y="-268" on="0"/>
        <pt x="361" y="-253" on="0"/>
        <pt x="342" y="-233" on="0"/>
        <pt x="340" y="-220" on="1"/>
        <pt x="339" y="-217" on="0"/>
        <pt x="339" y="-215" on="1"/>
        <pt x="339" y="-204" on="0"/>
        <pt x="347" y="-192" on="1"/>
        <pt x="355" y="-190" on="0"/>
        <pt x="364" y="-190" on="1"/>
        <pt x="374" y="-190" on="0"/>
        <pt x="384" y="-193" on="1"/>
        <pt x="402" y="-198" on="0"/>
        <pt x="413" y="-209" on="1"/>
        <pt x="421" y="-209" on="1"/>
        <pt x="439" y="-209" on="0"/>
        <pt x="457" y="-201" on="1"/>
        <pt x="479" y="-192" on="0"/>
        <pt x="491" y="-177" on="1"/>
        <pt x="501" y="-165" on="0"/>
        <pt x="501" y="-151" on="1"/>
        <pt x="501" y="-147" on="1"/>
        <pt x="499" y="-131" on="0"/>
        <pt x="474" y="-119" on="1"/>
        <pt x="457" y="-119" on="0"/>
        <pt x="433" y="-127" on="0"/>
        <pt x="411" y="-138" on="0"/>
        <pt x="388" y="-148" on="0"/>
        <pt x="373" y="-149" on="1"/>
        <pt x="357" y="-134" on="0"/>
        <pt x="357" y="-120" on="1"/>
        <pt x="357" y="-119" on="0"/>
        <pt x="358" y="-117" on="1"/>
        <pt x="359" y="-102" on="0"/>
        <pt x="377" y="-70" on="0"/>
        <pt x="398" y="-38" on="0"/>
        <pt x="400" y="-22" on="1"/>
        <pt x="365" y="-8" on="0"/>
        <pt x="282" y="5" on="0"/>
        <pt x="240" y="11" on="1"/>
        <pt x="184" y="33" on="0"/>
        <pt x="97" y="110" on="0"/>
        <pt x="44" y="216" on="0"/>
        <pt x="38" y="283" on="1"/>
        <pt x="36" y="300" on="0"/>
        <pt x="36" y="319" on="1"/>
        <pt x="36" y="369" on="0"/>
        <pt x="49" y="426" on="1"/>
        <pt x="65" y="461" on="0"/>
        <pt x="101" y="528" on="0"/>
        <pt x="147" y="588" on="0"/>
        <pt x="204" y="640" on="0"/>
        <pt x="240" y="660" on="1"/>
        <pt x="282" y="683" on="0"/>
        <pt x="375" y="712" on="0"/>
        <pt x="434" y="723" on="1"/>
        <pt x="455" y="727" on="0"/>
        <pt x="475" y="727" on="1"/>
        <pt x="491" y="727" on="1"/>
        <pt x="518" y="724" on="0"/>
        <pt x="569" y="712" on="0"/>
        <pt x="618" y="694" on="0"/>
        <pt x="644" y="687" on="1"/>
        <pt x="661" y="670" on="0"/>
        <pt x="697" y="634" on="0"/>
        <pt x="726" y="595" on="0"/>
        <pt x="736" y="573" on="1"/>
        <pt x="744" y="553" on="0"/>
        <pt x="744" y="531" on="1"/>
      </contour>
    </TTGlyph>
    <TTGlyph name="D" xMin="41" yMin="-105" xMax="744" yMax="771">
      <contour>
        <pt x="743" y="281" on="1"/>
        <pt x="740" y="244" on="0"/>
        <pt x="716" y="179" on="0"/>
        <pt x="681" y="121" on="0"/>
        <pt x="641" y="70" on="0"/>
        <pt x="623" y="47" on="1"/>
        <pt x="552" y="3" on="0"/>
        <pt x="381" y="-66" on="0"/>
        <pt x="282" y="-73" on="1"/>
        <pt x="280" y="-87" on="0"/>
        <pt x="258" y="-104" on="0"/>
        <pt x="245" y="-105" on="1"/>
        <pt x="242" y="-105" on="1"/>
        <pt x="231" y="-105" on="0"/>
        <pt x="222" y="-98" on="1"/>
        <pt x="212" y="-91" on="0"/>
        <pt x="212" y="-73" on="1"/>
        <pt x="200" y="-69" on="0"/>
        <pt x="166" y="-59" on="0"/>
        <pt x="131" y="-47" on="0"/>
        <pt x="101" y="-32" on="0"/>
        <pt x="93" y="-22" on="1"/>
        <pt x="87" y="-15" on="0"/>
        <pt x="87" y="-6" on="1"/>
        <pt x="87" y="-3" on="0"/>
        <pt x="88" y="0" on="1"/>
        <pt x="90" y="12" on="0"/>
        <pt x="108" y="27" on="1"/>
        <pt x="122" y="26" on="0"/>
        <pt x="143" y="17" on="0"/>
        <pt x="163" y="7" on="0"/>
        <pt x="184" y="-2" on="0"/>
        <pt x="198" y="-3" on="1"/>
        <pt x="198" y="16" on="1"/>
        <pt x="198" y="48" on="0"/>
        <pt x="196" y="82" on="1"/>
        <pt x="192" y="124" on="0"/>
        <pt x="182" y="210" on="0"/>
        <pt x="178" y="254" on="1"/>
        <pt x="175" y="288" on="0"/>
        <pt x="175" y="323" on="1"/>
        <pt x="175" y="341" on="1"/>
        <pt x="177" y="416" on="0"/>
        <pt x="190" y="556" on="0"/>
        <pt x="198" y="622" on="1"/>
        <pt x="193" y="622" on="1"/>
        <pt x="177" y="622" on="0"/>
        <pt x="161" y="617" on="1"/>
        <pt x="141" y="611" on="0"/>
        <pt x="102" y="598" on="0"/>
        <pt x="83" y="594" on="1"/>
        <pt x="74" y="592" on="0"/>
        <pt x="66" y="592" on="1"/>
        <pt x="55" y="592" on="0"/>
        <pt x="44" y="595" on="1"/>
        <pt x="41" y="603" on="0"/>
        <pt x="41" y="613" on="1"/>
        <pt x="41" y="619" on="1"/>
        <pt x="42" y="632" on="0"/>
        <pt x="48" y="639" on="1"/>
        <pt x="69" y="642" on="0"/>
        <pt x="107" y="654" on="0"/>
        <pt x="143" y="666" on="0"/>
        <pt x="182" y="677" on="0"/>
        <pt x="205" y="679" on="1"/>
        <pt x="215" y="685" on="0"/>
        <pt x="223" y="710" on="0"/>
        <pt x="227" y="738" on="0"/>
        <pt x="234" y="763" on="0"/>
        <pt x="245" y="769" on="1"/>
        <pt x="251" y="771" on="0"/>
        <pt x="256" y="771" on="1"/>
        <pt x="264" y="771" on="0"/>
        <pt x="269" y="767" on="1"/>
        <pt x="278" y="761" on="0"/>
        <pt x="282" y="750" on="1"/>
        <pt x="284" y="742" on="0"/>
        <pt x="284" y="734" on="1"/>
        <pt x="284" y="729" on="0"/>
        <pt x="283" y="724" on="1"/>
        <pt x="281" y="710" on="0"/>
        <pt x="275" y="699" on="1"/>
        <pt x="291" y="692" on="0"/>
        <pt x="306" y="691" on="1"/>
        <pt x="318" y="691" on="1"/>
        <pt x="327" y="691" on="0"/>
        <pt x="336" y="692" on="1"/>
        <pt x="351" y="693" on="0"/>
        <pt x="367" y="695" on="1"/>
        <pt x="377" y="696" on="0"/>
        <pt x="388" y="696" on="1"/>
        <pt x="399" y="696" on="1"/>
        <pt x="429" y="693" on="0"/>
        <pt x="483" y="673" on="0"/>
        <pt x="533" y="648" on="0"/>
        <pt x="581" y="623" on="0"/>
        <pt x="606" y="615" on="1"/>
        <pt x="617" y="599" on="0"/>
        <pt x="648" y="567" on="0"/>
        <pt x="679" y="533" on="0"/>
        <pt x="707" y="496" on="0"/>
        <pt x="716" y="475" on="1"/>
        <pt x="733" y="437" on="0"/>
        <pt x="740" y="386" on="1"/>
        <pt x="744" y="354" on="0"/>
        <pt x="744" y="320" on="1"/>
        <pt x="744" y="301" on="0"/>
      </contour>
      <contour>
        <pt x="686" y="378" on="1"/>
        <pt x="685" y="385" on="0"/>
        <pt x="679" y="409" on="0"/>
        <pt x="671" y="434" on="0"/>
        <pt x="663" y="458" on="0"/>
        <pt x="660" y="465" on="1"/>
        <pt x="652" y="481" on="0"/>
        <pt x="625" y="517" on="0"/>
        <pt x="595" y="550" on="0"/>
        <pt x="565" y="576" on="0"/>
        <pt x="553" y="582" on="1"/>
        <pt x="543" y="587" on="0"/>
        <pt x="514" y="596" on="0"/>
        <pt x="499" y="602" on="1"/>
        <pt x="487" y="607" on="0"/>
        <pt x="467" y="617" on="0"/>
        <pt x="447" y="625" on="0"/>
        <pt x="424" y="632" on="0"/>
        <pt x="409" y="635" on="1"/>
        <pt x="372" y="643" on="0"/>
        <pt x="336" y="643" on="1"/>
        <pt x="300" y="643" on="0"/>
        <pt x="258" y="632" on="1"/>
        <pt x="242" y="556" on="0"/>
        <pt x="237" y="473" on="1"/>
        <pt x="232" y="411" on="0"/>
        <pt x="232" y="350" on="1"/>
        <pt x="232" y="327" on="0"/>
        <pt x="233" y="305" on="1"/>
        <pt x="235" y="221" on="0"/>
        <pt x="252" y="59" on="0"/>
        <pt x="265" y="-13" on="1"/>
        <pt x="282" y="-13" on="1"/>
        <pt x="324" y="-13" on="0"/>
        <pt x="361" y="-5" on="1"/>
        <pt x="406" y="5" on="0"/>
        <pt x="485" y="38" on="0"/>
        <pt x="558" y="78" on="0"/>
        <pt x="593" y="97" on="1"/>
        <pt x="618" y="123" on="0"/>
        <pt x="659" y="187" on="0"/>
        <pt x="684" y="259" on="0"/>
        <pt x="689" y="298" on="1"/>
        <pt x="690" y="313" on="0"/>
        <pt x="690" y="329" on="1"/>
        <pt x="690" y="353" on="0"/>
      </contour>
    </TTGlyph>
    <TTGlyph name="E" xMin="46" yMin="-62" xMax="528" yMax="702">
      <contour>
        <pt x="528" y="10" on="1"/>
        <pt x="503" y="0" on="0"/>
        <pt x="450" y="-28" on="0"/>
        <pt x="393" y="-52" on="0"/>
        <pt x="362" y="-58" on="1"/>
        <pt x="344" y="-62" on="0"/>
        <pt x="325" y="-62" on="1"/>
        <pt x="310" y="-62" on="0"/>
        <pt x="294" y="-60" on="1"/>
        <pt x="244" y="-53" on="0"/>
        <pt x="164" y="-6" on="0"/>
        <pt x="127" y="16" on="1"/>
        <pt x="116" y="36" on="0"/>
        <pt x="88" y="66" on="0"/>
        <pt x="74" y="83" on="1"/>
        <pt x="62" y="118" on="0"/>
        <pt x="53" y="153" on="1"/>
        <pt x="46" y="178" on="0"/>
        <pt x="46" y="203" on="1"/>
        <pt x="46" y="213" on="0"/>
        <pt x="47" y="224" on="1"/>
        <pt x="50" y="251" on="0"/>
        <pt x="69" y="296" on="0"/>
        <pt x="94" y="336" on="0"/>
        <pt x="120" y="373" on="0"/>
        <pt x="131" y="391" on="1"/>
        <pt x="101" y="425" on="0"/>
        <pt x="93" y="465" on="1"/>
        <pt x="89" y="483" on="0"/>
        <pt x="89" y="501" on="1"/>
        <pt x="89" y="522" on="0"/>
        <pt x="94" y="542" on="1"/>
        <pt x="103" y="579" on="0"/>
        <pt x="152" y="643" on="0"/>
        <pt x="187" y="662" on="1"/>
        <pt x="230" y="685" on="0"/>
        <pt x="334" y="698" on="0"/>
        <pt x="385" y="702" on="1"/>
        <pt x="403" y="689" on="0"/>
        <pt x="446" y="669" on="0"/>
        <pt x="485" y="645" on="0"/>
        <pt x="517" y="615" on="0"/>
        <pt x="525" y="591" on="1"/>
        <pt x="512" y="575" on="0"/>
        <pt x="499" y="575" on="1"/>
        <pt x="496" y="575" on="0"/>
        <pt x="492" y="577" on="1"/>
        <pt x="475" y="582" on="0"/>
        <pt x="436" y="612" on="0"/>
        <pt x="392" y="645" on="0"/>
        <pt x="365" y="648" on="1"/>
        <pt x="354" y="649" on="0"/>
        <pt x="343" y="649" on="1"/>
        <pt x="321" y="649" on="0"/>
        <pt x="299" y="645" on="1"/>
        <pt x="265" y="637" on="0"/>
        <pt x="204" y="606" on="0"/>
        <pt x="158" y="561" on="0"/>
        <pt x="148" y="536" on="1"/>
        <pt x="141" y="519" on="0"/>
        <pt x="141" y="502" on="1"/>
        <pt x="141" y="493" on="0"/>
        <pt x="143" y="483" on="1"/>
        <pt x="149" y="455" on="0"/>
        <pt x="177" y="428" on="1"/>
        <pt x="204" y="436" on="0"/>
        <pt x="259" y="458" on="0"/>
        <pt x="314" y="473" on="0"/>
        <pt x="343" y="473" on="1"/>
        <pt x="371" y="473" on="0"/>
        <pt x="401" y="458" on="1"/>
        <pt x="408" y="449" on="0"/>
        <pt x="423" y="431" on="0"/>
        <pt x="434" y="411" on="0"/>
        <pt x="437" y="401" on="1"/>
        <pt x="437" y="392" on="1"/>
        <pt x="437" y="385" on="0"/>
        <pt x="435" y="377" on="1"/>
        <pt x="427" y="351" on="0"/>
        <pt x="361" y="328" on="0"/>
        <pt x="321" y="327" on="1"/>
        <pt x="313" y="327" on="1"/>
        <pt x="277" y="327" on="0"/>
        <pt x="243" y="335" on="1"/>
        <pt x="204" y="343" on="0"/>
        <pt x="184" y="357" on="1"/>
        <pt x="169" y="337" on="0"/>
        <pt x="135" y="297" on="0"/>
        <pt x="109" y="252" on="0"/>
        <pt x="103" y="226" on="1"/>
        <pt x="100" y="214" on="0"/>
        <pt x="100" y="201" on="1"/>
        <pt x="100" y="185" on="0"/>
        <pt x="104" y="167" on="1"/>
        <pt x="113" y="123" on="0"/>
        <pt x="178" y="46" on="0"/>
        <pt x="270" y="-1" on="0"/>
        <pt x="323" y="-5" on="1"/>
        <pt x="330" y="-6" on="0"/>
        <pt x="338" y="-6" on="1"/>
        <pt x="383" y="-6" on="0"/>
        <pt x="425" y="16" on="1"/>
        <pt x="433" y="20" on="0"/>
        <pt x="450" y="37" on="0"/>
        <pt x="468" y="52" on="0"/>
        <pt x="486" y="63" on="0"/>
        <pt x="495" y="63" on="1"/>
        <pt x="518" y="63" on="0"/>
        <pt x="528" y="33" on="0"/>
      </contour>
      <contour>
        <pt x="381" y="387" on="1"/>
        <pt x="375" y="406" on="0"/>
        <pt x="358" y="413" on="1"/>
        <pt x="344" y="418" on="0"/>
        <pt x="328" y="418" on="1"/>
        <pt x="321" y="418" on="1"/>
        <pt x="300" y="416" on="0"/>
        <pt x="261" y="400" on="0"/>
        <pt x="251" y="391" on="1"/>
        <pt x="277" y="382" on="0"/>
        <pt x="315" y="381" on="1"/>
        <pt x="324" y="381" on="1"/>
        <pt x="356" y="381" on="0"/>
      </contour>
    </TTGlyph>
    <TTGlyph name="Eacute" xMin="46" yMin="-62" xMax="528" yMax="920">
      <component glyphName="E" x="0" y="0" flags="0x204"/>
      <component glyphName="acute" x="-60" y="246" flags="0x4"/>
    </TTGlyph>
    <TTGlyph name="Ecircumflex" xMin="46" yMin="-62" xMax="528" yMax="979">
      <component glyphName="E" x="0" y="0" flags="0x204"/>
      <component glyphName="circumflex" x="-60" y="297" flags="0x4"/>
    </TTGlyph>
    <TTGlyph name="Edieresis" xMin="46" yMin="-62" xMax="528" yMax="844">
      <component glyphName="E" x="0" y="0" flags="0x204"/>
      <component glyphName="dieresis" x="-71" y="215" flags="0x4"/>
    </TTGlyph>
    <TTGlyph name="Egrave" xMin="46" yMin="-62" xMax="528" yMax="932">
      <component glyphName="E" x="0" y="0" flags="0x204"/>
      <component glyphName="grave" x="-81" y="266" flags="0x4"/>
    </TTGlyph>
    <TTGlyph name="Eth" xMin="41" yMin="-69" xMax="718" yMax="708">
      <contour>
        <pt x="717" y="292" on="1"/>
        <pt x="714" y="255" on="0"/>
        <pt x="690" y="190" on="0"/>
        <pt x="655" y="132" on="0"/>
        <pt x="615" y="81" on="0"/>
        <pt x="597" y="58" on="1"/>
        <pt x="571" y="44" on="0"/>
        <pt x="516" y="13" on="0"/>
        <pt x="458" y="-16" on="0"/>
        <pt x="396" y="-42" on="0"/>
        <pt x="363" y="-49" on="1"/>
        <pt x="348" y="-52" on="0"/>
        <pt x="317" y="-54" on="0"/>
        <pt x="287" y="-56" on="0"/>
        <pt x="258" y="-62" on="0"/>
        <pt x="246" y="-69" on="1"/>
        <pt x="222" y="-66" on="0"/>
        <pt x="175" y="-58" on="0"/>
        <pt x="131" y="-45" on="0"/>
        <pt x="93" y="-24" on="0"/>
        <pt x="79" y="-9" on="1"/>
        <pt x="90" y="16" on="0"/>
        <pt x="112" y="28" on="1"/>
        <pt x="129" y="24" on="0"/>
        <pt x="153" y="10" on="0"/>
        <pt x="172" y="8" on="1"/>
        <pt x="169" y="81" on="0"/>
        <pt x="160" y="216" on="0"/>
        <pt x="152" y="289" on="1"/>
        <pt x="138" y="289" on="0"/>
        <pt x="109" y="283" on="0"/>
        <pt x="95" y="282" on="1"/>
        <pt x="86" y="281" on="0"/>
        <pt x="77" y="281" on="1"/>
        <pt x="67" y="281" on="1"/>
        <pt x="53" y="282" on="0"/>
        <pt x="42" y="289" on="1"/>
        <pt x="41" y="295" on="0"/>
        <pt x="41" y="301" on="1"/>
        <pt x="41" y="316" on="0"/>
        <pt x="50" y="324" on="1"/>
        <pt x="61" y="333" on="0"/>
        <pt x="79" y="335" on="1"/>
        <pt x="94" y="335" on="1"/>
        <pt x="104" y="335" on="0"/>
        <pt x="115" y="334" on="1"/>
        <pt x="121" y="333" on="0"/>
        <pt x="127" y="333" on="1"/>
        <pt x="138" y="333" on="0"/>
        <pt x="146" y="336" on="1"/>
        <pt x="149" y="374" on="0"/>
        <pt x="155" y="454" on="0"/>
        <pt x="161" y="532" on="0"/>
        <pt x="168" y="603" on="0"/>
        <pt x="172" y="633" on="1"/>
        <pt x="167" y="633" on="1"/>
        <pt x="158" y="633" on="0"/>
        <pt x="149" y="631" on="1"/>
        <pt x="136" y="627" on="0"/>
        <pt x="123" y="625" on="1"/>
        <pt x="115" y="623" on="0"/>
        <pt x="107" y="623" on="1"/>
        <pt x="103" y="623" on="0"/>
        <pt x="99" y="624" on="1"/>
        <pt x="87" y="625" on="0"/>
        <pt x="79" y="637" on="1"/>
        <pt x="82" y="658" on="0"/>
        <pt x="110" y="677" on="0"/>
        <pt x="148" y="687" on="0"/>
        <pt x="188" y="694" on="0"/>
        <pt x="202" y="704" on="1"/>
        <pt x="220" y="702" on="0"/>
        <pt x="237" y="702" on="1"/>
        <pt x="248" y="702" on="1"/>
        <pt x="270" y="703" on="0"/>
        <pt x="312" y="706" on="0"/>
        <pt x="332" y="708" on="1"/>
        <pt x="349" y="708" on="1"/>
        <pt x="361" y="708" on="0"/>
        <pt x="373" y="707" on="1"/>
        <pt x="404" y="704" on="0"/>
        <pt x="456" y="684" on="0"/>
        <pt x="506" y="660" on="0"/>
        <pt x="554" y="635" on="0"/>
        <pt x="580" y="627" on="1"/>
        <pt x="591" y="610" on="0"/>
        <pt x="622" y="578" on="0"/>
        <pt x="653" y="544" on="0"/>
        <pt x="681" y="507" on="0"/>
        <pt x="690" y="486" on="1"/>
        <pt x="707" y="448" on="0"/>
        <pt x="714" y="397" on="1"/>
        <pt x="718" y="365" on="0"/>
        <pt x="718" y="331" on="1"/>
        <pt x="718" y="312" on="0"/>
      </contour>
      <contour>
        <pt x="660" y="389" on="1"/>
        <pt x="655" y="423" on="0"/>
        <pt x="627" y="484" on="0"/>
        <pt x="589" y="536" on="0"/>
        <pt x="544" y="579" on="0"/>
        <pt x="523" y="597" on="1"/>
        <pt x="496" y="605" on="0"/>
        <pt x="446" y="625" on="0"/>
        <pt x="426" y="640" on="1"/>
        <pt x="378" y="648" on="0"/>
        <pt x="330" y="653" on="1"/>
        <pt x="318" y="654" on="0"/>
        <pt x="306" y="654" on="1"/>
        <pt x="270" y="654" on="0"/>
        <pt x="233" y="643" on="1"/>
        <pt x="223" y="570" on="0"/>
        <pt x="213" y="498" on="1"/>
        <pt x="205" y="442" on="0"/>
        <pt x="205" y="378" on="1"/>
        <pt x="205" y="359" on="0"/>
        <pt x="206" y="339" on="1"/>
        <pt x="215" y="335" on="0"/>
        <pt x="226" y="335" on="1"/>
        <pt x="233" y="335" on="0"/>
        <pt x="241" y="337" on="1"/>
        <pt x="261" y="341" on="0"/>
        <pt x="280" y="345" on="1"/>
        <pt x="290" y="347" on="0"/>
        <pt x="299" y="347" on="1"/>
        <pt x="306" y="347" on="0"/>
        <pt x="312" y="346" on="1"/>
        <pt x="325" y="343" on="0"/>
        <pt x="326" y="322" on="1"/>
        <pt x="326" y="319" on="1"/>
        <pt x="326" y="301" on="0"/>
        <pt x="315" y="296" on="1"/>
        <pt x="304" y="290" on="0"/>
        <pt x="287" y="290" on="1"/>
        <pt x="286" y="290" on="0"/>
        <pt x="284" y="291" on="1"/>
        <pt x="265" y="291" on="0"/>
        <pt x="244" y="293" on="1"/>
        <pt x="238" y="294" on="0"/>
        <pt x="233" y="294" on="1"/>
        <pt x="218" y="294" on="0"/>
        <pt x="206" y="289" on="1"/>
        <pt x="216" y="214" on="0"/>
        <pt x="225" y="63" on="0"/>
        <pt x="239" y="-2" on="1"/>
        <pt x="256" y="-2" on="1"/>
        <pt x="298" y="-2" on="0"/>
        <pt x="335" y="6" on="1"/>
        <pt x="380" y="16" on="0"/>
        <pt x="459" y="49" on="0"/>
        <pt x="532" y="89" on="0"/>
        <pt x="567" y="108" on="1"/>
        <pt x="589" y="133" on="0"/>
        <pt x="630" y="192" on="0"/>
        <pt x="657" y="261" on="0"/>
        <pt x="663" y="302" on="1"/>
        <pt x="665" y="318" on="0"/>
        <pt x="665" y="336" on="1"/>
        <pt x="665" y="361" on="0"/>
      </contour>
    </TTGlyph>
    <TTGlyph name="Euro" xMin="5" yMin="39" xMax="681" yMax="637">
      <contour>
        <pt x="659" y="464" on="1"/>
        <pt x="640" y="466" on="0"/>
        <pt x="618" y="481" on="0"/>
        <pt x="602" y="500" on="0"/>
        <pt x="587" y="521" on="0"/>
        <pt x="575" y="528" on="1"/>
        <pt x="552" y="541" on="0"/>
        <pt x="489" y="565" on="0"/>
        <pt x="418" y="578" on="0"/>
        <pt x="381" y="578" on="1"/>
        <pt x="344" y="578" on="0"/>
        <pt x="311" y="568" on="1"/>
        <pt x="291" y="562" on="0"/>
        <pt x="251" y="536" on="0"/>
        <pt x="215" y="502" on="0"/>
        <pt x="187" y="462" on="0"/>
        <pt x="178" y="441" on="1"/>
        <pt x="229" y="442" on="0"/>
        <pt x="326" y="449" on="0"/>
        <pt x="368" y="451" on="1"/>
        <pt x="382" y="448" on="0"/>
        <pt x="397" y="448" on="1"/>
        <pt x="400" y="448" on="0"/>
        <pt x="403" y="449" on="1"/>
        <pt x="415" y="449" on="1"/>
        <pt x="427" y="449" on="0"/>
        <pt x="438" y="448" on="1"/>
        <pt x="455" y="447" on="0"/>
        <pt x="484" y="435" on="0"/>
        <pt x="492" y="418" on="1"/>
        <pt x="487" y="412" on="0"/>
        <pt x="480" y="396" on="0"/>
        <pt x="475" y="388" on="1"/>
        <pt x="164" y="388" on="1"/>
        <pt x="160" y="366" on="0"/>
        <pt x="160" y="346" on="1"/>
        <pt x="160" y="340" on="0"/>
        <pt x="161" y="334" on="1"/>
        <pt x="162" y="307" on="0"/>
        <pt x="167" y="281" on="1"/>
        <pt x="227" y="281" on="0"/>
        <pt x="348" y="282" on="0"/>
        <pt x="414" y="288" on="1"/>
        <pt x="419" y="282" on="0"/>
        <pt x="419" y="271" on="1"/>
        <pt x="419" y="266" on="0"/>
        <pt x="418" y="259" on="1"/>
        <pt x="413" y="240" on="0"/>
        <pt x="396" y="228" on="1"/>
        <pt x="362" y="225" on="0"/>
        <pt x="306" y="222" on="0"/>
        <pt x="282" y="222" on="1"/>
        <pt x="257" y="222" on="0"/>
        <pt x="210" y="223" on="0"/>
        <pt x="186" y="223" on="1"/>
        <pt x="206" y="180" on="0"/>
        <pt x="274" y="118" on="0"/>
        <pt x="321" y="106" on="1"/>
        <pt x="355" y="98" on="0"/>
        <pt x="388" y="98" on="1"/>
        <pt x="421" y="98" on="0"/>
        <pt x="482" y="110" on="0"/>
        <pt x="535" y="132" on="0"/>
        <pt x="555" y="147" on="1"/>
        <pt x="560" y="151" on="0"/>
        <pt x="570" y="163" on="0"/>
        <pt x="581" y="175" on="0"/>
        <pt x="595" y="183" on="0"/>
        <pt x="605" y="183" on="1"/>
        <pt x="623" y="183" on="0"/>
        <pt x="632" y="170" on="1"/>
        <pt x="637" y="161" on="0"/>
        <pt x="637" y="150" on="1"/>
        <pt x="637" y="144" on="0"/>
        <pt x="635" y="137" on="1"/>
        <pt x="634" y="132" on="0"/>
        <pt x="618" y="119" on="0"/>
        <pt x="599" y="106" on="0"/>
        <pt x="579" y="95" on="0"/>
        <pt x="575" y="93" on="1"/>
        <pt x="564" y="88" on="0"/>
        <pt x="532" y="83" on="0"/>
        <pt x="518" y="76" on="1"/>
        <pt x="505" y="70" on="0"/>
        <pt x="484" y="59" on="0"/>
        <pt x="464" y="48" on="0"/>
        <pt x="441" y="41" on="0"/>
        <pt x="425" y="40" on="1"/>
        <pt x="411" y="39" on="0"/>
        <pt x="398" y="39" on="1"/>
        <pt x="349" y="39" on="0"/>
        <pt x="304" y="53" on="1"/>
        <pt x="245" y="71" on="0"/>
        <pt x="204" y="103" on="1"/>
        <pt x="197" y="108" on="0"/>
        <pt x="187" y="127" on="0"/>
        <pt x="181" y="133" on="1"/>
        <pt x="167" y="146" on="0"/>
        <pt x="139" y="167" on="0"/>
        <pt x="131" y="187" on="1"/>
        <pt x="124" y="202" on="0"/>
        <pt x="119" y="224" on="1"/>
        <pt x="96" y="224" on="1"/>
        <pt x="87" y="224" on="0"/>
        <pt x="63" y="220" on="0"/>
        <pt x="52" y="220" on="1"/>
        <pt x="41" y="220" on="0"/>
        <pt x="22" y="227" on="0"/>
        <pt x="16" y="238" on="1"/>
        <pt x="16" y="266" on="0"/>
        <pt x="36" y="278" on="1"/>
        <pt x="55" y="279" on="0"/>
        <pt x="91" y="280" on="0"/>
        <pt x="109" y="280" on="1"/>
        <pt x="107" y="297" on="1"/>
        <pt x="104" y="317" on="0"/>
        <pt x="104" y="336" on="1"/>
        <pt x="104" y="340" on="0"/>
        <pt x="105" y="343" on="1"/>
        <pt x="105" y="366" on="0"/>
        <pt x="108" y="388" on="1"/>
        <pt x="93" y="388" on="0"/>
        <pt x="74" y="386" on="1"/>
        <pt x="60" y="384" on="0"/>
        <pt x="48" y="384" on="1"/>
        <pt x="38" y="384" on="1"/>
        <pt x="21" y="385" on="0"/>
        <pt x="11" y="393" on="1"/>
        <pt x="5" y="398" on="0"/>
        <pt x="5" y="408" on="1"/>
        <pt x="5" y="414" on="0"/>
        <pt x="7" y="421" on="1"/>
        <pt x="9" y="428" on="0"/>
        <pt x="22" y="433" on="0"/>
        <pt x="37" y="436" on="0"/>
        <pt x="51" y="440" on="0"/>
        <pt x="54" y="445" on="1"/>
        <pt x="71" y="443" on="0"/>
        <pt x="104" y="441" on="0"/>
        <pt x="121" y="441" on="1"/>
        <pt x="139" y="497" on="0"/>
        <pt x="174" y="538" on="1"/>
        <pt x="181" y="546" on="0"/>
        <pt x="204" y="558" on="0"/>
        <pt x="214" y="568" on="1"/>
        <pt x="225" y="578" on="0"/>
        <pt x="239" y="600" on="0"/>
        <pt x="248" y="605" on="1"/>
        <pt x="254" y="608" on="0"/>
        <pt x="279" y="617" on="0"/>
        <pt x="308" y="626" on="0"/>
        <pt x="337" y="633" on="0"/>
        <pt x="348" y="635" on="1"/>
        <pt x="368" y="637" on="0"/>
        <pt x="386" y="637" on="1"/>
        <pt x="409" y="637" on="0"/>
        <pt x="430" y="634" on="1"/>
        <pt x="467" y="627" on="0"/>
        <pt x="502" y="615" on="1"/>
        <pt x="523" y="607" on="0"/>
        <pt x="557" y="595" on="0"/>
        <pt x="587" y="580" on="0"/>
        <pt x="616" y="561" on="0"/>
        <pt x="632" y="548" on="1"/>
        <pt x="643" y="539" on="0"/>
        <pt x="668" y="517" on="0"/>
        <pt x="676" y="506" on="1"/>
        <pt x="681" y="498" on="0"/>
        <pt x="681" y="490" on="1"/>
        <pt x="681" y="484" on="1"/>
        <pt x="678" y="473" on="0"/>
      </contour>
    </TTGlyph>
    <TTGlyph name="F" xMin="41" yMin="-105" xMax="574" yMax="736">
      <contour>
        <pt x="572" y="694" on="1"/>
        <pt x="574" y="686" on="0"/>
        <pt x="574" y="677" on="1"/>
        <pt x="574" y="669" on="0"/>
        <pt x="572" y="662" on="1"/>
        <pt x="568" y="646" on="0"/>
        <pt x="549" y="641" on="1"/>
        <pt x="545" y="640" on="0"/>
        <pt x="542" y="640" on="1"/>
        <pt x="536" y="640" on="0"/>
        <pt x="531" y="644" on="1"/>
        <pt x="524" y="649" on="0"/>
        <pt x="512" y="651" on="1"/>
        <pt x="488" y="654" on="0"/>
        <pt x="461" y="654" on="1"/>
        <pt x="441" y="654" on="1"/>
        <pt x="402" y="652" on="0"/>
        <pt x="324" y="643" on="0"/>
        <pt x="253" y="633" on="0"/>
        <pt x="228" y="631" on="1"/>
        <pt x="205" y="515" on="0"/>
        <pt x="205" y="394" on="1"/>
        <pt x="205" y="302" on="0"/>
        <pt x="218" y="206" on="1"/>
        <pt x="227" y="206" on="1"/>
        <pt x="238" y="206" on="0"/>
        <pt x="252" y="208" on="1"/>
        <pt x="270" y="210" on="0"/>
        <pt x="310" y="215" on="0"/>
        <pt x="330" y="215" on="1"/>
        <pt x="350" y="215" on="0"/>
        <pt x="369" y="209" on="1"/>
        <pt x="372" y="200" on="0"/>
        <pt x="372" y="191" on="1"/>
        <pt x="372" y="184" on="0"/>
        <pt x="370" y="177" on="1"/>
        <pt x="365" y="161" on="0"/>
        <pt x="352" y="156" on="1"/>
        <pt x="326" y="158" on="0"/>
        <pt x="292" y="161" on="1"/>
        <pt x="279" y="161" on="1"/>
        <pt x="252" y="161" on="0"/>
        <pt x="228" y="153" on="1"/>
        <pt x="229" y="128" on="0"/>
        <pt x="241" y="81" on="0"/>
        <pt x="245" y="49" on="1"/>
        <pt x="248" y="23" on="0"/>
        <pt x="272" y="-32" on="0"/>
        <pt x="278" y="-54" on="1"/>
        <pt x="280" y="-63" on="0"/>
        <pt x="280" y="-71" on="1"/>
        <pt x="280" y="-82" on="0"/>
        <pt x="276" y="-90" on="1"/>
        <pt x="268" y="-105" on="0"/>
        <pt x="232" y="-105" on="1"/>
        <pt x="219" y="-80" on="0"/>
        <pt x="203" y="-20" on="0"/>
        <pt x="191" y="43" on="0"/>
        <pt x="181" y="105" on="0"/>
        <pt x="175" y="133" on="1"/>
        <pt x="158" y="133" on="1"/>
        <pt x="155" y="132" on="0"/>
        <pt x="151" y="132" on="1"/>
        <pt x="144" y="132" on="0"/>
        <pt x="138" y="133" on="1"/>
        <pt x="127" y="134" on="0"/>
        <pt x="111" y="141" on="0"/>
        <pt x="108" y="149" on="1"/>
        <pt x="108" y="158" on="0"/>
        <pt x="113" y="171" on="0"/>
        <pt x="115" y="179" on="1"/>
        <pt x="123" y="187" on="0"/>
        <pt x="152" y="189" on="0"/>
        <pt x="165" y="193" on="1"/>
        <pt x="150" y="293" on="0"/>
        <pt x="149" y="403" on="1"/>
        <pt x="149" y="413" on="1"/>
        <pt x="149" y="517" on="0"/>
        <pt x="168" y="614" on="1"/>
        <pt x="153" y="612" on="0"/>
        <pt x="111" y="589" on="0"/>
        <pt x="92" y="582" on="1"/>
        <pt x="80" y="578" on="0"/>
        <pt x="70" y="578" on="1"/>
        <pt x="63" y="578" on="0"/>
        <pt x="58" y="580" on="1"/>
        <pt x="44" y="584" on="0"/>
        <pt x="41" y="614" on="1"/>
        <pt x="70" y="634" on="0"/>
        <pt x="143" y="659" on="0"/>
        <pt x="181" y="671" on="1"/>
        <pt x="183" y="684" on="0"/>
        <pt x="191" y="712" on="0"/>
        <pt x="205" y="732" on="0"/>
        <pt x="217" y="735" on="1"/>
        <pt x="219" y="736" on="0"/>
        <pt x="222" y="736" on="1"/>
        <pt x="232" y="736" on="0"/>
        <pt x="245" y="728" on="1"/>
        <pt x="252" y="724" on="0"/>
        <pt x="252" y="714" on="1"/>
        <pt x="252" y="706" on="1"/>
        <pt x="252" y="697" on="0"/>
        <pt x="255" y="691" on="1"/>
        <pt x="295" y="696" on="0"/>
        <pt x="369" y="700" on="0"/>
        <pt x="441" y="702" on="0"/>
        <pt x="513" y="704" on="0"/>
        <pt x="552" y="708" on="1"/>
        <pt x="557" y="703" on="0"/>
        <pt x="567" y="697" on="0"/>
      </contour>
    </TTGlyph>
    <TTGlyph name="G" xMin="61" yMin="-261" xMax="823" yMax="761">
      <contour>
        <pt x="823" y="342" on="1"/>
        <pt x="815" y="311" on="0"/>
        <pt x="790" y="259" on="0"/>
        <pt x="761" y="210" on="0"/>
        <pt x="730" y="163" on="0"/>
        <pt x="716" y="138" on="1"/>
        <pt x="719" y="106" on="0"/>
        <pt x="729" y="35" on="0"/>
        <pt x="732" y="0" on="1"/>
        <pt x="733" y="-17" on="0"/>
        <pt x="733" y="-32" on="1"/>
        <pt x="733" y="-51" on="0"/>
        <pt x="731" y="-70" on="1"/>
        <pt x="728" y="-104" on="0"/>
        <pt x="713" y="-133" on="1"/>
        <pt x="684" y="-162" on="0"/>
        <pt x="631" y="-221" on="0"/>
        <pt x="593" y="-240" on="1"/>
        <pt x="577" y="-240" on="0"/>
        <pt x="546" y="-251" on="0"/>
        <pt x="512" y="-260" on="0"/>
        <pt x="493" y="-261" on="1"/>
        <pt x="488" y="-261" on="1"/>
        <pt x="471" y="-261" on="0"/>
        <pt x="449" y="-253" on="1"/>
        <pt x="444" y="-251" on="0"/>
        <pt x="434" y="-238" on="0"/>
        <pt x="426" y="-233" on="1"/>
        <pt x="410" y="-225" on="0"/>
        <pt x="377" y="-210" on="0"/>
        <pt x="369" y="-197" on="1"/>
        <pt x="352" y="-169" on="0"/>
        <pt x="352" y="-142" on="1"/>
        <pt x="352" y="-133" on="1"/>
        <pt x="355" y="-102" on="0"/>
        <pt x="372" y="-70" on="1"/>
        <pt x="381" y="-68" on="0"/>
        <pt x="390" y="-66" on="1"/>
        <pt x="409" y="-66" on="1"/>
        <pt x="418" y="-75" on="0"/>
        <pt x="420" y="-84" on="1"/>
        <pt x="420" y="-91" on="1"/>
        <pt x="420" y="-97" on="0"/>
        <pt x="419" y="-102" on="1"/>
        <pt x="416" y="-112" on="0"/>
        <pt x="406" y="-131" on="0"/>
        <pt x="402" y="-140" on="1"/>
        <pt x="410" y="-170" on="0"/>
        <pt x="450" y="-199" on="0"/>
        <pt x="476" y="-202" on="1"/>
        <pt x="483" y="-203" on="0"/>
        <pt x="491" y="-203" on="1"/>
        <pt x="510" y="-203" on="0"/>
        <pt x="530" y="-198" on="1"/>
        <pt x="558" y="-191" on="0"/>
        <pt x="610" y="-164" on="0"/>
        <pt x="650" y="-130" on="0"/>
        <pt x="660" y="-113" on="1"/>
        <pt x="671" y="-93" on="0"/>
        <pt x="674" y="-67" on="1"/>
        <pt x="676" y="-51" on="0"/>
        <pt x="676" y="-35" on="1"/>
        <pt x="676" y="-24" on="0"/>
        <pt x="675" y="-13" on="1"/>
        <pt x="673" y="15" on="0"/>
        <pt x="664" y="70" on="0"/>
        <pt x="660" y="94" on="1"/>
        <pt x="629" y="67" on="0"/>
        <pt x="532" y="23" on="0"/>
        <pt x="477" y="14" on="1"/>
        <pt x="441" y="7" on="0"/>
        <pt x="404" y="7" on="1"/>
        <pt x="384" y="7" on="0"/>
        <pt x="365" y="9" on="1"/>
        <pt x="307" y="14" on="0"/>
        <pt x="258" y="41" on="1"/>
        <pt x="252" y="44" on="0"/>
        <pt x="242" y="56" on="0"/>
        <pt x="235" y="61" on="1"/>
        <pt x="220" y="71" on="0"/>
        <pt x="183" y="100" on="0"/>
        <pt x="148" y="132" on="0"/>
        <pt x="117" y="166" on="0"/>
        <pt x="108" y="181" on="1"/>
        <pt x="97" y="199" on="0"/>
        <pt x="86" y="240" on="0"/>
        <pt x="71" y="255" on="1"/>
        <pt x="61" y="293" on="0"/>
        <pt x="61" y="330" on="1"/>
        <pt x="61" y="335" on="0"/>
        <pt x="62" y="341" on="1"/>
        <pt x="63" y="383" on="0"/>
        <pt x="79" y="462" on="0"/>
        <pt x="105" y="534" on="0"/>
        <pt x="118" y="566" on="1"/>
        <pt x="169" y="626" on="0"/>
        <pt x="301" y="719" on="0"/>
        <pt x="395" y="749" on="1"/>
        <pt x="430" y="761" on="0"/>
        <pt x="463" y="761" on="1"/>
        <pt x="466" y="761" on="1"/>
        <pt x="500" y="760" on="0"/>
        <pt x="568" y="745" on="0"/>
        <pt x="634" y="721" on="0"/>
        <pt x="666" y="709" on="1"/>
        <pt x="675" y="695" on="0"/>
        <pt x="707" y="668" on="0"/>
        <pt x="734" y="638" on="0"/>
        <pt x="740" y="622" on="1"/>
        <pt x="742" y="616" on="0"/>
        <pt x="742" y="611" on="1"/>
        <pt x="742" y="599" on="0"/>
        <pt x="733" y="586" on="1"/>
        <pt x="726" y="586" on="1"/>
        <pt x="715" y="586" on="0"/>
        <pt x="706" y="591" on="1"/>
        <pt x="695" y="598" on="0"/>
        <pt x="677" y="619" on="0"/>
        <pt x="660" y="644" on="0"/>
        <pt x="650" y="652" on="1"/>
        <pt x="638" y="661" on="0"/>
        <pt x="612" y="673" on="0"/>
        <pt x="585" y="682" on="0"/>
        <pt x="557" y="692" on="0"/>
        <pt x="543" y="699" on="1"/>
        <pt x="503" y="701" on="0"/>
        <pt x="467" y="704" on="1"/>
        <pt x="461" y="705" on="0"/>
        <pt x="454" y="705" on="1"/>
        <pt x="425" y="705" on="0"/>
        <pt x="395" y="693" on="1"/>
        <pt x="388" y="690" on="0"/>
        <pt x="377" y="679" on="0"/>
        <pt x="369" y="676" on="1"/>
        <pt x="356" y="671" on="0"/>
        <pt x="330" y="667" on="0"/>
        <pt x="319" y="662" on="1"/>
        <pt x="294" y="652" on="0"/>
        <pt x="243" y="619" on="0"/>
        <pt x="198" y="579" on="0"/>
        <pt x="163" y="535" on="0"/>
        <pt x="155" y="515" on="1"/>
        <pt x="153" y="511" on="0"/>
        <pt x="153" y="506" on="1"/>
        <pt x="153" y="500" on="1"/>
        <pt x="153" y="495" on="0"/>
        <pt x="151" y="489" on="1"/>
        <pt x="148" y="478" on="0"/>
        <pt x="131" y="456" on="0"/>
        <pt x="128" y="445" on="1"/>
        <pt x="120" y="421" on="0"/>
        <pt x="117" y="393" on="1"/>
        <pt x="114" y="375" on="0"/>
        <pt x="114" y="359" on="1"/>
        <pt x="114" y="350" on="0"/>
        <pt x="115" y="342" on="1"/>
        <pt x="117" y="297" on="0"/>
        <pt x="144" y="228" on="0"/>
        <pt x="186" y="172" on="0"/>
        <pt x="236" y="123" on="0"/>
        <pt x="262" y="98" on="1"/>
        <pt x="309" y="70" on="0"/>
        <pt x="367" y="64" on="1"/>
        <pt x="388" y="62" on="0"/>
        <pt x="409" y="62" on="1"/>
        <pt x="445" y="62" on="0"/>
        <pt x="480" y="68" on="1"/>
        <pt x="535" y="78" on="0"/>
        <pt x="631" y="127" on="0"/>
        <pt x="660" y="161" on="1"/>
        <pt x="659" y="192" on="0"/>
        <pt x="648" y="270" on="0"/>
        <pt x="645" y="310" on="1"/>
        <pt x="643" y="331" on="0"/>
        <pt x="643" y="352" on="1"/>
        <pt x="643" y="369" on="0"/>
        <pt x="645" y="386" on="1"/>
        <pt x="647" y="423" on="0"/>
        <pt x="663" y="449" on="1"/>
        <pt x="668" y="458" on="0"/>
        <pt x="687" y="478" on="0"/>
        <pt x="711" y="494" on="0"/>
        <pt x="725" y="499" on="1"/>
        <pt x="735" y="503" on="0"/>
        <pt x="745" y="503" on="1"/>
        <pt x="749" y="503" on="0"/>
        <pt x="753" y="502" on="1"/>
        <pt x="778" y="499" on="0"/>
        <pt x="804" y="464" on="0"/>
        <pt x="817" y="416" on="0"/>
        <pt x="821" y="363" on="0"/>
      </contour>
      <contour>
        <pt x="770" y="412" on="1"/>
        <pt x="760" y="419" on="0"/>
        <pt x="749" y="440" on="0"/>
        <pt x="733" y="442" on="1"/>
        <pt x="713" y="427" on="0"/>
        <pt x="700" y="376" on="0"/>
        <pt x="700" y="347" on="1"/>
        <pt x="700" y="317" on="0"/>
        <pt x="708" y="256" on="0"/>
        <pt x="710" y="231" on="1"/>
        <pt x="723" y="249" on="0"/>
        <pt x="748" y="287" on="0"/>
        <pt x="765" y="330" on="0"/>
        <pt x="769" y="356" on="1"/>
        <pt x="771" y="370" on="0"/>
        <pt x="771" y="386" on="1"/>
        <pt x="771" y="399" on="0"/>
      </contour>
    </TTGlyph>
    <TTGlyph name="H" xMin="25" yMin="-88" xMax="785" yMax="771">
      <contour>
        <pt x="766" y="189" on="1"/>
        <pt x="753" y="189" on="0"/>
        <pt x="733" y="194" on="0"/>
        <pt x="713" y="200" on="0"/>
        <pt x="702" y="202" on="1"/>
        <pt x="697" y="203" on="0"/>
        <pt x="690" y="203" on="1"/>
        <pt x="684" y="203" on="0"/>
        <pt x="676" y="202" on="1"/>
        <pt x="671" y="183" on="0"/>
        <pt x="671" y="164" on="1"/>
        <pt x="671" y="149" on="0"/>
        <pt x="674" y="135" on="1"/>
        <pt x="680" y="100" on="0"/>
        <pt x="698" y="29" on="0"/>
        <pt x="705" y="-8" on="1"/>
        <pt x="709" y="-28" on="0"/>
        <pt x="709" y="-48" on="1"/>
        <pt x="709" y="-65" on="0"/>
        <pt x="706" y="-82" on="1"/>
        <pt x="694" y="-87" on="0"/>
        <pt x="677" y="-88" on="1"/>
        <pt x="674" y="-88" on="1"/>
        <pt x="659" y="-88" on="0"/>
        <pt x="652" y="-78" on="1"/>
        <pt x="651" y="-43" on="0"/>
        <pt x="640" y="27" on="0"/>
        <pt x="626" y="98" on="0"/>
        <pt x="613" y="169" on="0"/>
        <pt x="609" y="206" on="1"/>
        <pt x="503" y="205" on="0"/>
        <pt x="309" y="181" on="0"/>
        <pt x="218" y="156" on="1"/>
        <pt x="213" y="130" on="0"/>
        <pt x="207" y="70" on="0"/>
        <pt x="203" y="9" on="0"/>
        <pt x="198" y="-49" on="0"/>
        <pt x="194" y="-72" on="1"/>
        <pt x="185" y="-79" on="0"/>
        <pt x="173" y="-84" on="1"/>
        <pt x="166" y="-87" on="0"/>
        <pt x="159" y="-87" on="1"/>
        <pt x="154" y="-87" on="0"/>
        <pt x="148" y="-85" on="1"/>
        <pt x="141" y="-65" on="0"/>
        <pt x="141" y="-41" on="1"/>
        <pt x="141" y="-39" on="0"/>
        <pt x="142" y="-37" on="1"/>
        <pt x="142" y="-11" on="0"/>
        <pt x="150" y="46" on="0"/>
        <pt x="158" y="105" on="0"/>
        <pt x="158" y="132" on="1"/>
        <pt x="152" y="134" on="0"/>
        <pt x="146" y="134" on="1"/>
        <pt x="137" y="134" on="0"/>
        <pt x="128" y="130" on="1"/>
        <pt x="112" y="124" on="0"/>
        <pt x="83" y="106" on="0"/>
        <pt x="70" y="99" on="1"/>
        <pt x="61" y="94" on="0"/>
        <pt x="53" y="94" on="1"/>
        <pt x="50" y="94" on="0"/>
        <pt x="47" y="95" on="1"/>
        <pt x="37" y="98" on="0"/>
        <pt x="30" y="108" on="1"/>
        <pt x="25" y="114" on="0"/>
        <pt x="25" y="121" on="1"/>
        <pt x="25" y="126" on="0"/>
        <pt x="27" y="132" on="1"/>
        <pt x="30" y="142" on="0"/>
        <pt x="68" y="157" on="0"/>
        <pt x="113" y="171" on="0"/>
        <pt x="154" y="184" on="0"/>
        <pt x="161" y="192" on="1"/>
        <pt x="166" y="247" on="0"/>
        <pt x="168" y="301" on="1"/>
        <pt x="168" y="328" on="1"/>
        <pt x="168" y="368" on="0"/>
        <pt x="165" y="406" on="1"/>
        <pt x="160" y="457" on="0"/>
        <pt x="138" y="550" on="0"/>
        <pt x="117" y="590" on="1"/>
        <pt x="110" y="605" on="0"/>
        <pt x="93" y="636" on="0"/>
        <pt x="88" y="652" on="1"/>
        <pt x="83" y="664" on="0"/>
        <pt x="83" y="675" on="1"/>
        <pt x="83" y="678" on="0"/>
        <pt x="84" y="681" on="1"/>
        <pt x="85" y="694" on="0"/>
        <pt x="97" y="704" on="1"/>
        <pt x="124" y="704" on="0"/>
        <pt x="152" y="668" on="0"/>
        <pt x="170" y="618" on="0"/>
        <pt x="186" y="566" on="0"/>
        <pt x="201" y="550" on="1"/>
        <pt x="217" y="468" on="0"/>
        <pt x="222" y="298" on="0"/>
        <pt x="224" y="209" on="1"/>
        <pt x="309" y="230" on="0"/>
        <pt x="403" y="245" on="1"/>
        <pt x="476" y="257" on="0"/>
        <pt x="558" y="257" on="1"/>
        <pt x="580" y="257" on="0"/>
        <pt x="602" y="256" on="1"/>
        <pt x="602" y="270" on="1"/>
        <pt x="602" y="291" on="0"/>
        <pt x="604" y="312" on="1"/>
        <pt x="607" y="340" on="0"/>
        <pt x="615" y="397" on="0"/>
        <pt x="622" y="454" on="0"/>
        <pt x="622" y="483" on="1"/>
        <pt x="622" y="540" on="0"/>
        <pt x="653" y="657" on="0"/>
        <pt x="676" y="704" on="1"/>
        <pt x="682" y="717" on="0"/>
        <pt x="691" y="742" on="0"/>
        <pt x="703" y="761" on="0"/>
        <pt x="713" y="767" on="1"/>
        <pt x="721" y="771" on="0"/>
        <pt x="734" y="771" on="1"/>
        <pt x="739" y="771" on="1"/>
        <pt x="749" y="761" on="0"/>
        <pt x="749" y="746" on="1"/>
        <pt x="749" y="742" on="0"/>
        <pt x="748" y="737" on="1"/>
        <pt x="744" y="716" on="0"/>
        <pt x="722" y="668" on="0"/>
        <pt x="696" y="622" on="0"/>
        <pt x="692" y="604" on="1"/>
        <pt x="674" y="525" on="0"/>
        <pt x="664" y="352" on="0"/>
        <pt x="662" y="263" on="1"/>
        <pt x="683" y="263" on="0"/>
        <pt x="738" y="255" on="0"/>
        <pt x="778" y="238" on="0"/>
        <pt x="784" y="224" on="1"/>
        <pt x="785" y="221" on="0"/>
        <pt x="785" y="218" on="1"/>
        <pt x="785" y="206" on="0"/>
      </contour>
    </TTGlyph>
    <TTGlyph name="I" xMin="97" yMin="-58" xMax="198" yMax="697">
      <contour>
        <pt x="198" y="226" on="1"/>
        <pt x="196" y="166" on="0"/>
        <pt x="191" y="46" on="0"/>
        <pt x="174" y="-8" on="1"/>
        <pt x="175" y="-16" on="0"/>
        <pt x="175" y="-22" on="1"/>
        <pt x="175" y="-37" on="0"/>
        <pt x="169" y="-45" on="1"/>
        <pt x="159" y="-57" on="0"/>
        <pt x="146" y="-57" on="1"/>
        <pt x="145" y="-58" on="0"/>
        <pt x="144" y="-58" on="1"/>
        <pt x="131" y="-58" on="0"/>
        <pt x="119" y="-48" on="1"/>
        <pt x="106" y="-39" on="0"/>
        <pt x="104" y="-21" on="1"/>
        <pt x="117" y="0" on="0"/>
        <pt x="130" y="46" on="0"/>
        <pt x="135" y="97" on="0"/>
        <pt x="135" y="123" on="1"/>
        <pt x="135" y="149" on="0"/>
        <pt x="137" y="176" on="1"/>
        <pt x="141" y="232" on="0"/>
        <pt x="141" y="290" on="1"/>
        <pt x="141" y="325" on="1"/>
        <pt x="139" y="401" on="0"/>
        <pt x="131" y="477" on="1"/>
        <pt x="128" y="505" on="0"/>
        <pt x="116" y="563" on="0"/>
        <pt x="114" y="591" on="1"/>
        <pt x="112" y="614" on="0"/>
        <pt x="108" y="651" on="0"/>
        <pt x="97" y="668" on="1"/>
        <pt x="99" y="678" on="0"/>
        <pt x="114" y="693" on="0"/>
        <pt x="124" y="696" on="1"/>
        <pt x="128" y="697" on="0"/>
        <pt x="133" y="697" on="1"/>
        <pt x="138" y="697" on="0"/>
        <pt x="143" y="696" on="1"/>
        <pt x="153" y="693" on="0"/>
        <pt x="161" y="684" on="1"/>
        <pt x="163" y="653" on="0"/>
        <pt x="171" y="597" on="0"/>
        <pt x="178" y="544" on="0"/>
        <pt x="180" y="519" on="1"/>
        <pt x="180" y="503" on="1"/>
        <pt x="180" y="486" on="0"/>
        <pt x="178" y="470" on="1"/>
        <pt x="194" y="413" on="0"/>
        <pt x="197" y="351" on="1"/>
        <pt x="198" y="306" on="0"/>
        <pt x="198" y="261" on="1"/>
      </contour>
    </TTGlyph>
    <TTGlyph name="Iacute" xMin="73" yMin="-58" xMax="246" yMax="940">
      <component glyphName="I" x="0" y="0" flags="0x204"/>
      <component glyphName="acute" x="-235" y="266" flags="0x4"/>
    </TTGlyph>
    <TTGlyph name="Icircumflex" xMin="-4" yMin="-58" xMax="220" yMax="958">
      <component glyphName="I" x="0" y="0" flags="0x204"/>
      <component glyphName="circumflex" x="-286" y="276" flags="0x4"/>
    </TTGlyph>
    <TTGlyph name="Idieresis" xMin="10" yMin="-58" xMax="228" yMax="854">
      <component glyphName="I" x="0" y="0" flags="0x204"/>
      <component glyphName="dieresis" x="-275" y="225" flags="0x4"/>
    </TTGlyph>
    <TTGlyph name="Igrave" xMin="-25" yMin="-58" xMax="198" yMax="963">
      <component glyphName="I" x="0" y="0" flags="0x204"/>
      <component glyphName="grave" x="-337" y="297" flags="0x4"/>
    </TTGlyph>
    <TTGlyph name="J" xMin="9" yMin="-116" xMax="488" yMax="729">
      <contour>
        <pt x="487" y="261" on="1"/>
        <pt x="488" y="242" on="0"/>
        <pt x="488" y="223" on="1"/>
        <pt x="488" y="141" on="0"/>
        <pt x="464" y="72" on="1"/>
        <pt x="433" y="-14" on="0"/>
        <pt x="366" y="-63" on="1"/>
        <pt x="325" y="-93" on="0"/>
        <pt x="281" y="-107" on="1"/>
        <pt x="253" y="-116" on="0"/>
        <pt x="215" y="-116" on="1"/>
        <pt x="194" y="-116" on="0"/>
        <pt x="169" y="-113" on="1"/>
        <pt x="155" y="-111" on="0"/>
        <pt x="115" y="-108" on="0"/>
        <pt x="102" y="-103" on="1"/>
        <pt x="93" y="-100" on="0"/>
        <pt x="83" y="-83" on="0"/>
        <pt x="72" y="-73" on="1"/>
        <pt x="60" y="-62" on="0"/>
        <pt x="34" y="-39" on="0"/>
        <pt x="14" y="-9" on="0"/>
        <pt x="11" y="12" on="1"/>
        <pt x="9" y="18" on="0"/>
        <pt x="9" y="25" on="1"/>
        <pt x="9" y="41" on="0"/>
        <pt x="15" y="61" on="1"/>
        <pt x="27" y="75" on="0"/>
        <pt x="47" y="107" on="0"/>
        <pt x="70" y="135" on="0"/>
        <pt x="100" y="157" on="0"/>
        <pt x="122" y="161" on="1"/>
        <pt x="134" y="144" on="0"/>
        <pt x="134" y="131" on="1"/>
        <pt x="134" y="125" on="0"/>
        <pt x="132" y="120" on="1"/>
        <pt x="124" y="102" on="0"/>
        <pt x="94" y="70" on="0"/>
        <pt x="80" y="53" on="1"/>
        <pt x="68" y="40" on="0"/>
        <pt x="68" y="23" on="1"/>
        <pt x="68" y="19" on="0"/>
        <pt x="69" y="14" on="1"/>
        <pt x="71" y="2" on="0"/>
        <pt x="82" y="-13" on="0"/>
        <pt x="97" y="-26" on="0"/>
        <pt x="113" y="-39" on="0"/>
        <pt x="119" y="-49" on="1"/>
        <pt x="160" y="-60" on="0"/>
        <pt x="196" y="-60" on="1"/>
        <pt x="227" y="-60" on="0"/>
        <pt x="255" y="-52" on="1"/>
        <pt x="315" y="-35" on="0"/>
        <pt x="398" y="50" on="0"/>
        <pt x="419" y="114" on="1"/>
        <pt x="437" y="167" on="0"/>
        <pt x="437" y="228" on="1"/>
        <pt x="437" y="239" on="0"/>
        <pt x="436" y="251" on="1"/>
        <pt x="434" y="282" on="0"/>
        <pt x="430" y="354" on="0"/>
        <pt x="426" y="392" on="1"/>
        <pt x="423" y="434" on="0"/>
        <pt x="415" y="519" on="0"/>
        <pt x="410" y="552" on="1"/>
        <pt x="407" y="572" on="0"/>
        <pt x="393" y="617" on="0"/>
        <pt x="386" y="646" on="1"/>
        <pt x="381" y="666" on="0"/>
        <pt x="379" y="684" on="1"/>
        <pt x="377" y="691" on="0"/>
        <pt x="377" y="698" on="1"/>
        <pt x="377" y="706" on="0"/>
        <pt x="379" y="713" on="1"/>
        <pt x="382" y="725" on="0"/>
        <pt x="393" y="729" on="1"/>
        <pt x="399" y="729" on="1"/>
        <pt x="409" y="729" on="0"/>
        <pt x="426" y="723" on="1"/>
        <pt x="444" y="675" on="0"/>
        <pt x="464" y="566" on="0"/>
        <pt x="476" y="447" on="0"/>
        <pt x="482" y="323" on="0"/>
      </contour>
    </TTGlyph>
    <TTGlyph name="K" xMin="20" yMin="-80" xMax="655" yMax="719">
      <contour>
        <pt x="655" y="669" on="1"/>
        <pt x="638" y="617" on="0"/>
        <pt x="587" y="529" on="0"/>
        <pt x="529" y="448" on="0"/>
        <pt x="466" y="372" on="0"/>
        <pt x="437" y="332" on="1"/>
        <pt x="423" y="323" on="0"/>
        <pt x="401" y="300" on="0"/>
        <pt x="380" y="276" on="0"/>
        <pt x="358" y="253" on="0"/>
        <pt x="344" y="245" on="1"/>
        <pt x="419" y="194" on="0"/>
        <pt x="547" y="75" on="0"/>
        <pt x="598" y="1" on="1"/>
        <pt x="594" y="-6" on="0"/>
        <pt x="594" y="-15" on="1"/>
        <pt x="594" y="-16" on="0"/>
        <pt x="595" y="-17" on="1"/>
        <pt x="595" y="-20" on="1"/>
        <pt x="595" y="-29" on="0"/>
        <pt x="591" y="-36" on="1"/>
        <pt x="575" y="-48" on="0"/>
        <pt x="565" y="-48" on="1"/>
        <pt x="563" y="-48" on="1"/>
        <pt x="552" y="-47" on="0"/>
        <pt x="536" y="-31" on="0"/>
        <pt x="522" y="-5" on="0"/>
        <pt x="514" y="7" on="1"/>
        <pt x="495" y="36" on="0"/>
        <pt x="445" y="90" on="0"/>
        <pt x="388" y="139" on="0"/>
        <pt x="327" y="180" on="0"/>
        <pt x="297" y="195" on="1"/>
        <pt x="275" y="187" on="0"/>
        <pt x="236" y="166" on="0"/>
        <pt x="210" y="161" on="1"/>
        <pt x="206" y="104" on="0"/>
        <pt x="183" y="-13" on="0"/>
        <pt x="170" y="-73" on="1"/>
        <pt x="161" y="-75" on="0"/>
        <pt x="144" y="-79" on="0"/>
        <pt x="133" y="-80" on="1"/>
        <pt x="113" y="-59" on="0"/>
        <pt x="113" y="-36" on="1"/>
        <pt x="113" y="-34" on="1"/>
        <pt x="114" y="-10" on="0"/>
        <pt x="132" y="42" on="0"/>
        <pt x="143" y="70" on="1"/>
        <pt x="151" y="92" on="0"/>
        <pt x="151" y="115" on="1"/>
        <pt x="151" y="121" on="0"/>
        <pt x="150" y="128" on="1"/>
        <pt x="139" y="128" on="0"/>
        <pt x="116" y="132" on="0"/>
        <pt x="90" y="136" on="0"/>
        <pt x="76" y="138" on="1"/>
        <pt x="46" y="138" on="1"/>
        <pt x="28" y="156" on="0"/>
        <pt x="22" y="187" on="1"/>
        <pt x="20" y="196" on="0"/>
        <pt x="20" y="204" on="1"/>
        <pt x="20" y="224" on="0"/>
        <pt x="30" y="241" on="1"/>
        <pt x="56" y="255" on="0"/>
        <pt x="84" y="266" on="1"/>
        <pt x="107" y="275" on="0"/>
        <pt x="140" y="275" on="1"/>
        <pt x="153" y="275" on="1"/>
        <pt x="152" y="323" on="0"/>
        <pt x="151" y="435" on="0"/>
        <pt x="142" y="548" on="0"/>
        <pt x="122" y="654" on="0"/>
        <pt x="103" y="696" on="1"/>
        <pt x="114" y="712" on="0"/>
        <pt x="126" y="717" on="1"/>
        <pt x="131" y="719" on="0"/>
        <pt x="137" y="719" on="1"/>
        <pt x="142" y="719" on="0"/>
        <pt x="148" y="717" on="1"/>
        <pt x="158" y="712" on="0"/>
        <pt x="173" y="685" on="0"/>
        <pt x="177" y="666" on="1"/>
        <pt x="182" y="634" on="0"/>
        <pt x="201" y="558" on="0"/>
        <pt x="203" y="516" on="1"/>
        <pt x="208" y="454" on="0"/>
        <pt x="209" y="392" on="1"/>
        <pt x="209" y="362" on="1"/>
        <pt x="209" y="319" on="0"/>
        <pt x="207" y="285" on="1"/>
        <pt x="223" y="277" on="0"/>
        <pt x="265" y="273" on="0"/>
        <pt x="280" y="265" on="1"/>
        <pt x="296" y="270" on="0"/>
        <pt x="319" y="290" on="0"/>
        <pt x="340" y="312" on="0"/>
        <pt x="360" y="334" on="0"/>
        <pt x="374" y="342" on="1"/>
        <pt x="390" y="368" on="0"/>
        <pt x="429" y="412" on="0"/>
        <pt x="468" y="457" on="0"/>
        <pt x="502" y="506" on="0"/>
        <pt x="514" y="536" on="1"/>
        <pt x="526" y="542" on="0"/>
        <pt x="540" y="563" on="0"/>
        <pt x="551" y="569" on="1"/>
        <pt x="559" y="606" on="0"/>
        <pt x="592" y="660" on="0"/>
        <pt x="611" y="686" on="1"/>
        <pt x="616" y="687" on="0"/>
        <pt x="620" y="687" on="1"/>
        <pt x="631" y="687" on="0"/>
        <pt x="638" y="683" on="1"/>
        <pt x="647" y="677" on="0"/>
      </contour>
      <contour>
        <pt x="157" y="198" on="1"/>
        <pt x="157" y="201" on="1"/>
        <pt x="157" y="216" on="0"/>
        <pt x="147" y="220" on="1"/>
        <pt x="141" y="221" on="0"/>
        <pt x="135" y="221" on="1"/>
        <pt x="128" y="221" on="0"/>
        <pt x="120" y="219" on="1"/>
        <pt x="105" y="215" on="0"/>
        <pt x="77" y="198" on="0"/>
        <pt x="73" y="191" on="1"/>
        <pt x="91" y="189" on="0"/>
        <pt x="116" y="188" on="1"/>
        <pt x="120" y="188" on="1"/>
        <pt x="142" y="188" on="0"/>
      </contour>
    </TTGlyph>
    <TTGlyph name="L" xMin="-5" yMin="-159" xMax="557" yMax="720">
      <contour>
        <pt x="557" y="-26" on="1"/>
        <pt x="557" y="-31" on="0"/>
        <pt x="550" y="-44" on="0"/>
        <pt x="539" y="-56" on="0"/>
        <pt x="524" y="-63" on="0"/>
        <pt x="516" y="-63" on="1"/>
        <pt x="502" y="-62" on="0"/>
        <pt x="473" y="-29" on="0"/>
        <pt x="456" y="-19" on="1"/>
        <pt x="433" y="-7" on="0"/>
        <pt x="373" y="9" on="0"/>
        <pt x="311" y="16" on="0"/>
        <pt x="282" y="17" on="1"/>
        <pt x="273" y="17" on="1"/>
        <pt x="249" y="17" on="0"/>
        <pt x="229" y="14" on="1"/>
        <pt x="218" y="-8" on="0"/>
        <pt x="191" y="-62" on="0"/>
        <pt x="155" y="-111" on="0"/>
        <pt x="106" y="-149" on="0"/>
        <pt x="75" y="-156" on="1"/>
        <pt x="61" y="-159" on="0"/>
        <pt x="49" y="-159" on="1"/>
        <pt x="10" y="-159" on="0"/>
        <pt x="-5" y="-123" on="1"/>
        <pt x="-5" y="-118" on="1"/>
        <pt x="-5" y="-77" on="0"/>
        <pt x="12" y="-49" on="1"/>
        <pt x="29" y="-19" on="0"/>
        <pt x="85" y="25" on="0"/>
        <pt x="153" y="56" on="0"/>
        <pt x="185" y="71" on="1"/>
        <pt x="211" y="158" on="0"/>
        <pt x="218" y="259" on="1"/>
        <pt x="220" y="290" on="0"/>
        <pt x="220" y="321" on="1"/>
        <pt x="220" y="393" on="0"/>
        <pt x="209" y="469" on="1"/>
        <pt x="205" y="495" on="0"/>
        <pt x="192" y="556" on="0"/>
        <pt x="185" y="586" on="1"/>
        <pt x="181" y="604" on="0"/>
        <pt x="171" y="639" on="0"/>
        <pt x="163" y="671" on="0"/>
        <pt x="163" y="685" on="1"/>
        <pt x="163" y="699" on="0"/>
        <pt x="169" y="710" on="1"/>
        <pt x="173" y="717" on="0"/>
        <pt x="179" y="720" on="1"/>
        <pt x="183" y="720" on="1"/>
        <pt x="190" y="720" on="0"/>
        <pt x="195" y="718" on="1"/>
        <pt x="199" y="715" on="0"/>
        <pt x="205" y="715" on="1"/>
        <pt x="208" y="715" on="0"/>
        <pt x="212" y="716" on="1"/>
        <pt x="231" y="645" on="0"/>
        <pt x="264" y="490" on="0"/>
        <pt x="271" y="410" on="1"/>
        <pt x="275" y="359" on="0"/>
        <pt x="275" y="308" on="1"/>
        <pt x="275" y="278" on="0"/>
        <pt x="274" y="249" on="1"/>
        <pt x="270" y="167" on="0"/>
        <pt x="249" y="88" on="1"/>
        <pt x="288" y="77" on="0"/>
        <pt x="370" y="65" on="0"/>
        <pt x="413" y="61" on="1"/>
        <pt x="431" y="53" on="0"/>
        <pt x="467" y="30" on="0"/>
        <pt x="490" y="21" on="1"/>
        <pt x="500" y="17" on="0"/>
        <pt x="524" y="10" on="0"/>
        <pt x="543" y="1" on="0"/>
        <pt x="557" y="-14" on="0"/>
      </contour>
      <contour>
        <pt x="152" y="-16" on="1"/>
        <pt x="115" y="-16" on="0"/>
        <pt x="60" y="-65" on="0"/>
        <pt x="55" y="-106" on="1"/>
        <pt x="94" y="-98" on="0"/>
        <pt x="136" y="-47" on="0"/>
      </contour>
    </TTGlyph>
    <TTGlyph name="Lslash" xMin="-5" yMin="-159" xMax="557" yMax="720">
      <contour>
        <pt x="557" y="-26" on="1"/>
        <pt x="557" y="-31" on="0"/>
        <pt x="550" y="-44" on="0"/>
        <pt x="539" y="-56" on="0"/>
        <pt x="524" y="-63" on="0"/>
        <pt x="516" y="-63" on="1"/>
        <pt x="502" y="-62" on="0"/>
        <pt x="473" y="-29" on="0"/>
        <pt x="456" y="-19" on="1"/>
        <pt x="433" y="-7" on="0"/>
        <pt x="373" y="9" on="0"/>
        <pt x="311" y="16" on="0"/>
        <pt x="282" y="17" on="1"/>
        <pt x="273" y="17" on="1"/>
        <pt x="249" y="17" on="0"/>
        <pt x="229" y="14" on="1"/>
        <pt x="218" y="-8" on="0"/>
        <pt x="191" y="-62" on="0"/>
        <pt x="155" y="-111" on="0"/>
        <pt x="106" y="-149" on="0"/>
        <pt x="75" y="-156" on="1"/>
        <pt x="61" y="-159" on="0"/>
        <pt x="49" y="-159" on="1"/>
        <pt x="10" y="-159" on="0"/>
        <pt x="-5" y="-123" on="1"/>
        <pt x="-5" y="-118" on="1"/>
        <pt x="-5" y="-77" on="0"/>
        <pt x="12" y="-49" on="1"/>
        <pt x="29" y="-19" on="0"/>
        <pt x="85" y="25" on="0"/>
        <pt x="153" y="56" on="0"/>
        <pt x="185" y="71" on="1"/>
        <pt x="218" y="181" on="0"/>
        <pt x="220" y="310" on="1"/>
        <pt x="206" y="305" on="0"/>
        <pt x="173" y="295" on="0"/>
        <pt x="153" y="288" on="1"/>
        <pt x="144" y="285" on="0"/>
        <pt x="124" y="274" on="0"/>
        <pt x="114" y="270" on="1"/>
        <pt x="104" y="266" on="0"/>
        <pt x="95" y="266" on="1"/>
        <pt x="94" y="266" on="0"/>
        <pt x="93" y="267" on="1"/>
        <pt x="82" y="267" on="0"/>
        <pt x="73" y="275" on="1"/>
        <pt x="70" y="286" on="0"/>
        <pt x="70" y="294" on="1"/>
        <pt x="70" y="309" on="0"/>
        <pt x="79" y="320" on="1"/>
        <pt x="121" y="336" on="0"/>
        <pt x="187" y="359" on="0"/>
        <pt x="219" y="370" on="1"/>
        <pt x="217" y="394" on="0"/>
        <pt x="213" y="443" on="0"/>
        <pt x="209" y="469" on="1"/>
        <pt x="205" y="495" on="0"/>
        <pt x="192" y="556" on="0"/>
        <pt x="185" y="586" on="1"/>
        <pt x="181" y="604" on="0"/>
        <pt x="171" y="639" on="0"/>
        <pt x="163" y="671" on="0"/>
        <pt x="163" y="685" on="1"/>
        <pt x="163" y="699" on="0"/>
        <pt x="169" y="710" on="1"/>
        <pt x="173" y="717" on="0"/>
        <pt x="179" y="720" on="1"/>
        <pt x="183" y="720" on="1"/>
        <pt x="190" y="720" on="0"/>
        <pt x="195" y="718" on="1"/>
        <pt x="199" y="715" on="0"/>
        <pt x="205" y="715" on="1"/>
        <pt x="208" y="715" on="0"/>
        <pt x="212" y="716" on="1"/>
        <pt x="233" y="640" on="0"/>
        <pt x="266" y="475" on="0"/>
        <pt x="273" y="389" on="1"/>
        <pt x="319" y="405" on="0"/>
        <pt x="381" y="432" on="1"/>
        <pt x="395" y="427" on="0"/>
        <pt x="405" y="410" on="1"/>
        <pt x="410" y="400" on="0"/>
        <pt x="410" y="391" on="1"/>
        <pt x="410" y="384" on="0"/>
        <pt x="407" y="377" on="1"/>
        <pt x="363" y="357" on="0"/>
        <pt x="303" y="335" on="0"/>
        <pt x="276" y="327" on="1"/>
        <pt x="276" y="310" on="1"/>
        <pt x="276" y="259" on="0"/>
        <pt x="271" y="208" on="1"/>
        <pt x="265" y="148" on="0"/>
        <pt x="249" y="88" on="1"/>
        <pt x="288" y="77" on="0"/>
        <pt x="370" y="65" on="0"/>
        <pt x="413" y="61" on="1"/>
        <pt x="431" y="53" on="0"/>
        <pt x="467" y="30" on="0"/>
        <pt x="490" y="21" on="1"/>
        <pt x="500" y="17" on="0"/>
        <pt x="524" y="10" on="0"/>
        <pt x="543" y="1" on="0"/>
        <pt x="557" y="-14" on="0"/>
      </contour>
      <contour>
        <pt x="152" y="-16" on="1"/>
        <pt x="115" y="-16" on="0"/>
        <pt x="60" y="-65" on="0"/>
        <pt x="55" y="-106" on="1"/>
        <pt x="94" y="-98" on="0"/>
        <pt x="136" y="-47" on="0"/>
      </contour>
    </TTGlyph>
    <TTGlyph name="M" xMin="97" yMin="-55" xMax="1014" yMax="694">
      <contour>
        <pt x="1013" y="363" on="1"/>
        <pt x="1011" y="313" on="0"/>
        <pt x="988" y="218" on="0"/>
        <pt x="955" y="131" on="0"/>
        <pt x="917" y="54" on="0"/>
        <pt x="900" y="22" on="1"/>
        <pt x="898" y="-1" on="0"/>
        <pt x="881" y="-35" on="0"/>
        <pt x="863" y="-42" on="1"/>
        <pt x="834" y="-36" on="0"/>
        <pt x="829" y="-21" on="1"/>
        <pt x="827" y="-15" on="0"/>
        <pt x="827" y="-8" on="1"/>
        <pt x="827" y="2" on="0"/>
        <pt x="832" y="15" on="1"/>
        <pt x="839" y="35" on="0"/>
        <pt x="867" y="81" on="0"/>
        <pt x="876" y="102" on="1"/>
        <pt x="895" y="144" on="0"/>
        <pt x="932" y="244" on="0"/>
        <pt x="943" y="298" on="1"/>
        <pt x="954" y="349" on="0"/>
        <pt x="954" y="403" on="1"/>
        <pt x="954" y="408" on="1"/>
        <pt x="953" y="464" on="0"/>
        <pt x="933" y="520" on="1"/>
        <pt x="929" y="531" on="0"/>
        <pt x="920" y="546" on="0"/>
        <pt x="910" y="561" on="0"/>
        <pt x="899" y="578" on="0"/>
        <pt x="893" y="590" on="1"/>
        <pt x="876" y="601" on="0"/>
        <pt x="846" y="626" on="0"/>
        <pt x="829" y="637" on="1"/>
        <pt x="819" y="637" on="1"/>
        <pt x="791" y="637" on="0"/>
        <pt x="769" y="633" on="1"/>
        <pt x="743" y="627" on="0"/>
        <pt x="699" y="605" on="0"/>
        <pt x="660" y="573" on="0"/>
        <pt x="639" y="553" on="1"/>
        <pt x="632" y="547" on="0"/>
        <pt x="606" y="522" on="0"/>
        <pt x="581" y="494" on="0"/>
        <pt x="560" y="468" on="0"/>
        <pt x="559" y="460" on="1"/>
        <pt x="557" y="452" on="0"/>
        <pt x="557" y="443" on="1"/>
        <pt x="557" y="435" on="0"/>
        <pt x="559" y="428" on="1"/>
        <pt x="561" y="410" on="0"/>
        <pt x="571" y="373" on="0"/>
        <pt x="580" y="334" on="0"/>
        <pt x="582" y="316" on="1"/>
        <pt x="583" y="306" on="0"/>
        <pt x="583" y="296" on="1"/>
        <pt x="583" y="280" on="1"/>
        <pt x="581" y="260" on="0"/>
        <pt x="579" y="246" on="1"/>
        <pt x="576" y="232" on="0"/>
        <pt x="558" y="200" on="0"/>
        <pt x="531" y="173" on="0"/>
        <pt x="515" y="165" on="1"/>
        <pt x="502" y="159" on="0"/>
        <pt x="489" y="159" on="1"/>
        <pt x="482" y="159" on="1"/>
        <pt x="457" y="162" on="0"/>
        <pt x="438" y="214" on="0"/>
        <pt x="438" y="249" on="1"/>
        <pt x="438" y="283" on="0"/>
        <pt x="451" y="356" on="0"/>
        <pt x="458" y="380" on="1"/>
        <pt x="464" y="399" on="0"/>
        <pt x="488" y="432" on="0"/>
        <pt x="492" y="453" on="1"/>
        <pt x="492" y="457" on="1"/>
        <pt x="492" y="485" on="0"/>
        <pt x="479" y="514" on="1"/>
        <pt x="464" y="544" on="0"/>
        <pt x="417" y="593" on="0"/>
        <pt x="360" y="627" on="0"/>
        <pt x="335" y="630" on="1"/>
        <pt x="325" y="631" on="0"/>
        <pt x="316" y="631" on="1"/>
        <pt x="294" y="631" on="0"/>
        <pt x="276" y="624" on="1"/>
        <pt x="250" y="614" on="0"/>
        <pt x="211" y="573" on="0"/>
        <pt x="184" y="517" on="0"/>
        <pt x="165" y="454" on="0"/>
        <pt x="150" y="389" on="0"/>
        <pt x="144" y="360" on="1"/>
        <pt x="147" y="333" on="0"/>
        <pt x="150" y="275" on="0"/>
        <pt x="154" y="216" on="0"/>
        <pt x="160" y="157" on="0"/>
        <pt x="167" y="129" on="1"/>
        <pt x="169" y="120" on="0"/>
        <pt x="179" y="104" on="0"/>
        <pt x="181" y="95" on="1"/>
        <pt x="182" y="88" on="0"/>
        <pt x="182" y="80" on="1"/>
        <pt x="182" y="70" on="1"/>
        <pt x="181" y="66" on="0"/>
        <pt x="181" y="63" on="1"/>
        <pt x="181" y="54" on="0"/>
        <pt x="184" y="45" on="1"/>
        <pt x="188" y="31" on="0"/>
        <pt x="213" y="5" on="0"/>
        <pt x="231" y="-20" on="0"/>
        <pt x="231" y="-31" on="1"/>
        <pt x="231" y="-43" on="0"/>
        <pt x="211" y="-55" on="1"/>
        <pt x="189" y="-50" on="0"/>
        <pt x="158" y="-11" on="0"/>
        <pt x="147" y="9" on="1"/>
        <pt x="135" y="34" on="0"/>
        <pt x="120" y="99" on="0"/>
        <pt x="111" y="169" on="0"/>
        <pt x="106" y="241" on="0"/>
        <pt x="104" y="273" on="1"/>
        <pt x="103" y="289" on="0"/>
        <pt x="97" y="307" on="0"/>
        <pt x="97" y="326" on="1"/>
        <pt x="98" y="374" on="0"/>
        <pt x="117" y="463" on="0"/>
        <pt x="131" y="503" on="1"/>
        <pt x="140" y="529" on="0"/>
        <pt x="151" y="564" on="0"/>
        <pt x="166" y="592" on="0"/>
        <pt x="188" y="617" on="0"/>
        <pt x="208" y="634" on="1"/>
        <pt x="222" y="645" on="0"/>
        <pt x="256" y="675" on="0"/>
        <pt x="271" y="680" on="1"/>
        <pt x="288" y="686" on="0"/>
        <pt x="305" y="686" on="1"/>
        <pt x="308" y="686" on="1"/>
        <pt x="326" y="685" on="0"/>
        <pt x="364" y="677" on="0"/>
        <pt x="402" y="665" on="0"/>
        <pt x="422" y="660" on="1"/>
        <pt x="429" y="649" on="0"/>
        <pt x="449" y="632" on="0"/>
        <pt x="472" y="617" on="0"/>
        <pt x="495" y="603" on="0"/>
        <pt x="505" y="594" on="1"/>
        <pt x="507" y="573" on="0"/>
        <pt x="526" y="547" on="0"/>
        <pt x="532" y="530" on="1"/>
        <pt x="559" y="550" on="0"/>
        <pt x="609" y="594" on="0"/>
        <pt x="662" y="637" on="0"/>
        <pt x="721" y="675" on="0"/>
        <pt x="756" y="690" on="1"/>
        <pt x="765" y="694" on="0"/>
        <pt x="782" y="694" on="1"/>
        <pt x="799" y="694" on="0"/>
        <pt x="835" y="689" on="0"/>
        <pt x="866" y="681" on="0"/>
        <pt x="873" y="677" on="1"/>
        <pt x="944" y="632" on="0"/>
        <pt x="981" y="551" on="1"/>
        <pt x="1014" y="479" on="0"/>
        <pt x="1014" y="388" on="1"/>
        <pt x="1014" y="376" on="0"/>
      </contour>
      <contour>
        <pt x="512" y="353" on="1"/>
        <pt x="504" y="326" on="0"/>
        <pt x="496" y="295" on="1"/>
        <pt x="491" y="278" on="0"/>
        <pt x="491" y="261" on="1"/>
        <pt x="491" y="245" on="0"/>
        <pt x="495" y="229" on="1"/>
        <pt x="509" y="230" on="0"/>
        <pt x="521" y="259" on="0"/>
        <pt x="522" y="279" on="1"/>
        <pt x="522" y="284" on="1"/>
        <pt x="522" y="301" on="0"/>
        <pt x="519" y="319" on="1"/>
        <pt x="516" y="340" on="0"/>
      </contour>
    </TTGlyph>
    <TTGlyph name="N" xMin="51" yMin="-83" xMax="704" yMax="722">
      <contour>
        <pt x="703" y="561" on="1"/>
        <pt x="704" y="551" on="0"/>
        <pt x="704" y="540" on="1"/>
        <pt x="704" y="524" on="1"/>
        <pt x="702" y="504" on="0"/>
        <pt x="695" y="464" on="0"/>
        <pt x="686" y="425" on="0"/>
        <pt x="683" y="407" on="1"/>
        <pt x="675" y="361" on="0"/>
        <pt x="657" y="270" on="0"/>
        <pt x="640" y="227" on="1"/>
        <pt x="612" y="158" on="0"/>
        <pt x="563" y="19" on="0"/>
        <pt x="529" y="-44" on="1"/>
        <pt x="517" y="-47" on="0"/>
        <pt x="509" y="-47" on="1"/>
        <pt x="507" y="-47" on="0"/>
        <pt x="506" y="-46" on="1"/>
        <pt x="497" y="-46" on="0"/>
        <pt x="483" y="-44" on="1"/>
        <pt x="478" y="-32" on="0"/>
        <pt x="478" y="-20" on="1"/>
        <pt x="478" y="-13" on="1"/>
        <pt x="480" y="2" on="0"/>
        <pt x="493" y="37" on="0"/>
        <pt x="514" y="75" on="0"/>
        <pt x="523" y="97" on="1"/>
        <pt x="535" y="125" on="0"/>
        <pt x="561" y="180" on="0"/>
        <pt x="570" y="207" on="1"/>
        <pt x="594" y="287" on="0"/>
        <pt x="637" y="431" on="0"/>
        <pt x="643" y="511" on="1"/>
        <pt x="644" y="519" on="0"/>
        <pt x="644" y="527" on="1"/>
        <pt x="644" y="547" on="0"/>
        <pt x="640" y="566" on="1"/>
        <pt x="635" y="592" on="0"/>
        <pt x="609" y="633" on="0"/>
        <pt x="566" y="659" on="0"/>
        <pt x="536" y="662" on="1"/>
        <pt x="527" y="662" on="1"/>
        <pt x="503" y="662" on="0"/>
        <pt x="474" y="653" on="1"/>
        <pt x="440" y="642" on="0"/>
        <pt x="412" y="631" on="1"/>
        <pt x="382" y="619" on="0"/>
        <pt x="335" y="577" on="0"/>
        <pt x="298" y="520" on="0"/>
        <pt x="269" y="453" on="0"/>
        <pt x="259" y="417" on="1"/>
        <pt x="256" y="407" on="0"/>
        <pt x="256" y="395" on="1"/>
        <pt x="256" y="382" on="0"/>
        <pt x="252" y="371" on="1"/>
        <pt x="247" y="357" on="0"/>
        <pt x="233" y="330" on="0"/>
        <pt x="220" y="302" on="0"/>
        <pt x="210" y="269" on="0"/>
        <pt x="209" y="250" on="1"/>
        <pt x="209" y="221" on="1"/>
        <pt x="210" y="204" on="0"/>
        <pt x="212" y="190" on="1"/>
        <pt x="214" y="180" on="0"/>
        <pt x="214" y="170" on="1"/>
        <pt x="214" y="164" on="1"/>
        <pt x="213" y="161" on="0"/>
        <pt x="213" y="158" on="1"/>
        <pt x="213" y="148" on="0"/>
        <pt x="215" y="140" on="1"/>
        <pt x="217" y="133" on="0"/>
        <pt x="224" y="123" on="0"/>
        <pt x="225" y="117" on="1"/>
        <pt x="225" y="112" on="1"/>
        <pt x="225" y="106" on="0"/>
        <pt x="224" y="100" on="1"/>
        <pt x="222" y="93" on="0"/>
        <pt x="222" y="87" on="1"/>
        <pt x="222" y="83" on="1"/>
        <pt x="222" y="78" on="0"/>
        <pt x="230" y="71" on="0"/>
        <pt x="232" y="66" on="1"/>
        <pt x="240" y="33" on="0"/>
        <pt x="249" y="-31" on="0"/>
        <pt x="259" y="-61" on="1"/>
        <pt x="247" y="-72" on="0"/>
        <pt x="236" y="-79" on="1"/>
        <pt x="229" y="-83" on="0"/>
        <pt x="219" y="-83" on="1"/>
        <pt x="211" y="-83" on="0"/>
        <pt x="202" y="-81" on="1"/>
        <pt x="184" y="-18" on="0"/>
        <pt x="160" y="129" on="0"/>
        <pt x="138" y="283" on="0"/>
        <pt x="113" y="435" on="0"/>
        <pt x="92" y="501" on="1"/>
        <pt x="87" y="516" on="0"/>
        <pt x="72" y="548" on="0"/>
        <pt x="59" y="578" on="0"/>
        <pt x="55" y="592" on="1"/>
        <pt x="51" y="603" on="0"/>
        <pt x="51" y="611" on="1"/>
        <pt x="51" y="615" on="1"/>
        <pt x="52" y="619" on="0"/>
        <pt x="55" y="631" on="0"/>
        <pt x="63" y="642" on="0"/>
        <pt x="71" y="645" on="1"/>
        <pt x="75" y="647" on="0"/>
        <pt x="80" y="647" on="1"/>
        <pt x="86" y="647" on="0"/>
        <pt x="92" y="645" on="1"/>
        <pt x="102" y="643" on="0"/>
        <pt x="114" y="621" on="0"/>
        <pt x="123" y="591" on="0"/>
        <pt x="130" y="556" on="0"/>
        <pt x="135" y="541" on="1"/>
        <pt x="142" y="521" on="0"/>
        <pt x="158" y="486" on="0"/>
        <pt x="158" y="458" on="1"/>
        <pt x="165" y="449" on="0"/>
        <pt x="171" y="424" on="0"/>
        <pt x="175" y="397" on="0"/>
        <pt x="181" y="373" on="0"/>
        <pt x="188" y="364" on="1"/>
        <pt x="201" y="401" on="0"/>
        <pt x="228" y="475" on="0"/>
        <pt x="258" y="545" on="0"/>
        <pt x="293" y="610" on="0"/>
        <pt x="315" y="638" on="1"/>
        <pt x="335" y="645" on="0"/>
        <pt x="365" y="665" on="0"/>
        <pt x="379" y="678" on="1"/>
        <pt x="420" y="693" on="0"/>
        <pt x="498" y="708" on="0"/>
        <pt x="536" y="722" on="1"/>
        <pt x="568" y="711" on="0"/>
        <pt x="625" y="686" on="0"/>
        <pt x="670" y="648" on="0"/>
        <pt x="699" y="597" on="0"/>
      </contour>
    </TTGlyph>
    <TTGlyph name="Ntilde" xMin="51" yMin="-83" xMax="704" yMax="909">
      <component glyphName="N" x="0" y="0" flags="0x204"/>
      <component glyphName="tilde" x="-9" y="246" flags="0x4"/>
    </TTGlyph>
    <TTGlyph name="O" xMin="46" yMin="11" xMax="774" yMax="723">
      <contour>
        <pt x="774" y="352" on="1"/>
        <pt x="773" y="319" on="0"/>
        <pt x="756" y="259" on="0"/>
        <pt x="732" y="204" on="0"/>
        <pt x="703" y="154" on="0"/>
        <pt x="691" y="132" on="1"/>
        <pt x="675" y="124" on="0"/>
        <pt x="650" y="99" on="0"/>
        <pt x="624" y="73" on="0"/>
        <pt x="596" y="49" on="0"/>
        <pt x="577" y="42" on="1"/>
        <pt x="569" y="38" on="0"/>
        <pt x="556" y="38" on="1"/>
        <pt x="543" y="38" on="0"/>
        <pt x="530" y="35" on="1"/>
        <pt x="521" y="32" on="0"/>
        <pt x="495" y="24" on="0"/>
        <pt x="466" y="16" on="0"/>
        <pt x="451" y="13" on="1"/>
        <pt x="439" y="11" on="0"/>
        <pt x="428" y="11" on="1"/>
        <pt x="420" y="11" on="1"/>
        <pt x="411" y="12" on="0"/>
        <pt x="395" y="20" on="0"/>
        <pt x="387" y="22" on="1"/>
        <pt x="367" y="25" on="0"/>
        <pt x="346" y="25" on="1"/>
        <pt x="330" y="25" on="1"/>
        <pt x="323" y="24" on="0"/>
        <pt x="316" y="24" on="1"/>
        <pt x="294" y="24" on="0"/>
        <pt x="273" y="28" on="1"/>
        <pt x="263" y="30" on="0"/>
        <pt x="254" y="36" on="1"/>
        <pt x="248" y="40" on="0"/>
        <pt x="242" y="40" on="1"/>
        <pt x="237" y="40" on="0"/>
        <pt x="233" y="38" on="1"/>
        <pt x="215" y="53" on="0"/>
        <pt x="173" y="79" on="0"/>
        <pt x="133" y="106" on="0"/>
        <pt x="95" y="137" on="0"/>
        <pt x="82" y="159" on="1"/>
        <pt x="63" y="190" on="0"/>
        <pt x="47" y="264" on="0"/>
        <pt x="46" y="305" on="1"/>
        <pt x="46" y="319" on="1"/>
        <pt x="46" y="353" on="0"/>
        <pt x="50" y="388" on="1"/>
        <pt x="54" y="431" on="0"/>
        <pt x="59" y="473" on="1"/>
        <pt x="82" y="515" on="0"/>
        <pt x="126" y="602" on="0"/>
        <pt x="156" y="637" on="1"/>
        <pt x="182" y="654" on="0"/>
        <pt x="235" y="682" on="0"/>
        <pt x="270" y="697" on="1"/>
        <pt x="296" y="708" on="0"/>
        <pt x="361" y="721" on="0"/>
        <pt x="396" y="723" on="1"/>
        <pt x="417" y="723" on="1"/>
        <pt x="442" y="723" on="0"/>
        <pt x="467" y="721" on="1"/>
        <pt x="503" y="717" on="0"/>
        <pt x="537" y="707" on="1"/>
        <pt x="550" y="703" on="0"/>
        <pt x="589" y="686" on="0"/>
        <pt x="628" y="667" on="0"/>
        <pt x="663" y="646" on="0"/>
        <pt x="674" y="637" on="1"/>
        <pt x="689" y="625" on="0"/>
        <pt x="708" y="596" on="0"/>
        <pt x="725" y="566" on="0"/>
        <pt x="740" y="536" on="0"/>
        <pt x="751" y="523" on="1"/>
        <pt x="752" y="500" on="0"/>
        <pt x="761" y="458" on="0"/>
        <pt x="769" y="416" on="0"/>
        <pt x="772" y="395" on="1"/>
        <pt x="774" y="379" on="0"/>
        <pt x="774" y="363" on="1"/>
      </contour>
      <contour>
        <pt x="718" y="403" on="1"/>
        <pt x="707" y="507" on="0"/>
        <pt x="605" y="621" on="0"/>
        <pt x="514" y="650" on="1"/>
        <pt x="496" y="655" on="0"/>
        <pt x="455" y="668" on="0"/>
        <pt x="440" y="670" on="1"/>
        <pt x="438" y="670" on="1"/>
        <pt x="433" y="670" on="0"/>
        <pt x="429" y="667" on="1"/>
        <pt x="424" y="663" on="0"/>
        <pt x="417" y="663" on="1"/>
        <pt x="409" y="663" on="0"/>
        <pt x="398" y="670" on="0"/>
        <pt x="393" y="670" on="1"/>
        <pt x="299" y="666" on="0"/>
        <pt x="158" y="563" on="0"/>
        <pt x="126" y="483" on="1"/>
        <pt x="115" y="438" on="0"/>
        <pt x="107" y="396" on="1"/>
        <pt x="99" y="358" on="0"/>
        <pt x="99" y="321" on="1"/>
        <pt x="99" y="312" on="1"/>
        <pt x="100" y="247" on="0"/>
        <pt x="158" y="153" on="0"/>
        <pt x="249" y="94" on="0"/>
        <pt x="306" y="81" on="1"/>
        <pt x="351" y="71" on="0"/>
        <pt x="397" y="71" on="1"/>
        <pt x="409" y="71" on="0"/>
        <pt x="422" y="72" on="1"/>
        <pt x="481" y="75" on="0"/>
        <pt x="590" y="114" on="0"/>
        <pt x="631" y="149" on="1"/>
        <pt x="649" y="171" on="0"/>
        <pt x="683" y="228" on="0"/>
        <pt x="709" y="294" on="0"/>
        <pt x="716" y="330" on="1"/>
        <pt x="720" y="351" on="0"/>
        <pt x="720" y="374" on="1"/>
        <pt x="720" y="389" on="0"/>
      </contour>
    </TTGlyph>
    <TTGlyph name="OE" xMin="46" yMin="-62" xMax="1186" yMax="702">
      <contour>
        <pt x="1186" y="10" on="1"/>
        <pt x="1161" y="0" on="0"/>
        <pt x="1108" y="-28" on="0"/>
        <pt x="1051" y="-52" on="0"/>
        <pt x="1020" y="-58" on="1"/>
        <pt x="1002" y="-62" on="0"/>
        <pt x="983" y="-62" on="1"/>
        <pt x="968" y="-62" on="0"/>
        <pt x="952" y="-60" on="1"/>
        <pt x="902" y="-53" on="0"/>
        <pt x="822" y="-6" on="0"/>
        <pt x="785" y="16" on="1"/>
        <pt x="774" y="36" on="0"/>
        <pt x="746" y="66" on="0"/>
        <pt x="732" y="83" on="1"/>
        <pt x="723" y="106" on="0"/>
        <pt x="717" y="130" on="1"/>
        <pt x="710" y="118" on="0"/>
        <pt x="697" y="95" on="0"/>
        <pt x="691" y="84" on="1"/>
        <pt x="675" y="76" on="0"/>
        <pt x="650" y="51" on="0"/>
        <pt x="624" y="25" on="0"/>
        <pt x="596" y="1" on="0"/>
        <pt x="577" y="-6" on="1"/>
        <pt x="569" y="-9" on="0"/>
        <pt x="556" y="-9" on="1"/>
        <pt x="543" y="-9" on="0"/>
        <pt x="530" y="-13" on="1"/>
        <pt x="521" y="-16" on="0"/>
        <pt x="495" y="-24" on="0"/>
        <pt x="466" y="-32" on="0"/>
        <pt x="451" y="-34" on="1"/>
        <pt x="439" y="-36" on="0"/>
        <pt x="429" y="-36" on="1"/>
        <pt x="420" y="-36" on="1"/>
        <pt x="411" y="-35" on="0"/>
        <pt x="395" y="-28" on="0"/>
        <pt x="387" y="-26" on="1"/>
        <pt x="365" y="-23" on="0"/>
        <pt x="341" y="-23" on="1"/>
        <pt x="320" y="-23" on="1"/>
        <pt x="295" y="-23" on="0"/>
        <pt x="273" y="-19" on="1"/>
        <pt x="263" y="-17" on="0"/>
        <pt x="254" y="-11" on="1"/>
        <pt x="247" y="-8" on="0"/>
        <pt x="241" y="-8" on="1"/>
        <pt x="237" y="-8" on="0"/>
        <pt x="233" y="-9" on="1"/>
        <pt x="215" y="6" on="0"/>
        <pt x="173" y="31" on="0"/>
        <pt x="133" y="58" on="0"/>
        <pt x="95" y="90" on="0"/>
        <pt x="82" y="111" on="1"/>
        <pt x="63" y="142" on="0"/>
        <pt x="47" y="217" on="0"/>
        <pt x="46" y="258" on="1"/>
        <pt x="46" y="272" on="1"/>
        <pt x="46" y="306" on="0"/>
        <pt x="50" y="341" on="1"/>
        <pt x="54" y="383" on="0"/>
        <pt x="59" y="425" on="1"/>
        <pt x="82" y="467" on="0"/>
        <pt x="126" y="554" on="0"/>
        <pt x="156" y="589" on="1"/>
        <pt x="182" y="606" on="0"/>
        <pt x="235" y="634" on="0"/>
        <pt x="270" y="649" on="1"/>
        <pt x="296" y="660" on="0"/>
        <pt x="361" y="673" on="0"/>
        <pt x="396" y="675" on="1"/>
        <pt x="417" y="675" on="1"/>
        <pt x="442" y="675" on="0"/>
        <pt x="467" y="673" on="1"/>
        <pt x="503" y="669" on="0"/>
        <pt x="537" y="659" on="1"/>
        <pt x="550" y="655" on="0"/>
        <pt x="589" y="639" on="0"/>
        <pt x="628" y="619" on="0"/>
        <pt x="663" y="598" on="0"/>
        <pt x="674" y="589" on="1"/>
        <pt x="688" y="578" on="0"/>
        <pt x="707" y="550" on="0"/>
        <pt x="724" y="520" on="0"/>
        <pt x="739" y="491" on="0"/>
        <pt x="749" y="478" on="1"/>
        <pt x="747" y="489" on="0"/>
        <pt x="747" y="501" on="1"/>
        <pt x="747" y="517" on="0"/>
        <pt x="751" y="533" on="1"/>
        <pt x="756" y="560" on="0"/>
        <pt x="782" y="608" on="0"/>
        <pt x="821" y="648" on="0"/>
        <pt x="845" y="662" on="1"/>
        <pt x="888" y="685" on="0"/>
        <pt x="992" y="698" on="0"/>
        <pt x="1043" y="702" on="1"/>
        <pt x="1061" y="689" on="0"/>
        <pt x="1104" y="669" on="0"/>
        <pt x="1143" y="645" on="0"/>
        <pt x="1175" y="615" on="0"/>
        <pt x="1183" y="591" on="1"/>
        <pt x="1170" y="575" on="0"/>
        <pt x="1157" y="575" on="1"/>
        <pt x="1154" y="575" on="0"/>
        <pt x="1150" y="577" on="1"/>
        <pt x="1133" y="582" on="0"/>
        <pt x="1094" y="612" on="0"/>
        <pt x="1050" y="645" on="0"/>
        <pt x="1023" y="648" on="1"/>
        <pt x="1012" y="649" on="0"/>
        <pt x="1001" y="649" on="1"/>
        <pt x="979" y="649" on="0"/>
        <pt x="957" y="645" on="1"/>
        <pt x="923" y="637" on="0"/>
        <pt x="862" y="606" on="0"/>
        <pt x="816" y="561" on="0"/>
        <pt x="806" y="536" on="1"/>
        <pt x="799" y="519" on="0"/>
        <pt x="799" y="502" on="1"/>
        <pt x="799" y="493" on="0"/>
        <pt x="801" y="483" on="1"/>
        <pt x="807" y="455" on="0"/>
        <pt x="835" y="428" on="1"/>
        <pt x="862" y="436" on="0"/>
        <pt x="917" y="458" on="0"/>
        <pt x="972" y="473" on="0"/>
        <pt x="1001" y="473" on="1"/>
        <pt x="1029" y="473" on="0"/>
        <pt x="1059" y="458" on="1"/>
        <pt x="1066" y="449" on="0"/>
        <pt x="1081" y="431" on="0"/>
        <pt x="1092" y="411" on="0"/>
        <pt x="1095" y="401" on="1"/>
        <pt x="1095" y="392" on="1"/>
        <pt x="1095" y="385" on="0"/>
        <pt x="1093" y="377" on="1"/>
        <pt x="1085" y="351" on="0"/>
        <pt x="1019" y="328" on="0"/>
        <pt x="979" y="327" on="1"/>
        <pt x="971" y="327" on="1"/>
        <pt x="935" y="327" on="0"/>
        <pt x="901" y="335" on="1"/>
        <pt x="862" y="343" on="0"/>
        <pt x="842" y="357" on="1"/>
        <pt x="827" y="337" on="0"/>
        <pt x="793" y="297" on="0"/>
        <pt x="767" y="252" on="0"/>
        <pt x="761" y="226" on="1"/>
        <pt x="758" y="214" on="0"/>
        <pt x="758" y="201" on="1"/>
        <pt x="758" y="185" on="0"/>
        <pt x="762" y="167" on="1"/>
        <pt x="771" y="123" on="0"/>
        <pt x="836" y="46" on="0"/>
        <pt x="928" y="-1" on="0"/>
        <pt x="981" y="-5" on="1"/>
        <pt x="988" y="-6" on="0"/>
        <pt x="996" y="-6" on="1"/>
        <pt x="1041" y="-6" on="0"/>
        <pt x="1083" y="16" on="1"/>
        <pt x="1091" y="20" on="0"/>
        <pt x="1108" y="37" on="0"/>
        <pt x="1126" y="52" on="0"/>
        <pt x="1144" y="63" on="0"/>
        <pt x="1153" y="63" on="1"/>
        <pt x="1176" y="63" on="0"/>
        <pt x="1186" y="33" on="0"/>
      </contour>
      <contour>
        <pt x="1039" y="387" on="1"/>
        <pt x="1033" y="406" on="0"/>
        <pt x="1016" y="413" on="1"/>
        <pt x="1001" y="418" on="0"/>
        <pt x="985" y="418" on="1"/>
        <pt x="978" y="418" on="1"/>
        <pt x="958" y="416" on="0"/>
        <pt x="919" y="400" on="0"/>
        <pt x="909" y="391" on="1"/>
        <pt x="935" y="382" on="0"/>
        <pt x="973" y="381" on="1"/>
        <pt x="982" y="381" on="1"/>
        <pt x="1014" y="381" on="0"/>
      </contour>
      <contour>
        <pt x="789" y="391" on="1"/>
        <pt x="775" y="407" on="0"/>
        <pt x="758" y="441" on="0"/>
        <pt x="753" y="458" on="1"/>
        <pt x="755" y="433" on="0"/>
        <pt x="766" y="385" on="0"/>
        <pt x="770" y="361" on="1"/>
        <pt x="775" y="369" on="0"/>
        <pt x="784" y="383" on="0"/>
      </contour>
      <contour>
        <pt x="718" y="355" on="1"/>
        <pt x="707" y="459" on="0"/>
        <pt x="605" y="573" on="0"/>
        <pt x="514" y="602" on="1"/>
        <pt x="496" y="608" on="0"/>
        <pt x="455" y="620" on="0"/>
        <pt x="440" y="622" on="1"/>
        <pt x="438" y="623" on="0"/>
        <pt x="436" y="623" on="1"/>
        <pt x="432" y="623" on="0"/>
        <pt x="429" y="620" on="1"/>
        <pt x="424" y="616" on="0"/>
        <pt x="417" y="616" on="1"/>
        <pt x="409" y="616" on="0"/>
        <pt x="404" y="620" on="1"/>
        <pt x="399" y="622" on="0"/>
        <pt x="395" y="622" on="1"/>
        <pt x="393" y="622" on="1"/>
        <pt x="346" y="620" on="0"/>
        <pt x="263" y="592" on="0"/>
        <pt x="194" y="542" on="0"/>
        <pt x="142" y="475" on="0"/>
        <pt x="126" y="435" on="1"/>
        <pt x="115" y="390" on="0"/>
        <pt x="107" y="349" on="1"/>
        <pt x="99" y="311" on="0"/>
        <pt x="99" y="274" on="1"/>
        <pt x="99" y="265" on="1"/>
        <pt x="100" y="200" on="0"/>
        <pt x="158" y="105" on="0"/>
        <pt x="249" y="46" on="0"/>
        <pt x="306" y="33" on="1"/>
        <pt x="351" y="23" on="0"/>
        <pt x="397" y="23" on="1"/>
        <pt x="409" y="23" on="0"/>
        <pt x="422" y="24" on="1"/>
        <pt x="481" y="27" on="0"/>
        <pt x="590" y="66" on="0"/>
        <pt x="631" y="101" on="1"/>
        <pt x="649" y="124" on="0"/>
        <pt x="683" y="181" on="0"/>
        <pt x="709" y="246" on="0"/>
        <pt x="716" y="282" on="1"/>
        <pt x="720" y="303" on="0"/>
        <pt x="720" y="326" on="1"/>
        <pt x="720" y="341" on="0"/>
      </contour>
    </TTGlyph>
    <TTGlyph name="Oacute" xMin="46" yMin="11" xMax="774" yMax="940">
      <component glyphName="O" x="0" y="0" flags="0x204"/>
      <component glyphName="acute" x="41" y="266" flags="0x4"/>
    </TTGlyph>
    <TTGlyph name="Ocircumflex" xMin="46" yMin="11" xMax="774" yMax="979">
      <component glyphName="O" x="0" y="0" flags="0x204"/>
      <component glyphName="circumflex" x="31" y="297" flags="0x4"/>
    </TTGlyph>
    <TTGlyph name="Odieresis" xMin="46" yMin="11" xMax="774" yMax="865">
      <component glyphName="O" x="0" y="0" flags="0x204"/>
      <component glyphName="dieresis" x="10" y="236" flags="0x4"/>
    </TTGlyph>
    <TTGlyph name="Ograve" xMin="46" yMin="11" xMax="774" yMax="953">
      <component glyphName="O" x="0" y="0" flags="0x204"/>
      <component glyphName="grave" x="20" y="287" flags="0x4"/>
    </TTGlyph>
    <TTGlyph name="Oslash" xMin="46" yMin="-124" xMax="774" yMax="746">
      <contour>
        <pt x="774" y="308" on="1"/>
        <pt x="773" y="275" on="0"/>
        <pt x="756" y="214" on="0"/>
        <pt x="732" y="159" on="0"/>
        <pt x="703" y="109" on="0"/>
        <pt x="691" y="87" on="1"/>
        <pt x="675" y="79" on="0"/>
        <pt x="650" y="54" on="0"/>
        <pt x="624" y="28" on="0"/>
        <pt x="596" y="4" on="0"/>
        <pt x="577" y="-3" on="1"/>
        <pt x="570" y="-7" on="0"/>
        <pt x="559" y="-7" on="1"/>
        <pt x="557" y="-7" on="0"/>
        <pt x="556" y="-6" on="1"/>
        <pt x="553" y="-6" on="1"/>
        <pt x="542" y="-6" on="0"/>
        <pt x="530" y="-10" on="1"/>
        <pt x="521" y="-13" on="0"/>
        <pt x="495" y="-21" on="0"/>
        <pt x="466" y="-29" on="0"/>
        <pt x="451" y="-31" on="1"/>
        <pt x="439" y="-33" on="0"/>
        <pt x="429" y="-33" on="1"/>
        <pt x="420" y="-33" on="1"/>
        <pt x="411" y="-33" on="0"/>
        <pt x="395" y="-25" on="0"/>
        <pt x="387" y="-23" on="1"/>
        <pt x="367" y="-20" on="0"/>
        <pt x="346" y="-20" on="1"/>
        <pt x="330" y="-20" on="1"/>
        <pt x="323" y="-21" on="0"/>
        <pt x="316" y="-21" on="1"/>
        <pt x="294" y="-21" on="0"/>
        <pt x="273" y="-17" on="1"/>
        <pt x="266" y="-15" on="0"/>
        <pt x="252" y="-8" on="0"/>
        <pt x="244" y="-6" on="1"/>
        <pt x="227" y="-35" on="0"/>
        <pt x="194" y="-90" on="0"/>
        <pt x="176" y="-118" on="1"/>
        <pt x="170" y="-120" on="0"/>
        <pt x="159" y="-123" on="1"/>
        <pt x="155" y="-124" on="0"/>
        <pt x="152" y="-124" on="1"/>
        <pt x="146" y="-124" on="0"/>
        <pt x="143" y="-121" on="1"/>
        <pt x="131" y="-108" on="0"/>
        <pt x="129" y="-98" on="1"/>
        <pt x="127" y="-94" on="0"/>
        <pt x="127" y="-90" on="1"/>
        <pt x="127" y="-84" on="0"/>
        <pt x="130" y="-79" on="1"/>
        <pt x="133" y="-70" on="0"/>
        <pt x="148" y="-52" on="0"/>
        <pt x="156" y="-41" on="1"/>
        <pt x="167" y="-27" on="0"/>
        <pt x="186" y="4" on="0"/>
        <pt x="196" y="20" on="1"/>
        <pt x="165" y="40" on="0"/>
        <pt x="102" y="81" on="0"/>
        <pt x="82" y="114" on="1"/>
        <pt x="63" y="145" on="0"/>
        <pt x="47" y="219" on="0"/>
        <pt x="46" y="260" on="1"/>
        <pt x="46" y="274" on="1"/>
        <pt x="46" y="308" on="0"/>
        <pt x="50" y="343" on="1"/>
        <pt x="54" y="386" on="0"/>
        <pt x="59" y="428" on="1"/>
        <pt x="82" y="470" on="0"/>
        <pt x="126" y="557" on="0"/>
        <pt x="156" y="592" on="1"/>
        <pt x="182" y="609" on="0"/>
        <pt x="235" y="637" on="0"/>
        <pt x="270" y="652" on="1"/>
        <pt x="296" y="663" on="0"/>
        <pt x="361" y="676" on="0"/>
        <pt x="396" y="678" on="1"/>
        <pt x="417" y="678" on="1"/>
        <pt x="442" y="678" on="0"/>
        <pt x="467" y="676" on="1"/>
        <pt x="503" y="672" on="0"/>
        <pt x="537" y="662" on="1"/>
        <pt x="542" y="660" on="0"/>
        <pt x="553" y="657" on="0"/>
        <pt x="559" y="654" on="1"/>
        <pt x="570" y="671" on="0"/>
        <pt x="587" y="710" on="0"/>
        <pt x="591" y="735" on="1"/>
        <pt x="606" y="746" on="0"/>
        <pt x="622" y="746" on="1"/>
        <pt x="627" y="746" on="0"/>
        <pt x="633" y="745" on="1"/>
        <pt x="654" y="739" on="0"/>
        <pt x="654" y="715" on="1"/>
        <pt x="654" y="709" on="0"/>
        <pt x="645" y="693" on="0"/>
        <pt x="633" y="674" on="0"/>
        <pt x="621" y="654" on="0"/>
        <pt x="617" y="645" on="1"/>
        <pt x="616" y="640" on="0"/>
        <pt x="612" y="630" on="1"/>
        <pt x="631" y="620" on="0"/>
        <pt x="664" y="600" on="0"/>
        <pt x="674" y="592" on="1"/>
        <pt x="689" y="580" on="0"/>
        <pt x="708" y="551" on="0"/>
        <pt x="725" y="521" on="0"/>
        <pt x="740" y="491" on="0"/>
        <pt x="751" y="478" on="1"/>
        <pt x="752" y="455" on="0"/>
        <pt x="761" y="413" on="0"/>
        <pt x="769" y="371" on="0"/>
        <pt x="772" y="351" on="1"/>
        <pt x="774" y="335" on="0"/>
        <pt x="774" y="319" on="1"/>
      </contour>
      <contour>
        <pt x="718" y="358" on="1"/>
        <pt x="710" y="439" on="0"/>
        <pt x="645" y="542" on="0"/>
        <pt x="588" y="574" on="1"/>
        <pt x="571" y="539" on="0"/>
        <pt x="534" y="476" on="0"/>
        <pt x="517" y="457" on="1"/>
        <pt x="489" y="399" on="0"/>
        <pt x="425" y="292" on="0"/>
        <pt x="387" y="243" on="1"/>
        <pt x="358" y="193" on="0"/>
        <pt x="303" y="95" on="0"/>
        <pt x="274" y="45" on="1"/>
        <pt x="318" y="30" on="0"/>
        <pt x="367" y="27" on="1"/>
        <pt x="381" y="26" on="0"/>
        <pt x="395" y="26" on="1"/>
        <pt x="430" y="26" on="0"/>
        <pt x="464" y="32" on="1"/>
        <pt x="511" y="39" on="0"/>
        <pt x="598" y="75" on="0"/>
        <pt x="631" y="104" on="1"/>
        <pt x="649" y="126" on="0"/>
        <pt x="683" y="183" on="0"/>
        <pt x="709" y="249" on="0"/>
        <pt x="716" y="285" on="1"/>
        <pt x="720" y="306" on="0"/>
        <pt x="720" y="329" on="1"/>
        <pt x="720" y="344" on="0"/>
      </contour>
      <contour>
        <pt x="538" y="597" on="1"/>
        <pt x="532" y="599" on="0"/>
        <pt x="520" y="603" on="0"/>
        <pt x="514" y="605" on="1"/>
        <pt x="496" y="611" on="0"/>
        <pt x="455" y="623" on="0"/>
        <pt x="440" y="625" on="1"/>
        <pt x="437" y="625" on="1"/>
        <pt x="433" y="625" on="0"/>
        <pt x="429" y="623" on="1"/>
        <pt x="424" y="619" on="0"/>
        <pt x="417" y="619" on="1"/>
        <pt x="414" y="619" on="1"/>
        <pt x="408" y="619" on="0"/>
        <pt x="404" y="622" on="1"/>
        <pt x="398" y="625" on="0"/>
        <pt x="393" y="625" on="1"/>
        <pt x="346" y="623" on="0"/>
        <pt x="263" y="595" on="0"/>
        <pt x="194" y="545" on="0"/>
        <pt x="142" y="478" on="0"/>
        <pt x="126" y="438" on="1"/>
        <pt x="115" y="393" on="0"/>
        <pt x="107" y="352" on="1"/>
        <pt x="99" y="314" on="0"/>
        <pt x="99" y="277" on="1"/>
        <pt x="99" y="268" on="1"/>
        <pt x="101" y="195" on="0"/>
        <pt x="170" y="95" on="0"/>
        <pt x="224" y="66" on="1"/>
        <pt x="255" y="120" on="0"/>
        <pt x="315" y="226" on="0"/>
        <pt x="347" y="267" on="1"/>
        <pt x="347" y="271" on="1"/>
        <pt x="347" y="279" on="0"/>
        <pt x="350" y="284" on="1"/>
        <pt x="400" y="359" on="0"/>
        <pt x="493" y="516" on="0"/>
      </contour>
    </TTGlyph>
    <TTGlyph name="Otilde" xMin="46" yMin="11" xMax="774" yMax="919">
      <component glyphName="O" x="0" y="0" flags="0x204"/>
      <component glyphName="tilde" x="20" y="256" flags="0x4"/>
    </TTGlyph>
    <TTGlyph name="P" xMin="57" yMin="-103" xMax="639" yMax="733">
      <contour>
        <pt x="638" y="452" on="1"/>
        <pt x="637" y="435" on="0"/>
        <pt x="630" y="392" on="0"/>
        <pt x="622" y="375" on="1"/>
        <pt x="610" y="348" on="0"/>
        <pt x="561" y="300" on="0"/>
        <pt x="499" y="264" on="0"/>
        <pt x="463" y="255" on="1"/>
        <pt x="440" y="249" on="0"/>
        <pt x="417" y="249" on="1"/>
        <pt x="404" y="249" on="0"/>
        <pt x="391" y="251" on="1"/>
        <pt x="379" y="253" on="0"/>
        <pt x="344" y="269" on="0"/>
        <pt x="318" y="294" on="0"/>
        <pt x="314" y="311" on="1"/>
        <pt x="313" y="315" on="0"/>
        <pt x="313" y="319" on="1"/>
        <pt x="313" y="332" on="0"/>
        <pt x="324" y="348" on="1"/>
        <pt x="333" y="351" on="0"/>
        <pt x="341" y="351" on="1"/>
        <pt x="349" y="351" on="1"/>
        <pt x="360" y="348" on="0"/>
        <pt x="371" y="345" on="1"/>
        <pt x="374" y="342" on="0"/>
        <pt x="376" y="332" on="0"/>
        <pt x="379" y="322" on="0"/>
        <pt x="383" y="313" on="0"/>
        <pt x="388" y="312" on="1"/>
        <pt x="397" y="311" on="0"/>
        <pt x="405" y="311" on="1"/>
        <pt x="444" y="311" on="0"/>
        <pt x="476" y="323" on="1"/>
        <pt x="515" y="337" on="0"/>
        <pt x="566" y="393" on="0"/>
        <pt x="576" y="432" on="1"/>
        <pt x="582" y="453" on="0"/>
        <pt x="582" y="476" on="1"/>
        <pt x="582" y="495" on="0"/>
        <pt x="578" y="515" on="1"/>
        <pt x="572" y="549" on="0"/>
        <pt x="537" y="598" on="0"/>
        <pt x="487" y="635" on="0"/>
        <pt x="429" y="663" on="0"/>
        <pt x="401" y="676" on="1"/>
        <pt x="390" y="677" on="0"/>
        <pt x="380" y="677" on="1"/>
        <pt x="335" y="677" on="0"/>
        <pt x="295" y="663" on="1"/>
        <pt x="246" y="645" on="0"/>
        <pt x="207" y="622" on="1"/>
        <pt x="234" y="541" on="0"/>
        <pt x="261" y="370" on="0"/>
        <pt x="263" y="281" on="1"/>
        <pt x="263" y="241" on="1"/>
        <pt x="263" y="171" on="0"/>
        <pt x="258" y="99" on="1"/>
        <pt x="251" y="7" on="0"/>
        <pt x="237" y="-86" on="1"/>
        <pt x="229" y="-100" on="0"/>
        <pt x="211" y="-102" on="1"/>
        <pt x="208" y="-103" on="0"/>
        <pt x="205" y="-103" on="1"/>
        <pt x="191" y="-103" on="0"/>
        <pt x="180" y="-93" on="1"/>
        <pt x="174" y="-76" on="0"/>
        <pt x="174" y="-62" on="1"/>
        <pt x="174" y="-58" on="0"/>
        <pt x="175" y="-53" on="1"/>
        <pt x="177" y="-36" on="0"/>
        <pt x="187" y="-19" on="1"/>
        <pt x="195" y="47" on="0"/>
        <pt x="205" y="172" on="0"/>
        <pt x="207" y="241" on="1"/>
        <pt x="207" y="268" on="1"/>
        <pt x="207" y="340" on="0"/>
        <pt x="198" y="408" on="1"/>
        <pt x="187" y="487" on="0"/>
        <pt x="167" y="566" on="1"/>
        <pt x="157" y="561" on="0"/>
        <pt x="138" y="543" on="0"/>
        <pt x="122" y="517" on="0"/>
        <pt x="113" y="484" on="0"/>
        <pt x="113" y="465" on="1"/>
        <pt x="142" y="462" on="0"/>
        <pt x="149" y="449" on="1"/>
        <pt x="152" y="442" on="0"/>
        <pt x="152" y="436" on="1"/>
        <pt x="152" y="429" on="0"/>
        <pt x="148" y="422" on="1"/>
        <pt x="140" y="408" on="0"/>
        <pt x="121" y="401" on="1"/>
        <pt x="113" y="398" on="0"/>
        <pt x="105" y="398" on="1"/>
        <pt x="92" y="398" on="0"/>
        <pt x="77" y="405" on="1"/>
        <pt x="72" y="421" on="0"/>
        <pt x="58" y="450" on="0"/>
        <pt x="57" y="465" on="1"/>
        <pt x="57" y="475" on="1"/>
        <pt x="57" y="495" on="0"/>
        <pt x="63" y="513" on="1"/>
        <pt x="71" y="536" on="0"/>
        <pt x="97" y="577" on="0"/>
        <pt x="128" y="612" on="0"/>
        <pt x="140" y="626" on="1"/>
        <pt x="137" y="635" on="0"/>
        <pt x="128" y="652" on="0"/>
        <pt x="121" y="669" on="0"/>
        <pt x="119" y="679" on="1"/>
        <pt x="118" y="682" on="0"/>
        <pt x="118" y="686" on="1"/>
        <pt x="118" y="692" on="0"/>
        <pt x="120" y="699" on="1"/>
        <pt x="134" y="705" on="0"/>
        <pt x="144" y="708" on="1"/>
        <pt x="147" y="709" on="0"/>
        <pt x="151" y="709" on="1"/>
        <pt x="158" y="709" on="0"/>
        <pt x="167" y="706" on="1"/>
        <pt x="176" y="703" on="0"/>
        <pt x="179" y="681" on="0"/>
        <pt x="184" y="673" on="1"/>
        <pt x="203" y="677" on="0"/>
        <pt x="237" y="692" on="0"/>
        <pt x="268" y="709" on="0"/>
        <pt x="299" y="726" on="0"/>
        <pt x="317" y="733" on="1"/>
        <pt x="386" y="732" on="0"/>
        <pt x="508" y="697" on="0"/>
        <pt x="596" y="628" on="0"/>
        <pt x="620" y="576" on="1"/>
        <pt x="639" y="534" on="0"/>
        <pt x="639" y="480" on="1"/>
        <pt x="639" y="466" on="0"/>
      </contour>
    </TTGlyph>
    <TTGlyph name="Q" xMin="66" yMin="-118" xMax="826" yMax="705">
      <contour>
        <pt x="825" y="337" on="1"/>
        <pt x="825" y="283" on="0"/>
        <pt x="802" y="194" on="0"/>
        <pt x="761" y="119" on="0"/>
        <pt x="708" y="58" on="0"/>
        <pt x="678" y="33" on="1"/>
        <pt x="684" y="22" on="0"/>
        <pt x="699" y="-8" on="0"/>
        <pt x="718" y="-36" on="0"/>
        <pt x="741" y="-56" on="0"/>
        <pt x="755" y="-57" on="1"/>
        <pt x="764" y="-57" on="0"/>
        <pt x="774" y="-52" on="0"/>
        <pt x="783" y="-45" on="0"/>
        <pt x="795" y="-38" on="0"/>
        <pt x="805" y="-37" on="1"/>
        <pt x="821" y="-47" on="0"/>
        <pt x="825" y="-60" on="1"/>
        <pt x="826" y="-65" on="0"/>
        <pt x="826" y="-70" on="1"/>
        <pt x="826" y="-78" on="0"/>
        <pt x="823" y="-85" on="1"/>
        <pt x="817" y="-97" on="0"/>
        <pt x="793" y="-115" on="0"/>
        <pt x="778" y="-117" on="1"/>
        <pt x="769" y="-118" on="0"/>
        <pt x="760" y="-118" on="1"/>
        <pt x="738" y="-118" on="0"/>
        <pt x="721" y="-109" on="1"/>
        <pt x="697" y="-96" on="0"/>
        <pt x="661" y="-55" on="0"/>
        <pt x="633" y="-12" on="0"/>
        <pt x="621" y="0" on="1"/>
        <pt x="575" y="-24" on="0"/>
        <pt x="520" y="-33" on="1"/>
        <pt x="479" y="-40" on="0"/>
        <pt x="437" y="-40" on="1"/>
        <pt x="423" y="-40" on="0"/>
        <pt x="409" y="-39" on="1"/>
        <pt x="352" y="-36" on="0"/>
        <pt x="244" y="-10" on="0"/>
        <pt x="200" y="10" on="1"/>
        <pt x="167" y="34" on="0"/>
        <pt x="116" y="99" on="0"/>
        <pt x="93" y="133" on="1"/>
        <pt x="78" y="180" on="0"/>
        <pt x="71" y="238" on="1"/>
        <pt x="66" y="278" on="0"/>
        <pt x="66" y="318" on="1"/>
        <pt x="66" y="335" on="0"/>
        <pt x="67" y="353" on="1"/>
        <pt x="70" y="410" on="0"/>
        <pt x="96" y="517" on="0"/>
        <pt x="120" y="555" on="1"/>
        <pt x="130" y="571" on="0"/>
        <pt x="156" y="597" on="0"/>
        <pt x="184" y="619" on="0"/>
        <pt x="211" y="640" on="0"/>
        <pt x="223" y="652" on="1"/>
        <pt x="264" y="666" on="0"/>
        <pt x="343" y="694" on="0"/>
        <pt x="387" y="705" on="1"/>
        <pt x="402" y="705" on="1"/>
        <pt x="442" y="705" on="0"/>
        <pt x="486" y="701" on="1"/>
        <pt x="538" y="696" on="0"/>
        <pt x="584" y="688" on="1"/>
        <pt x="607" y="677" on="0"/>
        <pt x="650" y="652" on="0"/>
        <pt x="681" y="648" on="1"/>
        <pt x="701" y="630" on="0"/>
        <pt x="743" y="597" on="0"/>
        <pt x="779" y="559" on="0"/>
        <pt x="806" y="509" on="0"/>
        <pt x="812" y="474" on="1"/>
        <pt x="817" y="442" on="0"/>
        <pt x="825" y="369" on="0"/>
      </contour>
      <contour>
        <pt x="768" y="267" on="1"/>
        <pt x="771" y="289" on="0"/>
        <pt x="771" y="313" on="1"/>
        <pt x="771" y="326" on="1"/>
        <pt x="770" y="358" on="0"/>
        <pt x="763" y="422" on="0"/>
        <pt x="752" y="481" on="0"/>
        <pt x="748" y="504" on="1"/>
        <pt x="718" y="545" on="0"/>
        <pt x="626" y="609" on="0"/>
        <pt x="515" y="646" on="0"/>
        <pt x="452" y="650" on="1"/>
        <pt x="428" y="650" on="1"/>
        <pt x="377" y="650" on="0"/>
        <pt x="324" y="638" on="1"/>
        <pt x="276" y="618" on="0"/>
        <pt x="196" y="566" on="0"/>
        <pt x="166" y="528" on="1"/>
        <pt x="149" y="495" on="0"/>
        <pt x="127" y="412" on="0"/>
        <pt x="123" y="367" on="1"/>
        <pt x="120" y="340" on="0"/>
        <pt x="120" y="313" on="1"/>
        <pt x="120" y="295" on="0"/>
        <pt x="121" y="277" on="1"/>
        <pt x="124" y="231" on="0"/>
        <pt x="147" y="150" on="0"/>
        <pt x="189" y="86" on="0"/>
        <pt x="220" y="67" on="1"/>
        <pt x="274" y="34" on="0"/>
        <pt x="344" y="23" on="1"/>
        <pt x="403" y="13" on="0"/>
        <pt x="463" y="13" on="1"/>
        <pt x="484" y="13" on="1"/>
        <pt x="510" y="24" on="0"/>
        <pt x="569" y="38" on="0"/>
        <pt x="594" y="50" on="1"/>
        <pt x="594" y="62" on="0"/>
        <pt x="574" y="92" on="0"/>
        <pt x="550" y="121" on="0"/>
        <pt x="540" y="135" on="1"/>
        <pt x="531" y="148" on="0"/>
        <pt x="531" y="158" on="1"/>
        <pt x="531" y="160" on="1"/>
        <pt x="532" y="176" on="0"/>
        <pt x="541" y="183" on="1"/>
        <pt x="548" y="187" on="0"/>
        <pt x="558" y="187" on="1"/>
        <pt x="564" y="187" on="1"/>
        <pt x="577" y="185" on="0"/>
        <pt x="600" y="159" on="0"/>
        <pt x="620" y="124" on="0"/>
        <pt x="635" y="91" on="0"/>
        <pt x="641" y="83" on="1"/>
        <pt x="687" y="113" on="0"/>
        <pt x="757" y="201" on="0"/>
      </contour>
    </TTGlyph>
    <TTGlyph name="R" xMin="5" yMin="-104" xMax="710" yMax="726">
      <contour>
        <pt x="710" y="504" on="1"/>
        <pt x="709" y="459" on="0"/>
        <pt x="680" y="393" on="0"/>
        <pt x="634" y="340" on="0"/>
        <pt x="576" y="296" on="0"/>
        <pt x="546" y="274" on="1"/>
        <pt x="563" y="234" on="0"/>
        <pt x="596" y="156" on="0"/>
        <pt x="624" y="75" on="0"/>
        <pt x="645" y="-10" on="0"/>
        <pt x="650" y="-57" on="1"/>
        <pt x="640" y="-65" on="0"/>
        <pt x="630" y="-72" on="1"/>
        <pt x="623" y="-76" on="0"/>
        <pt x="616" y="-76" on="1"/>
        <pt x="611" y="-76" on="0"/>
        <pt x="606" y="-74" on="1"/>
        <pt x="596" y="-70" on="0"/>
        <pt x="588" y="-55" on="0"/>
        <pt x="586" y="-35" on="0"/>
        <pt x="585" y="-12" on="0"/>
        <pt x="583" y="-1" on="1"/>
        <pt x="581" y="10" on="0"/>
        <pt x="567" y="27" on="0"/>
        <pt x="563" y="40" on="1"/>
        <pt x="555" y="61" on="0"/>
        <pt x="552" y="113" on="0"/>
        <pt x="543" y="137" on="1"/>
        <pt x="529" y="171" on="0"/>
        <pt x="495" y="223" on="0"/>
        <pt x="482" y="243" on="1"/>
        <pt x="471" y="243" on="0"/>
        <pt x="445" y="236" on="0"/>
        <pt x="418" y="229" on="0"/>
        <pt x="403" y="228" on="1"/>
        <pt x="399" y="227" on="0"/>
        <pt x="395" y="227" on="1"/>
        <pt x="384" y="227" on="0"/>
        <pt x="372" y="230" on="1"/>
        <pt x="362" y="233" on="0"/>
        <pt x="342" y="245" on="0"/>
        <pt x="325" y="260" on="0"/>
        <pt x="315" y="278" on="0"/>
        <pt x="315" y="287" on="1"/>
        <pt x="315" y="295" on="0"/>
        <pt x="325" y="315" on="0"/>
        <pt x="342" y="334" on="0"/>
        <pt x="362" y="348" on="0"/>
        <pt x="372" y="350" on="1"/>
        <pt x="381" y="352" on="0"/>
        <pt x="390" y="352" on="1"/>
        <pt x="397" y="352" on="0"/>
        <pt x="405" y="351" on="1"/>
        <pt x="421" y="348" on="0"/>
        <pt x="453" y="335" on="0"/>
        <pt x="482" y="320" on="0"/>
        <pt x="493" y="314" on="1"/>
        <pt x="524" y="330" on="0"/>
        <pt x="589" y="374" on="0"/>
        <pt x="635" y="433" on="0"/>
        <pt x="644" y="471" on="1"/>
        <pt x="647" y="484" on="0"/>
        <pt x="647" y="499" on="1"/>
        <pt x="647" y="526" on="0"/>
        <pt x="636" y="558" on="1"/>
        <pt x="616" y="597" on="0"/>
        <pt x="529" y="649" on="0"/>
        <pt x="476" y="659" on="1"/>
        <pt x="443" y="665" on="0"/>
        <pt x="410" y="665" on="1"/>
        <pt x="388" y="665" on="0"/>
        <pt x="366" y="663" on="1"/>
        <pt x="309" y="656" on="0"/>
        <pt x="262" y="631" on="1"/>
        <pt x="269" y="618" on="0"/>
        <pt x="271" y="582" on="0"/>
        <pt x="279" y="571" on="1"/>
        <pt x="275" y="552" on="0"/>
        <pt x="275" y="532" on="1"/>
        <pt x="275" y="530" on="0"/>
        <pt x="276" y="528" on="1"/>
        <pt x="276" y="505" on="0"/>
        <pt x="280" y="460" on="0"/>
        <pt x="287" y="416" on="0"/>
        <pt x="289" y="397" on="1"/>
        <pt x="292" y="366" on="0"/>
        <pt x="294" y="277" on="0"/>
        <pt x="296" y="181" on="0"/>
        <pt x="297" y="89" on="0"/>
        <pt x="299" y="56" on="1"/>
        <pt x="300" y="37" on="0"/>
        <pt x="305" y="-5" on="0"/>
        <pt x="309" y="-44" on="0"/>
        <pt x="309" y="-60" on="1"/>
        <pt x="309" y="-76" on="0"/>
        <pt x="305" y="-84" on="1"/>
        <pt x="301" y="-92" on="0"/>
        <pt x="290" y="-98" on="1"/>
        <pt x="280" y="-104" on="0"/>
        <pt x="274" y="-104" on="1"/>
        <pt x="272" y="-104" on="1"/>
        <pt x="257" y="-103" on="0"/>
        <pt x="245" y="-79" on="0"/>
        <pt x="245" y="-62" on="1"/>
        <pt x="244" y="-59" on="0"/>
        <pt x="244" y="-55" on="1"/>
        <pt x="244" y="-41" on="0"/>
        <pt x="246" y="-24" on="1"/>
        <pt x="248" y="-3" on="0"/>
        <pt x="248" y="16" on="1"/>
        <pt x="249" y="27" on="0"/>
        <pt x="249" y="38" on="1"/>
        <pt x="249" y="64" on="0"/>
        <pt x="245" y="88" on="1"/>
        <pt x="240" y="121" on="0"/>
        <pt x="238" y="147" on="1"/>
        <pt x="234" y="190" on="0"/>
        <pt x="234" y="230" on="1"/>
        <pt x="234" y="246" on="0"/>
        <pt x="235" y="262" on="1"/>
        <pt x="236" y="290" on="0"/>
        <pt x="236" y="317" on="1"/>
        <pt x="236" y="344" on="0"/>
        <pt x="235" y="371" on="1"/>
        <pt x="233" y="429" on="0"/>
        <pt x="217" y="559" on="0"/>
        <pt x="205" y="608" on="1"/>
        <pt x="194" y="601" on="0"/>
        <pt x="164" y="588" on="0"/>
        <pt x="133" y="572" on="0"/>
        <pt x="104" y="551" on="0"/>
        <pt x="95" y="538" on="1"/>
        <pt x="90" y="531" on="0"/>
        <pt x="83" y="508" on="0"/>
        <pt x="78" y="498" on="1"/>
        <pt x="73" y="488" on="0"/>
        <pt x="62" y="466" on="0"/>
        <pt x="59" y="455" on="1"/>
        <pt x="56" y="446" on="0"/>
        <pt x="56" y="436" on="1"/>
        <pt x="56" y="431" on="1"/>
        <pt x="57" y="418" on="0"/>
        <pt x="65" y="404" on="1"/>
        <pt x="76" y="402" on="0"/>
        <pt x="84" y="402" on="1"/>
        <pt x="93" y="402" on="0"/>
        <pt x="100" y="405" on="1"/>
        <pt x="111" y="410" on="0"/>
        <pt x="132" y="422" on="0"/>
        <pt x="144" y="426" on="1"/>
        <pt x="148" y="428" on="0"/>
        <pt x="154" y="428" on="1"/>
        <pt x="162" y="428" on="0"/>
        <pt x="172" y="424" on="1"/>
        <pt x="177" y="418" on="0"/>
        <pt x="178" y="409" on="1"/>
        <pt x="179" y="404" on="0"/>
        <pt x="179" y="398" on="1"/>
        <pt x="179" y="393" on="0"/>
        <pt x="178" y="387" on="1"/>
        <pt x="165" y="371" on="0"/>
        <pt x="120" y="352" on="0"/>
        <pt x="96" y="350" on="1"/>
        <pt x="85" y="350" on="1"/>
        <pt x="66" y="350" on="0"/>
        <pt x="48" y="356" on="1"/>
        <pt x="25" y="363" on="0"/>
        <pt x="11" y="381" on="1"/>
        <pt x="5" y="404" on="0"/>
        <pt x="5" y="428" on="1"/>
        <pt x="5" y="438" on="0"/>
        <pt x="6" y="448" on="1"/>
        <pt x="9" y="482" on="0"/>
        <pt x="34" y="546" on="0"/>
        <pt x="72" y="599" on="0"/>
        <pt x="95" y="615" on="1"/>
        <pt x="113" y="627" on="0"/>
        <pt x="163" y="655" on="0"/>
        <pt x="219" y="681" on="0"/>
        <pt x="277" y="702" on="0"/>
        <pt x="302" y="708" on="1"/>
        <pt x="311" y="710" on="0"/>
        <pt x="344" y="718" on="0"/>
        <pt x="380" y="724" on="0"/>
        <pt x="396" y="726" on="1"/>
        <pt x="407" y="726" on="1"/>
        <pt x="414" y="726" on="0"/>
        <pt x="419" y="725" on="1"/>
        <pt x="437" y="720" on="0"/>
        <pt x="477" y="715" on="0"/>
        <pt x="518" y="709" on="0"/>
        <pt x="556" y="700" on="0"/>
        <pt x="573" y="691" on="1"/>
        <pt x="579" y="688" on="0"/>
        <pt x="592" y="673" on="0"/>
        <pt x="599" y="668" on="1"/>
        <pt x="618" y="656" on="0"/>
        <pt x="658" y="625" on="0"/>
        <pt x="690" y="584" on="0"/>
        <pt x="710" y="534" on="0"/>
      </contour>
      <contour>
        <pt x="429" y="290" on="1"/>
        <pt x="425" y="293" on="0"/>
        <pt x="408" y="299" on="0"/>
        <pt x="399" y="301" on="1"/>
        <pt x="392" y="301" on="1"/>
        <pt x="387" y="301" on="0"/>
        <pt x="383" y="300" on="1"/>
        <pt x="375" y="298" on="0"/>
        <pt x="372" y="290" on="1"/>
        <pt x="374" y="285" on="0"/>
        <pt x="391" y="279" on="0"/>
        <pt x="401" y="279" on="1"/>
        <pt x="410" y="279" on="0"/>
        <pt x="427" y="285" on="0"/>
      </contour>
    </TTGlyph>
    <TTGlyph name="S" xMin="46" yMin="-63" xMax="464" yMax="702">
      <contour>
        <pt x="459" y="602" on="1"/>
        <pt x="464" y="580" on="0"/>
        <pt x="464" y="559" on="1"/>
        <pt x="464" y="550" on="0"/>
        <pt x="463" y="541" on="1"/>
        <pt x="460" y="511" on="0"/>
        <pt x="435" y="464" on="0"/>
        <pt x="394" y="435" on="0"/>
        <pt x="366" y="435" on="1"/>
        <pt x="355" y="439" on="0"/>
        <pt x="352" y="457" on="0"/>
        <pt x="352" y="462" on="1"/>
        <pt x="353" y="471" on="0"/>
        <pt x="362" y="479" on="0"/>
        <pt x="374" y="484" on="0"/>
        <pt x="387" y="489" on="0"/>
        <pt x="392" y="495" on="1"/>
        <pt x="396" y="499" on="0"/>
        <pt x="405" y="516" on="0"/>
        <pt x="412" y="534" on="0"/>
        <pt x="416" y="552" on="0"/>
        <pt x="416" y="559" on="1"/>
        <pt x="415" y="576" on="0"/>
        <pt x="388" y="607" on="0"/>
        <pt x="349" y="632" on="0"/>
        <pt x="304" y="647" on="0"/>
        <pt x="286" y="649" on="1"/>
        <pt x="278" y="650" on="0"/>
        <pt x="270" y="650" on="1"/>
        <pt x="248" y="650" on="0"/>
        <pt x="228" y="644" on="1"/>
        <pt x="200" y="636" on="0"/>
        <pt x="160" y="602" on="0"/>
        <pt x="150" y="577" on="1"/>
        <pt x="144" y="562" on="0"/>
        <pt x="144" y="546" on="1"/>
        <pt x="144" y="533" on="0"/>
        <pt x="148" y="519" on="1"/>
        <pt x="173" y="475" on="0"/>
        <pt x="246" y="410" on="0"/>
        <pt x="324" y="349" on="0"/>
        <pt x="397" y="284" on="0"/>
        <pt x="423" y="241" on="1"/>
        <pt x="435" y="214" on="0"/>
        <pt x="450" y="146" on="0"/>
        <pt x="450" y="112" on="1"/>
        <pt x="450" y="77" on="0"/>
        <pt x="428" y="16" on="0"/>
        <pt x="403" y="-3" on="1"/>
        <pt x="384" y="-17" on="0"/>
        <pt x="333" y="-40" on="0"/>
        <pt x="279" y="-56" on="0"/>
        <pt x="253" y="-60" on="1"/>
        <pt x="231" y="-63" on="0"/>
        <pt x="214" y="-63" on="1"/>
        <pt x="205" y="-63" on="1"/>
        <pt x="187" y="-62" on="0"/>
        <pt x="149" y="-43" on="0"/>
        <pt x="116" y="-14" on="0"/>
        <pt x="87" y="18" on="0"/>
        <pt x="78" y="31" on="1"/>
        <pt x="71" y="41" on="0"/>
        <pt x="54" y="57" on="0"/>
        <pt x="52" y="64" on="1"/>
        <pt x="46" y="80" on="0"/>
        <pt x="46" y="96" on="1"/>
        <pt x="46" y="103" on="0"/>
        <pt x="47" y="109" on="1"/>
        <pt x="50" y="132" on="0"/>
        <pt x="71" y="173" on="0"/>
        <pt x="100" y="207" on="0"/>
        <pt x="115" y="218" on="1"/>
        <pt x="149" y="213" on="0"/>
        <pt x="154" y="200" on="1"/>
        <pt x="155" y="196" on="0"/>
        <pt x="155" y="192" on="1"/>
        <pt x="155" y="182" on="0"/>
        <pt x="148" y="171" on="1"/>
        <pt x="138" y="154" on="0"/>
        <pt x="107" y="121" on="0"/>
        <pt x="102" y="108" on="1"/>
        <pt x="106" y="85" on="0"/>
        <pt x="125" y="52" on="0"/>
        <pt x="152" y="26" on="0"/>
        <pt x="185" y="6" on="0"/>
        <pt x="202" y="-3" on="1"/>
        <pt x="216" y="-4" on="0"/>
        <pt x="228" y="-4" on="1"/>
        <pt x="242" y="-4" on="0"/>
        <pt x="255" y="-2" on="1"/>
        <pt x="277" y="1" on="0"/>
        <pt x="315" y="16" on="0"/>
        <pt x="348" y="35" on="0"/>
        <pt x="366" y="44" on="1"/>
        <pt x="390" y="74" on="0"/>
        <pt x="393" y="108" on="1"/>
        <pt x="393" y="120" on="1"/>
        <pt x="393" y="148" on="0"/>
        <pt x="383" y="176" on="1"/>
        <pt x="371" y="209" on="0"/>
        <pt x="328" y="268" on="0"/>
        <pt x="306" y="288" on="1"/>
        <pt x="297" y="296" on="0"/>
        <pt x="280" y="316" on="0"/>
        <pt x="272" y="321" on="1"/>
        <pt x="240" y="345" on="0"/>
        <pt x="174" y="388" on="0"/>
        <pt x="148" y="415" on="1"/>
        <pt x="134" y="430" on="0"/>
        <pt x="106" y="474" on="0"/>
        <pt x="87" y="526" on="0"/>
        <pt x="86" y="555" on="1"/>
        <pt x="86" y="559" on="1"/>
        <pt x="86" y="586" on="0"/>
        <pt x="98" y="612" on="1"/>
        <pt x="105" y="627" on="0"/>
        <pt x="129" y="648" on="0"/>
        <pt x="158" y="666" on="0"/>
        <pt x="187" y="684" on="0"/>
        <pt x="199" y="696" on="1"/>
        <pt x="232" y="702" on="0"/>
        <pt x="260" y="702" on="1"/>
        <pt x="273" y="702" on="0"/>
        <pt x="285" y="701" on="1"/>
        <pt x="324" y="697" on="0"/>
        <pt x="389" y="670" on="0"/>
        <pt x="439" y="627" on="0"/>
      </contour>
    </TTGlyph>
    <TTGlyph name="Scaron" xMin="44" yMin="-63" xMax="462" yMax="959">
      <component glyphName="S" x="-2" y="0" flags="0x204"/>
      <component glyphName="caron" x="-124" y="276" flags="0x4"/>
    </TTGlyph>
    <TTGlyph name="T" xMin="-26" yMin="-55" xMax="614" yMax="695">
      <contour>
        <pt x="604" y="632" on="1"/>
        <pt x="596" y="627" on="0"/>
        <pt x="587" y="627" on="1"/>
        <pt x="579" y="627" on="0"/>
        <pt x="572" y="630" on="1"/>
        <pt x="553" y="636" on="0"/>
        <pt x="533" y="638" on="1"/>
        <pt x="514" y="640" on="0"/>
        <pt x="494" y="640" on="1"/>
        <pt x="472" y="640" on="0"/>
        <pt x="449" y="638" on="1"/>
        <pt x="405" y="633" on="0"/>
        <pt x="370" y="628" on="1"/>
        <pt x="364" y="601" on="0"/>
        <pt x="364" y="575" on="1"/>
        <pt x="364" y="573" on="0"/>
        <pt x="365" y="571" on="1"/>
        <pt x="365" y="542" on="0"/>
        <pt x="369" y="484" on="0"/>
        <pt x="376" y="424" on="0"/>
        <pt x="376" y="394" on="1"/>
        <pt x="377" y="341" on="0"/>
        <pt x="377" y="287" on="1"/>
        <pt x="377" y="233" on="0"/>
        <pt x="380" y="125" on="0"/>
        <pt x="388" y="19" on="0"/>
        <pt x="396" y="-30" on="1"/>
        <pt x="392" y="-38" on="0"/>
        <pt x="378" y="-50" on="0"/>
        <pt x="369" y="-53" on="1"/>
        <pt x="362" y="-55" on="0"/>
        <pt x="356" y="-55" on="1"/>
        <pt x="351" y="-55" on="1"/>
        <pt x="342" y="-54" on="0"/>
        <pt x="333" y="-47" on="1"/>
        <pt x="328" y="35" on="0"/>
        <pt x="323" y="210" on="0"/>
        <pt x="319" y="382" on="0"/>
        <pt x="311" y="544" on="0"/>
        <pt x="303" y="615" on="1"/>
        <pt x="261" y="614" on="0"/>
        <pt x="183" y="588" on="0"/>
        <pt x="108" y="552" on="0"/>
        <pt x="34" y="514" on="0"/>
        <pt x="-5" y="501" on="1"/>
        <pt x="-16" y="509" on="0"/>
        <pt x="-21" y="519" on="1"/>
        <pt x="-26" y="526" on="0"/>
        <pt x="-26" y="535" on="1"/>
        <pt x="-26" y="539" on="0"/>
        <pt x="-25" y="542" on="1"/>
        <pt x="-23" y="550" on="0"/>
        <pt x="-12" y="558" on="0"/>
        <pt x="4" y="564" on="0"/>
        <pt x="23" y="568" on="0"/>
        <pt x="32" y="572" on="1"/>
        <pt x="46" y="578" on="0"/>
        <pt x="80" y="596" on="0"/>
        <pt x="113" y="615" on="0"/>
        <pt x="141" y="631" on="0"/>
        <pt x="149" y="635" on="1"/>
        <pt x="206" y="653" on="0"/>
        <pt x="366" y="685" on="0"/>
        <pt x="450" y="692" on="1"/>
        <pt x="463" y="693" on="0"/>
        <pt x="483" y="694" on="1"/>
        <pt x="496" y="695" on="0"/>
        <pt x="510" y="695" on="1"/>
        <pt x="524" y="695" on="1"/>
        <pt x="545" y="694" on="0"/>
        <pt x="585" y="687" on="0"/>
        <pt x="610" y="673" on="0"/>
        <pt x="613" y="662" on="1"/>
        <pt x="614" y="659" on="0"/>
        <pt x="614" y="657" on="1"/>
        <pt x="614" y="646" on="0"/>
      </contour>
    </TTGlyph>
    <TTGlyph name="Thorn" xMin="-10" yMin="-133" xMax="749" yMax="772">
      <contour>
        <pt x="745" y="377" on="1"/>
        <pt x="736" y="331" on="0"/>
        <pt x="681" y="254" on="0"/>
        <pt x="599" y="202" on="0"/>
        <pt x="547" y="190" on="1"/>
        <pt x="512" y="182" on="0"/>
        <pt x="476" y="182" on="1"/>
        <pt x="457" y="182" on="0"/>
        <pt x="438" y="184" on="1"/>
        <pt x="399" y="188" on="0"/>
        <pt x="334" y="216" on="0"/>
        <pt x="294" y="224" on="1"/>
        <pt x="293" y="214" on="0"/>
        <pt x="293" y="203" on="1"/>
        <pt x="293" y="184" on="0"/>
        <pt x="296" y="163" on="1"/>
        <pt x="301" y="128" on="0"/>
        <pt x="317" y="56" on="0"/>
        <pt x="335" y="-15" on="0"/>
        <pt x="341" y="-44" on="1"/>
        <pt x="342" y="-53" on="0"/>
        <pt x="352" y="-65" on="0"/>
        <pt x="361" y="-76" on="0"/>
        <pt x="368" y="-88" on="0"/>
        <pt x="368" y="-97" on="1"/>
        <pt x="366" y="-113" on="0"/>
        <pt x="349" y="-130" on="0"/>
        <pt x="338" y="-132" on="1"/>
        <pt x="334" y="-133" on="0"/>
        <pt x="330" y="-133" on="1"/>
        <pt x="322" y="-133" on="0"/>
        <pt x="314" y="-129" on="1"/>
        <pt x="301" y="-125" on="0"/>
        <pt x="291" y="-114" on="1"/>
        <pt x="291" y="-110" on="1"/>
        <pt x="291" y="-104" on="0"/>
        <pt x="294" y="-100" on="1"/>
        <pt x="297" y="-95" on="0"/>
        <pt x="297" y="-87" on="1"/>
        <pt x="291" y="-80" on="0"/>
        <pt x="284" y="-58" on="0"/>
        <pt x="280" y="-33" on="0"/>
        <pt x="275" y="-7" on="0"/>
        <pt x="271" y="6" on="1"/>
        <pt x="268" y="13" on="0"/>
        <pt x="256" y="25" on="0"/>
        <pt x="254" y="30" on="1"/>
        <pt x="253" y="32" on="0"/>
        <pt x="253" y="34" on="1"/>
        <pt x="253" y="37" on="0"/>
        <pt x="255" y="41" on="1"/>
        <pt x="257" y="46" on="0"/>
        <pt x="257" y="50" on="1"/>
        <pt x="257" y="53" on="1"/>
        <pt x="254" y="82" on="0"/>
        <pt x="233" y="148" on="0"/>
        <pt x="230" y="180" on="1"/>
        <pt x="225" y="230" on="0"/>
        <pt x="219" y="336" on="0"/>
        <pt x="216" y="441" on="0"/>
        <pt x="216" y="491" on="1"/>
        <pt x="216" y="541" on="0"/>
        <pt x="217" y="585" on="1"/>
        <pt x="163" y="573" on="0"/>
        <pt x="78" y="529" on="0"/>
        <pt x="43" y="498" on="1"/>
        <pt x="26" y="498" on="1"/>
        <pt x="18" y="496" on="0"/>
        <pt x="11" y="496" on="1"/>
        <pt x="9" y="495" on="0"/>
        <pt x="8" y="495" on="1"/>
        <pt x="2" y="495" on="0"/>
        <pt x="-2" y="498" on="1"/>
        <pt x="-7" y="500" on="0"/>
        <pt x="-10" y="508" on="1"/>
        <pt x="-4" y="531" on="0"/>
        <pt x="28" y="559" on="0"/>
        <pt x="66" y="580" on="0"/>
        <pt x="106" y="600" on="0"/>
        <pt x="120" y="615" on="1"/>
        <pt x="151" y="620" on="0"/>
        <pt x="200" y="643" on="0"/>
        <pt x="227" y="652" on="1"/>
        <pt x="231" y="672" on="0"/>
        <pt x="237" y="721" on="0"/>
        <pt x="250" y="760" on="0"/>
        <pt x="263" y="769" on="1"/>
        <pt x="268" y="772" on="0"/>
        <pt x="276" y="772" on="1"/>
        <pt x="286" y="772" on="0"/>
        <pt x="301" y="765" on="1"/>
        <pt x="304" y="755" on="0"/>
        <pt x="304" y="746" on="1"/>
        <pt x="304" y="739" on="1"/>
        <pt x="302" y="727" on="0"/>
        <pt x="294" y="703" on="0"/>
        <pt x="287" y="679" on="0"/>
        <pt x="287" y="665" on="1"/>
        <pt x="339" y="668" on="0"/>
        <pt x="444" y="679" on="0"/>
        <pt x="493" y="679" on="1"/>
        <pt x="541" y="679" on="0"/>
        <pt x="628" y="660" on="0"/>
        <pt x="662" y="632" on="1"/>
        <pt x="683" y="615" on="0"/>
        <pt x="719" y="560" on="0"/>
        <pt x="744" y="492" on="0"/>
        <pt x="748" y="454" on="1"/>
        <pt x="749" y="440" on="0"/>
        <pt x="749" y="426" on="1"/>
        <pt x="749" y="402" on="0"/>
      </contour>
      <contour>
        <pt x="688" y="481" on="1"/>
        <pt x="685" y="496" on="0"/>
        <pt x="669" y="531" on="0"/>
        <pt x="646" y="565" on="0"/>
        <pt x="619" y="593" on="0"/>
        <pt x="605" y="601" on="1"/>
        <pt x="572" y="620" on="0"/>
        <pt x="529" y="626" on="1"/>
        <pt x="499" y="629" on="0"/>
        <pt x="468" y="629" on="1"/>
        <pt x="440" y="629" on="1"/>
        <pt x="395" y="626" on="0"/>
        <pt x="308" y="611" on="0"/>
        <pt x="274" y="605" on="1"/>
        <pt x="274" y="520" on="1"/>
        <pt x="272" y="491" on="0"/>
        <pt x="272" y="463" on="1"/>
        <pt x="272" y="454" on="0"/>
        <pt x="273" y="445" on="1"/>
        <pt x="273" y="408" on="0"/>
        <pt x="280" y="336" on="0"/>
        <pt x="291" y="297" on="1"/>
        <pt x="322" y="276" on="0"/>
        <pt x="396" y="249" on="0"/>
        <pt x="435" y="245" on="1"/>
        <pt x="452" y="243" on="0"/>
        <pt x="468" y="243" on="1"/>
        <pt x="491" y="243" on="0"/>
        <pt x="513" y="246" on="1"/>
        <pt x="551" y="252" on="0"/>
        <pt x="585" y="270" on="1"/>
        <pt x="591" y="274" on="0"/>
        <pt x="603" y="278" on="0"/>
        <pt x="608" y="281" on="1"/>
        <pt x="631" y="294" on="0"/>
        <pt x="667" y="337" on="0"/>
        <pt x="689" y="391" on="0"/>
        <pt x="692" y="421" on="1"/>
        <pt x="693" y="430" on="0"/>
        <pt x="693" y="439" on="1"/>
        <pt x="693" y="460" on="0"/>
      </contour>
    </TTGlyph>
    <TTGlyph name="U" xMin="67" yMin="-47" xMax="631" yMax="686">
      <contour>
        <pt x="629" y="425" on="1"/>
        <pt x="631" y="398" on="0"/>
        <pt x="631" y="369" on="1"/>
        <pt x="631" y="332" on="1"/>
        <pt x="628" y="282" on="0"/>
        <pt x="612" y="188" on="0"/>
        <pt x="584" y="107" on="0"/>
        <pt x="566" y="81" on="1"/>
        <pt x="558" y="70" on="0"/>
        <pt x="539" y="53" on="0"/>
        <pt x="520" y="37" on="0"/>
        <pt x="503" y="21" on="0"/>
        <pt x="499" y="11" on="1"/>
        <pt x="477" y="1" on="0"/>
        <pt x="431" y="-20" on="0"/>
        <pt x="383" y="-37" on="0"/>
        <pt x="359" y="-42" on="1"/>
        <pt x="341" y="-47" on="0"/>
        <pt x="322" y="-47" on="1"/>
        <pt x="316" y="-47" on="0"/>
        <pt x="309" y="-46" on="1"/>
        <pt x="271" y="-44" on="0"/>
        <pt x="213" y="-19" on="0"/>
        <pt x="166" y="20" on="0"/>
        <pt x="128" y="70" on="0"/>
        <pt x="111" y="97" on="1"/>
        <pt x="93" y="142" on="0"/>
        <pt x="81" y="233" on="0"/>
        <pt x="78" y="281" on="1"/>
        <pt x="77" y="292" on="0"/>
        <pt x="69" y="313" on="0"/>
        <pt x="68" y="325" on="1"/>
        <pt x="67" y="342" on="0"/>
        <pt x="67" y="359" on="1"/>
        <pt x="67" y="377" on="0"/>
        <pt x="68" y="394" on="1"/>
        <pt x="71" y="429" on="0"/>
        <pt x="81" y="498" on="0"/>
        <pt x="92" y="567" on="0"/>
        <pt x="95" y="602" on="1"/>
        <pt x="96" y="607" on="0"/>
        <pt x="96" y="612" on="1"/>
        <pt x="96" y="618" on="0"/>
        <pt x="95" y="623" on="1"/>
        <pt x="94" y="630" on="0"/>
        <pt x="94" y="637" on="1"/>
        <pt x="94" y="641" on="0"/>
        <pt x="95" y="644" on="1"/>
        <pt x="95" y="654" on="0"/>
        <pt x="100" y="673" on="0"/>
        <pt x="108" y="682" on="1"/>
        <pt x="119" y="685" on="0"/>
        <pt x="132" y="686" on="1"/>
        <pt x="133" y="686" on="1"/>
        <pt x="144" y="686" on="0"/>
        <pt x="151" y="679" on="1"/>
        <pt x="156" y="661" on="0"/>
        <pt x="156" y="643" on="1"/>
        <pt x="156" y="624" on="0"/>
        <pt x="151" y="586" on="0"/>
        <pt x="143" y="546" on="0"/>
        <pt x="141" y="525" on="1"/>
        <pt x="138" y="490" on="0"/>
        <pt x="131" y="417" on="0"/>
        <pt x="130" y="379" on="1"/>
        <pt x="129" y="360" on="0"/>
        <pt x="129" y="341" on="1"/>
        <pt x="129" y="321" on="0"/>
        <pt x="130" y="301" on="1"/>
        <pt x="131" y="261" on="0"/>
        <pt x="138" y="218" on="1"/>
        <pt x="147" y="158" on="0"/>
        <pt x="200" y="58" on="0"/>
        <pt x="242" y="31" on="1"/>
        <pt x="252" y="24" on="0"/>
        <pt x="285" y="15" on="0"/>
        <pt x="304" y="13" on="1"/>
        <pt x="317" y="12" on="0"/>
        <pt x="330" y="12" on="1"/>
        <pt x="343" y="12" on="1"/>
        <pt x="362" y="13" on="0"/>
        <pt x="379" y="17" on="1"/>
        <pt x="435" y="30" on="0"/>
        <pt x="514" y="102" on="0"/>
        <pt x="562" y="205" on="0"/>
        <pt x="571" y="267" on="1"/>
        <pt x="577" y="310" on="0"/>
        <pt x="577" y="355" on="1"/>
        <pt x="577" y="375" on="0"/>
        <pt x="576" y="395" on="1"/>
        <pt x="574" y="421" on="0"/>
        <pt x="569" y="476" on="0"/>
        <pt x="566" y="502" on="1"/>
        <pt x="561" y="544" on="0"/>
        <pt x="538" y="622" on="0"/>
        <pt x="526" y="656" on="1"/>
        <pt x="539" y="676" on="0"/>
        <pt x="551" y="681" on="1"/>
        <pt x="556" y="683" on="0"/>
        <pt x="561" y="683" on="1"/>
        <pt x="567" y="683" on="0"/>
        <pt x="573" y="679" on="1"/>
        <pt x="582" y="672" on="0"/>
        <pt x="597" y="641" on="0"/>
        <pt x="608" y="601" on="0"/>
        <pt x="615" y="558" on="0"/>
        <pt x="616" y="539" on="1"/>
        <pt x="616" y="531" on="1"/>
        <pt x="616" y="522" on="0"/>
        <pt x="615" y="513" on="1"/>
        <pt x="613" y="504" on="0"/>
        <pt x="613" y="497" on="1"/>
        <pt x="613" y="492" on="1"/>
        <pt x="615" y="474" on="0"/>
        <pt x="627" y="442" on="0"/>
      </contour>
    </TTGlyph>
    <TTGlyph name="Uacute" xMin="67" yMin="-47" xMax="631" yMax="869">
      <component glyphName="U" x="0" y="0" flags="0x204"/>
      <component glyphName="acute" x="-9" y="195" flags="0x4"/>
    </TTGlyph>
    <TTGlyph name="Ucircumflex" xMin="67" yMin="-47" xMax="631" yMax="897">
      <component glyphName="U" x="0" y="0" flags="0x204"/>
      <component glyphName="circumflex" x="-40" y="215" flags="0x4"/>
    </TTGlyph>
    <TTGlyph name="Udieresis" xMin="67" yMin="-47" xMax="631" yMax="824">
      <component glyphName="U" x="0" y="0" flags="0x204"/>
      <component glyphName="dieresis" x="-40" y="195" flags="0x4"/>
    </TTGlyph>
    <TTGlyph name="Ugrave" xMin="67" yMin="-47" xMax="631" yMax="871">
      <component glyphName="U" x="0" y="0" flags="0x204"/>
      <component glyphName="grave" x="-71" y="205" flags="0x4"/>
    </TTGlyph>
    <TTGlyph name="V" xMin="-5" yMin="-219" xMax="783" yMax="727">
      <contour>
        <pt x="750" y="717" on="1"/>
        <pt x="771" y="717" on="0"/>
        <pt x="778" y="706" on="1"/>
        <pt x="783" y="698" on="0"/>
        <pt x="783" y="689" on="1"/>
        <pt x="783" y="685" on="0"/>
        <pt x="782" y="681" on="1"/>
        <pt x="778" y="667" on="0"/>
        <pt x="766" y="656" on="1"/>
        <pt x="755" y="647" on="0"/>
        <pt x="740" y="647" on="1"/>
        <pt x="734" y="647" on="1"/>
        <pt x="697" y="626" on="0"/>
        <pt x="639" y="570" on="0"/>
        <pt x="589" y="505" on="0"/>
        <pt x="542" y="437" on="0"/>
        <pt x="516" y="406" on="1"/>
        <pt x="499" y="364" on="0"/>
        <pt x="454" y="283" on="0"/>
        <pt x="433" y="239" on="1"/>
        <pt x="428" y="228" on="0"/>
        <pt x="416" y="207" on="0"/>
        <pt x="407" y="185" on="0"/>
        <pt x="404" y="172" on="1"/>
        <pt x="402" y="164" on="0"/>
        <pt x="402" y="155" on="1"/>
        <pt x="402" y="149" on="0"/>
        <pt x="403" y="142" on="1"/>
        <pt x="404" y="122" on="0"/>
        <pt x="417" y="80" on="0"/>
        <pt x="432" y="36" on="0"/>
        <pt x="446" y="-9" on="0"/>
        <pt x="450" y="-32" on="1"/>
        <pt x="455" y="-62" on="0"/>
        <pt x="455" y="-94" on="1"/>
        <pt x="455" y="-127" on="0"/>
        <pt x="453" y="-159" on="1"/>
        <pt x="445" y="-167" on="0"/>
        <pt x="429" y="-188" on="0"/>
        <pt x="412" y="-208" on="0"/>
        <pt x="401" y="-214" on="1"/>
        <pt x="392" y="-219" on="0"/>
        <pt x="380" y="-219" on="1"/>
        <pt x="376" y="-219" on="1"/>
        <pt x="351" y="-217" on="0"/>
        <pt x="320" y="-161" on="0"/>
        <pt x="305" y="-83" on="0"/>
        <pt x="305" y="-40" on="1"/>
        <pt x="304" y="-37" on="0"/>
        <pt x="304" y="-33" on="1"/>
        <pt x="304" y="5" on="0"/>
        <pt x="309" y="32" on="1"/>
        <pt x="318" y="56" on="0"/>
        <pt x="343" y="107" on="0"/>
        <pt x="343" y="132" on="1"/>
        <pt x="342" y="151" on="0"/>
        <pt x="311" y="199" on="0"/>
        <pt x="299" y="222" on="1"/>
        <pt x="288" y="245" on="0"/>
        <pt x="267" y="290" on="0"/>
        <pt x="256" y="309" on="1"/>
        <pt x="244" y="330" on="0"/>
        <pt x="219" y="366" on="0"/>
        <pt x="196" y="400" on="0"/>
        <pt x="175" y="435" on="0"/>
        <pt x="165" y="456" on="1"/>
        <pt x="162" y="464" on="0"/>
        <pt x="147" y="473" on="0"/>
        <pt x="142" y="480" on="1"/>
        <pt x="136" y="499" on="0"/>
        <pt x="115" y="532" on="0"/>
        <pt x="90" y="564" on="0"/>
        <pt x="64" y="594" on="0"/>
        <pt x="52" y="610" on="1"/>
        <pt x="43" y="622" on="0"/>
        <pt x="24" y="646" on="0"/>
        <pt x="7" y="674" on="0"/>
        <pt x="-5" y="706" on="0"/>
        <pt x="-5" y="724" on="1"/>
        <pt x="2" y="727" on="0"/>
        <pt x="9" y="727" on="1"/>
        <pt x="18" y="727" on="0"/>
        <pt x="28" y="721" on="1"/>
        <pt x="45" y="710" on="0"/>
        <pt x="76" y="671" on="0"/>
        <pt x="104" y="627" on="0"/>
        <pt x="115" y="613" on="1"/>
        <pt x="136" y="594" on="0"/>
        <pt x="171" y="552" on="0"/>
        <pt x="182" y="523" on="1"/>
        <pt x="236" y="457" on="0"/>
        <pt x="321" y="302" on="0"/>
        <pt x="366" y="226" on="1"/>
        <pt x="388" y="265" on="0"/>
        <pt x="442" y="361" on="0"/>
        <pt x="500" y="462" on="0"/>
        <pt x="564" y="560" on="0"/>
        <pt x="597" y="600" on="1"/>
        <pt x="606" y="611" on="0"/>
        <pt x="634" y="636" on="0"/>
        <pt x="664" y="660" on="0"/>
        <pt x="695" y="681" on="0"/>
        <pt x="707" y="690" on="1"/>
        <pt x="719" y="699" on="0"/>
        <pt x="737" y="717" on="0"/>
      </contour>
      <contour>
        <pt x="386" y="-155" on="1"/>
        <pt x="399" y="-137" on="0"/>
        <pt x="401" y="-112" on="1"/>
        <pt x="401" y="-99" on="1"/>
        <pt x="401" y="-80" on="0"/>
        <pt x="398" y="-60" on="1"/>
        <pt x="393" y="-33" on="0"/>
        <pt x="376" y="18" on="0"/>
        <pt x="369" y="38" on="1"/>
        <pt x="363" y="18" on="0"/>
        <pt x="353" y="-37" on="0"/>
        <pt x="353" y="-64" on="1"/>
        <pt x="353" y="-92" on="0"/>
        <pt x="368" y="-141" on="0"/>
      </contour>
    </TTGlyph>
    <TTGlyph name="W" xMin="77" yMin="-31" xMax="971" yMax="670">
      <contour>
        <pt x="964" y="494" on="1"/>
        <pt x="971" y="448" on="0"/>
        <pt x="971" y="403" on="1"/>
        <pt x="971" y="382" on="0"/>
        <pt x="970" y="362" on="1"/>
        <pt x="965" y="296" on="0"/>
        <pt x="957" y="230" on="1"/>
        <pt x="947" y="199" on="0"/>
        <pt x="920" y="145" on="0"/>
        <pt x="911" y="113" on="1"/>
        <pt x="882" y="79" on="0"/>
        <pt x="814" y="22" on="0"/>
        <pt x="777" y="-4" on="1"/>
        <pt x="757" y="-5" on="0"/>
        <pt x="729" y="-16" on="0"/>
        <pt x="717" y="-24" on="1"/>
        <pt x="691" y="-27" on="0"/>
        <pt x="667" y="-27" on="1"/>
        <pt x="615" y="-27" on="0"/>
        <pt x="569" y="-15" on="1"/>
        <pt x="500" y="2" on="0"/>
        <pt x="459" y="50" on="1"/>
        <pt x="421" y="17" on="0"/>
        <pt x="320" y="-21" on="0"/>
        <pt x="259" y="-31" on="1"/>
        <pt x="200" y="-14" on="0"/>
        <pt x="120" y="44" on="0"/>
        <pt x="98" y="103" on="1"/>
        <pt x="82" y="146" on="0"/>
        <pt x="79" y="195" on="1"/>
        <pt x="77" y="221" on="0"/>
        <pt x="77" y="248" on="1"/>
        <pt x="77" y="272" on="0"/>
        <pt x="78" y="297" on="1"/>
        <pt x="81" y="345" on="0"/>
        <pt x="111" y="453" on="0"/>
        <pt x="128" y="498" on="1"/>
        <pt x="137" y="519" on="0"/>
        <pt x="149" y="550" on="0"/>
        <pt x="163" y="576" on="0"/>
        <pt x="180" y="602" on="0"/>
        <pt x="192" y="618" on="1"/>
        <pt x="197" y="625" on="0"/>
        <pt x="219" y="651" on="0"/>
        <pt x="243" y="669" on="0"/>
        <pt x="255" y="670" on="1"/>
        <pt x="266" y="670" on="0"/>
        <pt x="272" y="651" on="1"/>
        <pt x="274" y="645" on="0"/>
        <pt x="274" y="639" on="1"/>
        <pt x="274" y="634" on="0"/>
        <pt x="272" y="629" on="1"/>
        <pt x="268" y="620" on="0"/>
        <pt x="253" y="605" on="0"/>
        <pt x="236" y="591" on="0"/>
        <pt x="232" y="584" on="1"/>
        <pt x="225" y="574" on="0"/>
        <pt x="217" y="549" on="0"/>
        <pt x="205" y="544" on="1"/>
        <pt x="191" y="503" on="0"/>
        <pt x="159" y="410" on="0"/>
        <pt x="136" y="311" on="0"/>
        <pt x="133" y="260" on="1"/>
        <pt x="132" y="249" on="0"/>
        <pt x="132" y="238" on="1"/>
        <pt x="132" y="199" on="0"/>
        <pt x="142" y="160" on="1"/>
        <pt x="148" y="136" on="0"/>
        <pt x="170" y="94" on="0"/>
        <pt x="182" y="73" on="1"/>
        <pt x="201" y="49" on="0"/>
        <pt x="228" y="40" on="1"/>
        <pt x="252" y="31" on="0"/>
        <pt x="279" y="31" on="1"/>
        <pt x="285" y="31" on="1"/>
        <pt x="314" y="32" on="0"/>
        <pt x="374" y="53" on="0"/>
        <pt x="399" y="70" on="1"/>
        <pt x="413" y="78" on="0"/>
        <pt x="430" y="101" on="0"/>
        <pt x="436" y="110" on="1"/>
        <pt x="426" y="133" on="0"/>
        <pt x="415" y="196" on="0"/>
        <pt x="415" y="228" on="1"/>
        <pt x="414" y="230" on="0"/>
        <pt x="414" y="233" on="1"/>
        <pt x="414" y="262" on="0"/>
        <pt x="420" y="289" on="1"/>
        <pt x="426" y="317" on="0"/>
        <pt x="455" y="354" on="0"/>
        <pt x="479" y="358" on="1"/>
        <pt x="483" y="359" on="0"/>
        <pt x="487" y="359" on="1"/>
        <pt x="508" y="359" on="0"/>
        <pt x="536" y="344" on="1"/>
        <pt x="553" y="315" on="0"/>
        <pt x="556" y="280" on="1"/>
        <pt x="557" y="273" on="0"/>
        <pt x="557" y="267" on="1"/>
        <pt x="557" y="237" on="0"/>
        <pt x="546" y="203" on="1"/>
        <pt x="541" y="187" on="0"/>
        <pt x="525" y="161" on="0"/>
        <pt x="511" y="138" on="0"/>
        <pt x="507" y="126" on="1"/>
        <pt x="505" y="119" on="0"/>
        <pt x="505" y="112" on="1"/>
        <pt x="505" y="106" on="0"/>
        <pt x="506" y="100" on="1"/>
        <pt x="509" y="89" on="0"/>
        <pt x="522" y="75" on="0"/>
        <pt x="539" y="63" on="0"/>
        <pt x="558" y="52" on="0"/>
        <pt x="566" y="43" on="1"/>
        <pt x="598" y="30" on="0"/>
        <pt x="631" y="29" on="1"/>
        <pt x="637" y="28" on="0"/>
        <pt x="643" y="28" on="1"/>
        <pt x="669" y="28" on="0"/>
        <pt x="694" y="34" on="1"/>
        <pt x="724" y="40" on="0"/>
        <pt x="780" y="68" on="0"/>
        <pt x="804" y="86" on="1"/>
        <pt x="851" y="123" on="0"/>
        <pt x="906" y="236" on="0"/>
        <pt x="914" y="317" on="1"/>
        <pt x="917" y="349" on="0"/>
        <pt x="917" y="385" on="1"/>
        <pt x="917" y="421" on="0"/>
        <pt x="911" y="490" on="0"/>
        <pt x="897" y="552" on="0"/>
        <pt x="887" y="574" on="1"/>
        <pt x="884" y="580" on="0"/>
        <pt x="874" y="594" on="0"/>
        <pt x="864" y="607" on="0"/>
        <pt x="857" y="621" on="0"/>
        <pt x="857" y="628" on="1"/>
        <pt x="859" y="642" on="0"/>
        <pt x="883" y="658" on="0"/>
        <pt x="891" y="658" on="1"/>
        <pt x="907" y="658" on="0"/>
        <pt x="933" y="617" on="0"/>
        <pt x="951" y="562" on="0"/>
        <pt x="962" y="507" on="0"/>
      </contour>
      <contour>
        <pt x="509" y="287" on="1"/>
        <pt x="498" y="299" on="0"/>
        <pt x="491" y="299" on="1"/>
        <pt x="488" y="299" on="0"/>
        <pt x="486" y="297" on="1"/>
        <pt x="477" y="290" on="0"/>
        <pt x="474" y="272" on="1"/>
        <pt x="472" y="258" on="0"/>
        <pt x="472" y="241" on="1"/>
        <pt x="472" y="230" on="1"/>
        <pt x="473" y="207" on="0"/>
        <pt x="476" y="193" on="1"/>
        <pt x="493" y="209" on="0"/>
        <pt x="502" y="262" on="0"/>
      </contour>
    </TTGlyph>
    <TTGlyph name="X" xMin="36" yMin="-80" xMax="691" yMax="720">
      <contour>
        <pt x="674" y="3" on="1"/>
        <pt x="691" y="-15" on="0"/>
        <pt x="691" y="-30" on="1"/>
        <pt x="691" y="-33" on="0"/>
        <pt x="690" y="-37" on="1"/>
        <pt x="684" y="-54" on="0"/>
        <pt x="668" y="-60" on="1"/>
        <pt x="660" y="-63" on="0"/>
        <pt x="653" y="-63" on="1"/>
        <pt x="643" y="-63" on="0"/>
        <pt x="633" y="-58" on="1"/>
        <pt x="615" y="-50" on="0"/>
        <pt x="611" y="-23" on="1"/>
        <pt x="580" y="1" on="0"/>
        <pt x="527" y="56" on="0"/>
        <pt x="478" y="115" on="0"/>
        <pt x="428" y="173" on="0"/>
        <pt x="400" y="200" on="1"/>
        <pt x="400" y="204" on="1"/>
        <pt x="400" y="212" on="0"/>
        <pt x="397" y="217" on="1"/>
        <pt x="392" y="222" on="0"/>
        <pt x="390" y="231" on="1"/>
        <pt x="333" y="163" on="0"/>
        <pt x="212" y="38" on="0"/>
        <pt x="143" y="-17" on="1"/>
        <pt x="140" y="-22" on="0"/>
        <pt x="136" y="-35" on="0"/>
        <pt x="133" y="-40" on="1"/>
        <pt x="116" y="-48" on="0"/>
        <pt x="91" y="-71" on="0"/>
        <pt x="76" y="-80" on="1"/>
        <pt x="63" y="-76" on="0"/>
        <pt x="41" y="-66" on="0"/>
        <pt x="36" y="-54" on="1"/>
        <pt x="40" y="-37" on="0"/>
        <pt x="62" y="-16" on="0"/>
        <pt x="86" y="2" on="0"/>
        <pt x="110" y="22" on="0"/>
        <pt x="116" y="37" on="1"/>
        <pt x="130" y="44" on="0"/>
        <pt x="152" y="63" on="0"/>
        <pt x="174" y="84" on="0"/>
        <pt x="197" y="102" on="0"/>
        <pt x="213" y="107" on="1"/>
        <pt x="228" y="130" on="0"/>
        <pt x="265" y="171" on="0"/>
        <pt x="302" y="210" on="0"/>
        <pt x="336" y="252" on="0"/>
        <pt x="350" y="277" on="1"/>
        <pt x="278" y="383" on="0"/>
        <pt x="122" y="580" on="0"/>
        <pt x="53" y="689" on="1"/>
        <pt x="58" y="703" on="0"/>
        <pt x="67" y="712" on="1"/>
        <pt x="74" y="719" on="0"/>
        <pt x="87" y="719" on="1"/>
        <pt x="93" y="719" on="1"/>
        <pt x="100" y="717" on="0"/>
        <pt x="122" y="691" on="0"/>
        <pt x="145" y="657" on="0"/>
        <pt x="165" y="625" on="0"/>
        <pt x="170" y="618" on="1"/>
        <pt x="202" y="574" on="0"/>
        <pt x="249" y="507" on="0"/>
        <pt x="280" y="475" on="1"/>
        <pt x="291" y="455" on="0"/>
        <pt x="319" y="421" on="0"/>
        <pt x="349" y="389" on="0"/>
        <pt x="376" y="355" on="0"/>
        <pt x="387" y="334" on="1"/>
        <pt x="402" y="343" on="0"/>
        <pt x="423" y="371" on="0"/>
        <pt x="442" y="401" on="0"/>
        <pt x="462" y="429" on="0"/>
        <pt x="477" y="438" on="1"/>
        <pt x="491" y="474" on="0"/>
        <pt x="528" y="536" on="0"/>
        <pt x="564" y="600" on="0"/>
        <pt x="594" y="670" on="0"/>
        <pt x="601" y="712" on="1"/>
        <pt x="620" y="720" on="0"/>
        <pt x="632" y="720" on="1"/>
        <pt x="636" y="720" on="0"/>
        <pt x="639" y="719" on="1"/>
        <pt x="651" y="715" on="0"/>
        <pt x="653" y="702" on="1"/>
        <pt x="654" y="698" on="0"/>
        <pt x="654" y="694" on="1"/>
        <pt x="654" y="683" on="0"/>
        <pt x="650" y="668" on="1"/>
        <pt x="644" y="648" on="0"/>
        <pt x="626" y="607" on="0"/>
        <pt x="607" y="569" on="0"/>
        <pt x="601" y="558" on="1"/>
        <pt x="588" y="535" on="0"/>
        <pt x="572" y="492" on="0"/>
        <pt x="564" y="478" on="1"/>
        <pt x="560" y="471" on="0"/>
        <pt x="546" y="459" on="0"/>
        <pt x="541" y="451" on="1"/>
        <pt x="536" y="443" on="0"/>
        <pt x="534" y="426" on="0"/>
        <pt x="531" y="421" on="1"/>
        <pt x="520" y="404" on="0"/>
        <pt x="490" y="370" on="0"/>
        <pt x="461" y="336" on="0"/>
        <pt x="435" y="303" on="0"/>
        <pt x="427" y="287" on="1"/>
        <pt x="476" y="202" on="0"/>
        <pt x="599" y="62" on="0"/>
      </contour>
    </TTGlyph>
    <TTGlyph name="Y" xMin="102" yMin="-455" xMax="808" yMax="697">
      <contour>
        <pt x="808" y="-176" on="1"/>
        <pt x="803" y="-182" on="0"/>
        <pt x="791" y="-194" on="0"/>
        <pt x="776" y="-202" on="0"/>
        <pt x="768" y="-202" on="1"/>
        <pt x="767" y="-203" on="0"/>
        <pt x="766" y="-203" on="1"/>
        <pt x="758" y="-203" on="0"/>
        <pt x="749" y="-198" on="1"/>
        <pt x="744" y="-188" on="0"/>
        <pt x="741" y="-168" on="0"/>
        <pt x="739" y="-149" on="0"/>
        <pt x="735" y="-131" on="0"/>
        <pt x="729" y="-123" on="1"/>
        <pt x="721" y="-112" on="0"/>
        <pt x="697" y="-100" on="0"/>
        <pt x="670" y="-91" on="0"/>
        <pt x="640" y="-84" on="0"/>
        <pt x="627" y="-79" on="1"/>
        <pt x="610" y="-111" on="0"/>
        <pt x="599" y="-185" on="0"/>
        <pt x="587" y="-224" on="1"/>
        <pt x="578" y="-257" on="0"/>
        <pt x="556" y="-311" on="0"/>
        <pt x="527" y="-356" on="0"/>
        <pt x="486" y="-394" on="0"/>
        <pt x="458" y="-412" on="1"/>
        <pt x="447" y="-418" on="0"/>
        <pt x="429" y="-433" on="0"/>
        <pt x="407" y="-446" on="0"/>
        <pt x="380" y="-455" on="0"/>
        <pt x="361" y="-455" on="1"/>
        <pt x="332" y="-455" on="0"/>
        <pt x="289" y="-424" on="0"/>
        <pt x="269" y="-407" on="1"/>
        <pt x="267" y="-395" on="0"/>
        <pt x="260" y="-378" on="0"/>
        <pt x="252" y="-368" on="1"/>
        <pt x="251" y="-358" on="0"/>
        <pt x="251" y="-349" on="1"/>
        <pt x="251" y="-317" on="0"/>
        <pt x="259" y="-289" on="1"/>
        <pt x="269" y="-252" on="0"/>
        <pt x="306" y="-186" on="0"/>
        <pt x="358" y="-130" on="0"/>
        <pt x="388" y="-106" on="1"/>
        <pt x="421" y="-80" on="0"/>
        <pt x="506" y="-34" on="0"/>
        <pt x="562" y="-32" on="1"/>
        <pt x="565" y="1" on="0"/>
        <pt x="566" y="38" on="1"/>
        <pt x="566" y="62" on="1"/>
        <pt x="566" y="87" on="0"/>
        <pt x="565" y="112" on="1"/>
        <pt x="564" y="150" on="0"/>
        <pt x="561" y="225" on="0"/>
        <pt x="560" y="260" on="1"/>
        <pt x="552" y="254" on="0"/>
        <pt x="545" y="238" on="0"/>
        <pt x="542" y="222" on="0"/>
        <pt x="539" y="205" on="0"/>
        <pt x="536" y="197" on="1"/>
        <pt x="521" y="163" on="0"/>
        <pt x="480" y="105" on="0"/>
        <pt x="433" y="52" on="0"/>
        <pt x="382" y="3" on="0"/>
        <pt x="356" y="-22" on="1"/>
        <pt x="339" y="-30" on="0"/>
        <pt x="300" y="-41" on="0"/>
        <pt x="280" y="-43" on="1"/>
        <pt x="266" y="-45" on="0"/>
        <pt x="252" y="-45" on="1"/>
        <pt x="241" y="-45" on="1"/>
        <pt x="221" y="-44" on="0"/>
        <pt x="203" y="-37" on="1"/>
        <pt x="166" y="-6" on="0"/>
        <pt x="125" y="78" on="0"/>
        <pt x="105" y="176" on="0"/>
        <pt x="103" y="228" on="1"/>
        <pt x="102" y="254" on="0"/>
        <pt x="102" y="280" on="1"/>
        <pt x="102" y="306" on="0"/>
        <pt x="103" y="331" on="1"/>
        <pt x="104" y="378" on="0"/>
        <pt x="119" y="462" on="0"/>
        <pt x="137" y="543" on="0"/>
        <pt x="156" y="622" on="0"/>
        <pt x="162" y="664" on="1"/>
        <pt x="171" y="672" on="0"/>
        <pt x="184" y="675" on="1"/>
        <pt x="189" y="675" on="1"/>
        <pt x="198" y="675" on="0"/>
        <pt x="205" y="669" on="1"/>
        <pt x="206" y="659" on="0"/>
        <pt x="206" y="649" on="1"/>
        <pt x="206" y="632" on="0"/>
        <pt x="204" y="614" on="1"/>
        <pt x="200" y="586" on="0"/>
        <pt x="188" y="527" on="0"/>
        <pt x="175" y="466" on="0"/>
        <pt x="171" y="435" on="1"/>
        <pt x="162" y="358" on="0"/>
        <pt x="161" y="284" on="1"/>
        <pt x="160" y="275" on="0"/>
        <pt x="160" y="266" on="1"/>
        <pt x="160" y="200" on="0"/>
        <pt x="170" y="136" on="1"/>
        <pt x="173" y="115" on="0"/>
        <pt x="188" y="72" on="0"/>
        <pt x="210" y="36" on="0"/>
        <pt x="240" y="11" on="0"/>
        <pt x="259" y="9" on="1"/>
        <pt x="288" y="10" on="0"/>
        <pt x="321" y="27" on="0"/>
        <pt x="344" y="37" on="1"/>
        <pt x="395" y="71" on="0"/>
        <pt x="463" y="167" on="0"/>
        <pt x="510" y="279" on="0"/>
        <pt x="544" y="403" on="0"/>
        <pt x="560" y="465" on="1"/>
        <pt x="559" y="477" on="0"/>
        <pt x="559" y="489" on="1"/>
        <pt x="559" y="502" on="0"/>
        <pt x="560" y="515" on="1"/>
        <pt x="562" y="540" on="0"/>
        <pt x="567" y="592" on="0"/>
        <pt x="569" y="619" on="1"/>
        <pt x="569" y="636" on="1"/>
        <pt x="569" y="653" on="0"/>
        <pt x="567" y="670" on="1"/>
        <pt x="570" y="681" on="0"/>
        <pt x="588" y="694" on="0"/>
        <pt x="601" y="697" on="1"/>
        <pt x="618" y="684" on="0"/>
        <pt x="624" y="665" on="1"/>
        <pt x="628" y="649" on="0"/>
        <pt x="628" y="630" on="1"/>
        <pt x="628" y="624" on="1"/>
        <pt x="627" y="601" on="0"/>
        <pt x="617" y="553" on="0"/>
        <pt x="614" y="531" on="1"/>
        <pt x="611" y="505" on="0"/>
        <pt x="611" y="477" on="1"/>
        <pt x="611" y="452" on="0"/>
        <pt x="614" y="425" on="1"/>
        <pt x="619" y="369" on="0"/>
        <pt x="619" y="309" on="1"/>
        <pt x="620" y="267" on="0"/>
        <pt x="620" y="224" on="1"/>
        <pt x="620" y="182" on="0"/>
        <pt x="619" y="140" on="1"/>
        <pt x="619" y="99" on="1"/>
        <pt x="619" y="37" on="0"/>
        <pt x="621" y="-20" on="1"/>
        <pt x="654" y="-25" on="0"/>
        <pt x="718" y="-41" on="0"/>
        <pt x="770" y="-75" on="0"/>
        <pt x="805" y="-131" on="0"/>
      </contour>
      <contour>
        <pt x="557" y="-90" on="1"/>
        <pt x="515" y="-91" on="0"/>
        <pt x="428" y="-134" on="0"/>
        <pt x="355" y="-199" on="0"/>
        <pt x="305" y="-279" on="0"/>
        <pt x="301" y="-316" on="1"/>
        <pt x="300" y="-324" on="0"/>
        <pt x="300" y="-331" on="1"/>
        <pt x="300" y="-340" on="0"/>
        <pt x="302" y="-347" on="1"/>
        <pt x="304" y="-361" on="0"/>
        <pt x="316" y="-380" on="0"/>
        <pt x="333" y="-393" on="0"/>
        <pt x="343" y="-399" on="1"/>
        <pt x="352" y="-398" on="0"/>
        <pt x="361" y="-398" on="1"/>
        <pt x="374" y="-398" on="1"/>
        <pt x="384" y="-398" on="0"/>
        <pt x="392" y="-395" on="1"/>
        <pt x="433" y="-377" on="0"/>
        <pt x="494" y="-315" on="0"/>
        <pt x="535" y="-234" on="0"/>
        <pt x="556" y="-140" on="0"/>
      </contour>
    </TTGlyph>
    <TTGlyph name="Yacute" xMin="101" yMin="-455" xMax="807" yMax="869">
      <component glyphName="Y" x="-1" y="0" flags="0x204"/>
      <component glyphName="acute" x="50" y="195" flags="0x4"/>
    </TTGlyph>
    <TTGlyph name="Ydieresis" xMin="102" yMin="-455" xMax="808" yMax="824">
      <component glyphName="Y" x="0" y="0" flags="0x204"/>
      <component glyphName="dieresis" x="0" y="195" flags="0x4"/>
    </TTGlyph>
</ttFont>
